<svg viewBox="0 0 330 200" xmlns="http://www.w3.org/2000/svg"><g><g><g><g><g><line x1="82.734375" y1="177" x2="77.734375" y2="177" style="visibility: inherit;" fill="rgb(0, 0, 0)" stroke="rgb(204, 204, 204)" stroke-width="1px"></line><line x1="82.734375" y1="157.33333333333331" x2="77.734375" y2="157.33333333333331" style="visibility: inherit;" fill="rgb(0, 0, 0)" stroke="rgb(204, 204, 204)" stroke-width="1px"></line><line x1="82.734375" y1="137.66666666666666" x2="77.734375" y2="137.66666666666666" style="visibility: inherit;" fill="rgb(0, 0, 0)" stroke="rgb(204, 204, 204)" stroke-width="1px"></line><line x1="82.734375" y1="118.00000000000001" x2="77.734375" y2="118.00000000000001" style="visibility: inherit;" fill="rgb(0, 0, 0)" stroke="rgb(204, 204, 204)" stroke-width="1px"></line><line x1="82.734375" y1="98.33333333333334" x2="77.734375" y2="98.33333333333334" style="visibility: inherit;" fill="rgb(0, 0, 0)" stroke="rgb(204, 204, 204)" stroke-width="1px"></line><line x1="82.734375" y1="78.66666666666666" x2="77.734375" y2="78.66666666666666" style="visibility: inherit;" fill="rgb(0, 0, 0)" stroke="rgb(204, 204, 204)" stroke-width="1px"></line><line x1="82.734375" y1="59.00000000000001" x2="77.734375" y2="59.00000000000001" style="visibility: inherit;" fill="rgb(0, 0, 0)" stroke="rgb(204, 204, 204)" stroke-width="1px"></line><line x1="82.734375" y1="39.33333333333333" x2="77.734375" y2="39.33333333333333" style="visibility: inherit;" fill="rgb(0, 0, 0)" stroke="rgb(204, 204, 204)" stroke-width="1px"></line><line x1="82.734375" y1="19.666666666666675" x2="77.734375" y2="19.666666666666675" style="visibility: inherit;" fill="rgb(0, 0, 0)" stroke="rgb(204, 204, 204)" stroke-width="1px"></line><line x1="82.734375" y1="0" x2="77.734375" y2="0" style="visibility: inherit;" fill="rgb(0, 0, 0)" stroke="rgb(204, 204, 204)" stroke-width="1px"></line></g><g transform="translate(72.734375, 0)"><text x="0" y="177" dx="0em" dy="0.3em" style="text-anchor: end; visibility: hidden; font-family: Roboto, sans-serif; font-size: 12px; font-weight: 200;" fill="rgb(255, 255, 255)" stroke="none" stroke-width="1px">-1.8e+3</text><text x="0" y="157.33333333333331" dx="0em" dy="0.3em" style="text-anchor: end; visibility: inherit; font-family: Roboto, sans-serif; font-size: 12px; font-weight: 200;" fill="rgb(255, 255, 255)" stroke="none" stroke-width="1px">-1.6e+3</text><text x="0" y="137.66666666666666" dx="0em" dy="0.3em" style="text-anchor: end; visibility: hidden; font-family: Roboto, sans-serif; font-size: 12px; font-weight: 200;" fill="rgb(255, 255, 255)" stroke="none" stroke-width="1px">-1.4e+3</text><text x="0" y="118.00000000000001" dx="0em" dy="0.3em" style="text-anchor: end; visibility: inherit; font-family: Roboto, sans-serif; font-size: 12px; font-weight: 200;" fill="rgb(255, 255, 255)" stroke="none" stroke-width="1px">-1.2e+3</text><text x="0" y="98.33333333333334" dx="0em" dy="0.3em" style="text-anchor: end; visibility: hidden; font-family: Roboto, sans-serif; font-size: 12px; font-weight: 200;" fill="rgb(255, 255, 255)" stroke="none" stroke-width="1px">-1e+3</text><text x="0" y="78.66666666666666" dx="0em" dy="0.3em" style="text-anchor: end; visibility: inherit; font-family: Roboto, sans-serif; font-size: 12px; font-weight: 200;" fill="rgb(255, 255, 255)" stroke="none" stroke-width="1px">-800</text><text x="0" y="59.00000000000001" dx="0em" dy="0.3em" style="text-anchor: end; visibility: hidden; font-family: Roboto, sans-serif; font-size: 12px; font-weight: 200;" fill="rgb(255, 255, 255)" stroke="none" stroke-width="1px">-600</text><text x="0" y="39.33333333333333" dx="0em" dy="0.3em" style="text-anchor: end; visibility: inherit; font-family: Roboto, sans-serif; font-size: 12px; font-weight: 200;" fill="rgb(255, 255, 255)" stroke="none" stroke-width="1px">-400</text><text x="0" y="19.666666666666675" dx="0em" dy="0.3em" style="text-anchor: end; visibility: hidden; font-family: Roboto, sans-serif; font-size: 12px; font-weight: 200;" fill="rgb(255, 255, 255)" stroke="none" stroke-width="1px">-200</text><text x="0" y="0" dx="0em" dy="0.3em" style="text-anchor: end; visibility: hidden; font-family: Roboto, sans-serif; font-size: 12px; font-weight: 200;" fill="rgb(255, 255, 255)" stroke="none" stroke-width="1px">0</text></g><line x1="82.734375" y1="0" x2="82.734375" y2="177" fill="rgb(0, 0, 0)" stroke="rgb(204, 204, 204)" stroke-width="1px"></line></g></g><g transform="translate(82, 0)" clip-path="url(#clip_0)"><clipPath id="clip_0"><rect width="247" height="176"></rect></clipPath><g><g><g><line x1="0" y1="0" x2="0" y2="177" fill="rgb(0, 0, 0)" stroke="rgb(189, 189, 189)" stroke-width="1px" opacity="0.25"></line><line x1="20.60546875" y1="0" x2="20.60546875" y2="177" fill="rgb(0, 0, 0)" stroke="rgb(189, 189, 189)" stroke-width="1px" opacity="0.25"></line><line x1="41.2109375" y1="0" x2="41.2109375" y2="177" fill="rgb(0, 0, 0)" stroke="rgb(189, 189, 189)" stroke-width="1px" opacity="0.25"></line><line x1="61.81640625" y1="0" x2="61.81640625" y2="177" fill="rgb(0, 0, 0)" stroke="rgb(189, 189, 189)" stroke-width="1px" opacity="0.25"></line><line x1="82.421875" y1="0" x2="82.421875" y2="177" fill="rgb(0, 0, 0)" stroke="rgb(189, 189, 189)" stroke-width="1px" opacity="0.25"></line><line x1="103.02734375" y1="0" x2="103.02734375" y2="177" fill="rgb(0, 0, 0)" stroke="rgb(189, 189, 189)" stroke-width="1px" opacity="0.25"></line><line x1="123.6328125" y1="0" x2="123.6328125" y2="177" fill="rgb(0, 0, 0)" stroke="rgb(189, 189, 189)" stroke-width="1px" opacity="0.25"></line><line x1="144.23828125" y1="0" x2="144.23828125" y2="177" fill="rgb(0, 0, 0)" stroke="rgb(189, 189, 189)" stroke-width="1px" opacity="0.25"></line><line x1="164.84375" y1="0" x2="164.84375" y2="177" fill="rgb(0, 0, 0)" stroke="rgb(189, 189, 189)" stroke-width="1px" opacity="0.25"></line><line x1="185.44921875" y1="0" x2="185.44921875" y2="177" fill="rgb(0, 0, 0)" stroke="rgb(189, 189, 189)" stroke-width="1px" opacity="0.25"></line><line x1="206.0546875" y1="0" x2="206.0546875" y2="177" fill="rgb(0, 0, 0)" stroke="rgb(189, 189, 189)" stroke-width="1px" opacity="0.25"></line><line x1="226.66015625" y1="0" x2="226.66015625" y2="177" fill="rgb(0, 0, 0)" stroke="rgb(189, 189, 189)" stroke-width="1px" opacity="0.25"></line><line x1="247.265625" y1="0" x2="247.265625" y2="177" fill="rgb(0, 0, 0)" stroke="rgb(189, 189, 189)" stroke-width="1px" opacity="0.25"></line></g><g><line x1="0" y1="177" x2="247.265625" y2="177" fill="rgb(0, 0, 0)" stroke="rgb(189, 189, 189)" stroke-width="1px" opacity="0.25"></line><line x1="0" y1="157.33333333333331" x2="247.265625" y2="157.33333333333331" fill="rgb(0, 0, 0)" stroke="rgb(189, 189, 189)" stroke-width="1px" opacity="0.25"></line><line x1="0" y1="137.66666666666666" x2="247.265625" y2="137.66666666666666" fill="rgb(0, 0, 0)" stroke="rgb(189, 189, 189)" stroke-width="1px" opacity="0.25"></line><line x1="0" y1="118.00000000000001" x2="247.265625" y2="118.00000000000001" fill="rgb(0, 0, 0)" stroke="rgb(189, 189, 189)" stroke-width="1px" opacity="0.25"></line><line x1="0" y1="98.33333333333334" x2="247.265625" y2="98.33333333333334" fill="rgb(0, 0, 0)" stroke="rgb(189, 189, 189)" stroke-width="1px" opacity="0.25"></line><line x1="0" y1="78.66666666666666" x2="247.265625" y2="78.66666666666666" fill="rgb(0, 0, 0)" stroke="rgb(189, 189, 189)" stroke-width="1px" opacity="0.25"></line><line x1="0" y1="59.00000000000001" x2="247.265625" y2="59.00000000000001" fill="rgb(0, 0, 0)" stroke="rgb(189, 189, 189)" stroke-width="1px" opacity="0.25"></line><line x1="0" y1="39.33333333333333" x2="247.265625" y2="39.33333333333333" fill="rgb(0, 0, 0)" stroke="rgb(189, 189, 189)" stroke-width="1px" opacity="0.25"></line><line x1="0" y1="19.666666666666675" x2="247.265625" y2="19.666666666666675" fill="rgb(0, 0, 0)" stroke="rgb(189, 189, 189)" stroke-width="1px" opacity="0.25"></line><line x1="0" y1="0" x2="247.265625" y2="0" fill="rgb(0, 0, 0)" stroke="rgb(189, 189, 189)" stroke-width="1px" opacity="0.25"></line></g></g></g><g><g><line x1="0" y1="0" x2="247.265625" y2="0" fill="rgb(0, 0, 0)" stroke="rgb(153, 153, 153)" stroke-width="1.5px"></line></g></g><g><g><line x1="20.60546875" y1="0" x2="20.60546875" y2="177" fill="rgb(0, 0, 0)" stroke="rgb(153, 153, 153)" stroke-width="1.5px"></line></g></g><g><g><g><g><g><path stroke="rgb(255, 112, 67)" stroke-width="2px" d="M20.818632324218747,116.0135274251302L21.031795898437498,121.62855491638184L21.2448564453125,123.66238789461099L21.45802001953125,121.73669085035137L21.67118359375,140.59550521183476L21.884244140625,150.55101390310057L22.09740771484375,156.86993720636767L22.3105712890625,159.80233911335128L22.5236318359375,162.4668915973476L22.736795410156247,155.394301759745L22.949958984374998,155.00637794398682L23.16301953125,161.30997149456968L23.37618310546875,158.65008751694808L23.5893466796875,158.66076090683367L23.8024072265625,157.91932098356673L24.01557080078125,154.09008881905615L24.228734375,154.06292613510493L24.441794921874997,150.89160677908993L24.654958496093748,149.56166541550454L24.8681220703125,142.93654519172821L25.0811826171875,137.5314805007798L25.29434619140625,133.34776536260264L25.507509765625002,127.48011947078544L25.7205703125,128.99790122130523L25.933733886718752,126.67050893690337L26.1468974609375,121.5560391508119L26.359958007812498,121.18328822942286L26.57312158203125,110.37131126878428L26.78628515625,110.29171991879356L26.999345703125,103.80845756063916L27.212509277343752,101.59785744628483L27.425672851562503,102.90613490066833L27.638733398437502,105.47593301623893L27.85189697265625,107.68916729503012L28.064957519531248,110.34404607695421L28.27812109375,107.38809151542313L28.49128466796875,105.26098933619414L28.704345214843748,104.84660434236531L28.917508789062502,104.82255554156352L29.130672363281253,108.92024573275945L29.343732910156252,108.43137579212815L29.556896484375,106.9730198918928L29.77006005859375,105.3194589073145L29.98312060546875,104.9343193872907L30.1962841796875,106.19133878419778L30.40944775390625,107.66805074782431L30.62250830078125,103.50933785413794L30.835671875,101.96333647709648L31.048835449218753,101.39006694972673L31.26189599609375,102.12951722062328L31.4750595703125,100.97894141146993L31.688223144531246,98.81613828437568L31.90128369140625,97.9595735956239L32.114447265625,99.34760695034454L32.32761083984375,98.3758854592686L32.54067138671875,102.52109662387002L32.753834960937496,99.88923150133965L32.96699853515625,99.1685917165589L33.18005908203125,100.42492439842503L33.39322265625,102.81943103879472L33.60638623046875,99.54350762230017L33.81944677734375,99.54891992168739L34.032610351562504,102.63491730131973L34.24577392578125,99.18753981764077L34.45883447265625,99.20747709696467L34.671998046875,101.33337566247569L34.88505859375,100.74279492873539L35.09822216796875,104.71970332442874L35.311385742187504,102.1532669816364L35.524446289062496,102.16750877296623L35.73760986328125,104.30323239594118L35.950773437500004,101.04409609446579L36.163833984374996,98.86945773805965L36.37699755859375,97.53007080168997L36.5901611328125,92.98993762261554L36.8032216796875,96.72897209505369L37.01638525390625,96.69918106790462L37.229548828125004,95.67036248188862L37.442609374999996,94.04265311738837L37.65577294921875,92.92017198924812L37.868936523437505,95.26390336444732L38.0819970703125,96.42930714724912L38.29516064453125,98.48537416465153L38.50832421875,94.28649142587427L38.721384765625004,96.16903328325894L38.93454833984375,92.52288098883557L39.1477119140625,96.87306469356176L39.3607724609375,92.6341646218011L39.57393603515625,94.73382400908326L39.787099609375,95.73726156853589L40.00016015625,94.75278923278822L40.21332373046875,94.23321024214688L40.4264873046875,92.48214949326989L40.639547851562504,94.47248818229006L40.85271142578125,97.19765208906155L41.065875,96.00878322934838L41.278935546875,93.11541959581216L41.49209912109375,92.80819243131542L41.7052626953125,91.92068397278665L41.9183232421875,90.47967108516937L42.13148681640625,90.91730301731258L42.34454736328125,89.26375298551775L42.557710937500005,90.33229927666224L42.770874511718745,87.2898090093567L42.98393505859375,84.87390192579632L43.1970986328125,88.4973157648528L43.41026220703125,89.59074651457571L43.62332275390625,86.66164509299023L43.836486328125,83.99070454440091L44.04964990234375,86.72524759643221L44.26271044921875,85.34230745271611L44.475874023437505,85.7127453928536L44.689037597656245,86.12807374938404L44.90209814453125,83.41858977371898L45.11526171875,83.64022645537722L45.32842529296875,84.64377055747111L45.54148583984375,86.0376796115009L45.7546494140625,85.14384092119741L45.96781298828125,84.57431659698929L46.18087353515625,82.40705183156597L46.394037109375,82.88585410512447L46.607200683593746,83.07950273813981L46.82026123046875,86.16133738507136L47.0334248046875,84.24455239035271L47.24658837890625,82.33579987496684L47.45964892578125,83.55446393376916L47.6728125,84.74412953213651L47.88597607421875,86.53126747351368L48.09903662109375,81.75520404693371L48.3122001953125,81.96513064756127L48.525363769531246,86.00889450995604L48.73842431640625,91.77872863305696L48.951587890625,89.12884272996438L49.1646484375,85.18637021317396L49.377812011718746,84.82974115459707L49.5909755859375,84.42527169471138L49.804036132812506,84.40089674078516L50.017199707031246,84.27635257897632L50.23036328125,87.28026365513318L50.443423828125,87.3732811992648L50.65658740234375,84.40993909716305L50.8697509765625,86.06872704879262L51.0828115234375,88.57023553754381L51.295975097656246,85.53886943125023L51.509138671875,86.93811373231786L51.72219921875,88.46805346074487L51.935362792968746,87.81179329877766L52.1485263671875,84.34744922959212L52.3615869140625,82.78280010416152L52.57475048828125,83.19284339257503L52.7879140625,85.30789650592263L53.000974609375,82.97183055492077L53.21413818359375,91.45590554323891L53.4273017578125,89.05875694899022L53.6403623046875,89.5607890001233L53.85352587890625,85.39542302572504L54.066689453125,89.46897053092982L54.27975,88.37953535403966L54.492913574218754,87.86471726548369L54.7060771484375,84.30822883748031L54.9191376953125,84.20023291609495L55.13230126953125,83.20852846222208L55.34546484375,83.47963376027596L55.558525390625,78.21603505759785L55.77168896484375,78.0323199277879L55.9848525390625,78.64173912464148L56.1979130859375,81.96436472315729L56.411076660156255,81.27973235928499L56.62413720703125,82.35760821439912L56.83730078125,79.56677468612646L57.05046435546875,78.70365900926703L57.26352490234375,83.724244152305L57.4766884765625,80.43234104704706L57.68985205078125,80.22527861097562L57.902912597656254,75.6240824497885L58.116076171875,74.43896196173509L58.329239746093755,77.76065346284835L58.54230029296875,79.06596881924547L58.7554638671875,80.87525292240666L58.96862744140625,77.67902850311847L59.18168798828125,78.48728302797785L59.3948515625,78.31214203358357L59.60801513671875,79.16018976116577L59.821075683593754,78.02367558358749L60.0342392578125,76.16690220887645L60.24740283203125,75.85827845097693L60.46046337890625,76.56140998237001L60.673626953125,76.13021602522929L60.88679052734375,76.5906845874683L61.09985107421875,81.32553733939505L61.3130146484375,84.70115089484797L61.52617822265625,85.16809414205201L61.739238769531255,82.04688224206716L61.95240234375,83.0724124669851L62.16556591796874,82.91663978162335L62.378626464843755,80.60154864761984L62.5917900390625,82.59644021559015L62.80495361328125,81.29425605643742L63.01801416015624,81.29080880150569L63.231177734375,78.11289067641123L63.44423828125,79.55071190421914L63.65740185546875,81.1446315696148L63.8705654296875,78.97244210908659L64.0836259765625,81.59881747899362L64.29678955078124,79.65439099195346L64.509953125,76.80169294478145L64.72301367187501,75.8134074905017L64.93617724609375,75.40429506396246L65.1493408203125,75.59828109924986L65.3624013671875,68.5907516185343L65.57556494140626,66.72234920517005L65.788728515625,63.64400628416974L66.0017890625,63.63943974055394L66.21495263671875,62.971929510022456L66.4281162109375,64.64294851818795L66.6411767578125,65.35149620238414L66.85434033203124,71.3767561605581L67.06750390625001,68.98835724451193L67.280564453125,67.23294733010559L67.49372802734375,65.54998153282898L67.7068916015625,66.8400857214552L67.9199521484375,67.96564428769085L68.13311572265624,69.76906634149474L68.346279296875,68.38144525737077L68.55933984375001,62.51894735461777L68.77250341796875,66.22343896941129L68.9856669921875,66.55229539662072L69.1987275390625,65.31211324057662L69.41189111328126,68.06018408204129L69.6250546875,71.14821030274038L69.838115234375,69.49474889486036L70.05127880859375,68.86479607356988L70.2644423828125,67.14015226165495L70.4775029296875,73.26813786578202L70.69066650390624,71.71181456354475L70.90372705078126,68.9080259532961L71.116890625,72.74777923571465L71.33005419921875,67.05120143628557L71.54311474609375,75.32163105871145L71.7562783203125,76.52085750078676L71.96944189453124,77.21209132338872L72.18250244140624,79.10011030347334L72.39566601562501,79.54087685102931L72.60882958984375,77.46258352435457L72.82189013671875,78.23952887437837L73.0350537109375,77.62509533569472L73.24821728515626,77.49435578540123L73.46127783203124,75.40226817501677L73.67444140625,79.65365586757517L73.88760498046875,76.99639168135239L74.10066552734375,82.42075488999635L74.3138291015625,82.16356682559936L74.52699267578124,80.65678653904452L74.74005322265626,81.00945245728086L74.953216796875,77.64345679337893L75.16638037109375,76.3949934282409L75.37944091796875,76.24233492413204L75.5926044921875,76.98949242583339L75.80576806640624,76.6514011439766L76.01882861328124,79.98933621047452L76.2319921875,82.70468741964407L76.44515576171875,81.20265848043229L76.65821630859375,72.46340779170988L76.87137988281249,69.25885762261707L77.08454345703126,74.63811214030203L77.29760400390624,68.07437045800934L77.510767578125,67.21591296490978L77.72382812500001,65.14911638246146L77.93699169921875,67.62983636593522L78.15015527343749,67.84905294260801L78.36321582031249,67.84934053835127L78.57637939453126,64.63186925627899L78.78954296875,54.332108288793435L79.002603515625,59.22391524183075L79.21576708984375,57.09338751586668L79.4289306640625,52.39220662247575L79.6419912109375,48.06867858774326L79.85515478515624,48.09696004164335L80.068318359375,42.79097464966048L80.28137890625,49.6491229164239L80.49454248046875,50.03355586248454L80.70770605468749,46.73079479271859L80.9207666015625,50.80676797263636L81.13393017578124,42.057253125704214L81.34709375,47.8827127966465L81.560154296875,44.52513955949831L81.77331787109375,46.893710322613046L81.98648144531249,47.367360938847774L82.19954199218749,52.46332708576961L82.41270556640626,50.65299625146177L82.625869140625,51.30834446311664L82.8389296875,47.303602258924684L83.05209326171875,48.099477130908184L83.2652568359375,47.96097108892902L83.47831738281249,43.20465982213996L83.69148095703125,49.34000296522409L83.90464453125,50.22314297379591L84.117705078125,46.880138876725454L84.33086865234375,50.14735098554049L84.54403222656249,44.05655135873967L84.7570927734375,46.06707988344042L84.97025634765625,49.38199040239496L85.18331689453125,42.17105274159975L85.39648046875,46.71415321071506L85.60964404296875,47.731201744951164L85.82270458984375,39.8949132263327L86.03586816406249,48.57572340780482L86.24903173828126,45.58513489103708L86.46209228515625,49.27670145871078L86.675255859375,58.37656160602074L86.88841943359375,50.220974520578594L87.10147998046875,56.546509720485176L87.31464355468749,56.02427009010363L87.52780712890625,65.30064697430956L87.74086767578126,61.180243653335744L87.95403125,51.85746811176056L88.16719482421875,53.557040396678744L88.38025537109374,49.70214883924421L88.59341894531251,42.919825863605105L88.80658251953125,36.40295118222559L89.01964306640625,32.14514265757753L89.232806640625,37.5314311756012L89.44597021484375,41.10586210298442L89.65903076171875,38.701330412832334L89.8721943359375,41.986641794248875L90.08535791015625,40.61215459152329L90.29841845703125,36.07383407571476L90.51158203125,36.258185841750446L90.72474560546875,39.47785514925601L90.93780615234375,41.9802145340523L91.1509697265625,38.68716355116054L91.36413330078125,40.954836420084355L91.57719384765626,40.30741513736964L91.790357421875,50.18752753294261L92.00341796875,47.52631034300774L92.21658154296874,43.22255651016663L92.42974511718751,41.32761964014947L92.6428056640625,47.78625212263134L92.85596923828125,45.64437509356577L93.0691328125,45.683458694648586L93.282193359375,47.50877476105998L93.49535693359375,53.1992375942662L93.7085205078125,58.820913772380024L93.92158105468751,54.23921134936552L94.13474462890625,46.380659296598466L94.347908203125,44.54574164729502L94.56096875,40.236927735772866L94.77413232421875,51.925668604354335L94.9872958984375,53.40891149789906L95.2003564453125,56.620383357072775L95.41352001953126,48.83163785115773L95.62668359375,40.13568095288213L95.839744140625,44.66643078852614L96.05290771484374,43.057805901501126L96.26607128906251,39.70010486658426L96.4791318359375,41.92735881838805L96.69229541015625,36.40228559132579L96.905458984375,32.131679806130116L97.11851953125,28.01397336829722L97.33168310546876,26.359005419904108L97.5448466796875,26.045620577788817L97.75790722656251,25.303791871819772L97.97107080078125,26.252182532759832L98.184234375,25.926752105918943L98.397294921875,34.574797052125575L98.61045849609376,32.24130527391857L98.8236220703125,28.89383149402237L99.0366826171875,27.931992845794934L99.24984619140625,26.338706124143624L99.46290673828125,29.308973308275224L99.6760703125,27.273590426208628L99.88923388671874,28.01771057082935L100.10229443359376,26.553518096647995L100.3154580078125,26.88061525252004L100.52862158203125,24.725733989158527L100.74168212890626,26.301060246196933L100.954845703125,25.719076434990296L101.16800927734374,26.935682433259785L101.38106982421874,28.609564407872554L101.59423339843751,26.403852821155827L101.80739697265625,24.96679637286926L102.02045751953125,28.395736983064015L102.23362109374999,30.021993947650905L102.44678466796876,29.025004046813212L102.65984521484376,25.113972469998732L102.8730087890625,26.2772191346685L103.08617236328125,25.377719806810223L103.29923291015625,27.06927580498457L103.512396484375,28.263647331135278L103.72556005859374,32.30664972273717L103.93862060546876,29.638760483870172L104.1517841796875,29.64228509891585L104.36494775390625,33.7672493349029L104.57800830078125,32.86838744273862L104.791171875,32.9665348663593L105.00433544921874,33.330770407120276L105.21739599609374,36.25276058411592L105.43055957031251,36.721420307175265L105.64372314453125,31.592361034402828L105.85678369140625,33.35172271195028L106.06994726562499,32.03682818283423L106.2830078125,29.834723110058615L106.49617138671874,32.90644651658854L106.7093349609375,31.919372324829432L106.92239550781251,30.347620017619015L107.13555908203125,29.39478331428234L107.34872265625,25.86340220495939L107.56178320312499,27.412742372780336L107.77494677734376,34.695534461754136L107.9881103515625,31.09130185787929L108.2011708984375,35.51933429669373L108.41433447265625,39.58651807883005L108.627498046875,35.348308511686035L108.84055859375,34.67202960164054L109.05372216796874,35.3739058713359L109.26688574218751,40.06182563950074L109.4799462890625,34.93052374877205L109.69310986328125,34.900676126704646L109.90627343749999,34.36721496150457L110.119333984375,45.52828234604334L110.33249755859374,48.142008022534874L110.5456611328125,40.32721122221232L110.75872167968751,42.36848638095109L110.97188525390625,38.52243362544564L111.185048828125,37.53855685495489L111.39810937499999,40.24098583823336L111.61127294921876,43.990422415212144L111.8244365234375,44.79662857119761L112.0374970703125,46.27325965411178L112.25066064453125,46.26741186749964L112.46382421875,43.77577457411306L112.676884765625,40.464709251303766L112.89004833984374,31.939982512859075L113.1032119140625,37.35554094000713L113.3162724609375,35.164854410195666L113.52943603515625,40.295430264932506L113.74249658203124,42.18470107074335L113.95566015625,40.400038232778044L114.16882373046874,36.34575534119678L114.38188427734374,38.32502127926233L114.59504785156251,35.72708480938684L114.80821142578125,33.510879608776634L115.02127197265625,31.691699680956074L115.23443554687499,29.476003573222084L115.44759912109376,27.17797016558038L115.66065966796874,25.41136364231697L115.8738232421875,23.063653787196817L116.08698681640625,30.7633827426957L116.30004736328125,28.116950950955946L116.5132109375,39.355916582943365L116.72637451171875,34.777050478737394L116.93943505859376,28.674680787730694L117.1525986328125,30.043384685203506L117.36576220703125,26.823200651616908L117.57882275390624,26.52745916863942L117.791986328125,26.691439327681046L118.00514990234375,24.885789438893788L118.21821044921874,23.568163431809594L118.4313740234375,25.953235339359182L118.64453759765625,24.803663473309516L118.85759814453125,26.488519108562524L119.07076171874999,28.05240864531329L119.28392529296876,26.026098599053213L119.49698583984375,22.914494038989208L119.7101494140625,25.98807429204588L119.92331298828124,25.124012371044586L120.13637353515625,27.34924026767884L120.34953710937499,31.804998302859907L120.56259765624999,29.362944741807084L120.77576123046876,32.6265760491858L120.9889248046875,33.47304680545548L121.2019853515625,30.235851683533717L121.41514892578124,27.24559200377257L121.6283125,29.151556760694532L121.841373046875,25.68526966839589L122.05453662109375,28.559789303478933L122.2677001953125,26.93020007948319L122.4807607421875,29.780010326824044L122.69392431640625,24.498552521778016L122.907087890625,20.954857627975667L123.1201484375,22.21908807938957L123.33331201171875,22.12175964084661L123.5464755859375,22.918499469403816L123.75953613281251,24.762610871420925L123.97269970703124,25.650856216049185L124.18586328125,29.3077461108144L124.39892382812499,29.688755983545935L124.61208740234376,28.49303742394917L124.82525097656249,26.736980260765986L125.03831152343751,24.251715500209585L125.25147509765624,26.24175710367394L125.46463867187501,26.380939800941334L125.67769921874999,28.073590634308292L125.89086279296876,28.295518780812852L126.10402636718749,25.718297749200598L126.31708691406249,24.469317832056174L126.53025048828125,21.883182770766894L126.74341406250001,21.354838800643734L126.95647460937501,25.55424688797086L127.16963818359373,23.975839870656877L127.3828017578125,22.028015722524348L127.59586230468749,24.190490138267208L127.80902587890625,23.71012864716931L128.02208642578125,21.86500351886797L128.23525,19.39888363190999L128.44841357421873,19.67811078827686L128.66147412109373,18.080119016097616L128.8746376953125,21.870717120921604L129.08780126953127,20.27082067375738L129.30086181640624,20.849237704547402L129.514025390625,20.593845011237548L129.72718896484375,21.840733459379255L129.94024951171875,29.159828279566337L130.1534130859375,26.044565078905176L130.36657666015626,24.680323377584003L130.57963720703125,24.723298752706004L130.79280078124998,26.384379194657456L131.00596435546876,29.59788716034915L131.21902490234373,23.556401170314306L131.43218847656252,29.93625224190213L131.64535205078124,27.666129010343102L131.85841259765627,24.72081638325665L132.071576171875,22.486302401161684L132.28473974609375,22.581814643822014L132.49780029296875,22.157255046058843L132.7109638671875,21.009314839972532L132.92412744140626,22.652191056490043L133.13718798828123,26.14182051361406L133.3503515625,28.16170894635205L133.56351513671876,25.50467787432164L133.77657568359376,25.740089419091696L133.9897392578125,28.231567831956312L134.20290283203124,33.462480555130824L134.41596337890624,30.1344993906143L134.629126953125,29.568744576588635L134.8421875,27.296790213156946L135.05535107421875,27.63479926624052L135.2685146484375,22.141413495291197L135.4815751953125,23.364065178880455L135.69473876953126,24.770867411364712L135.90790234375,24.726314066610495L136.120962890625,23.481836800155104L136.33412646484373,21.82138986085476L136.5472900390625,25.488703667489418L136.7603505859375,27.290301790337413L136.97351416015624,25.082359368066374L137.186677734375,28.38660617259763L137.39973828125002,27.55732867344792L137.61290185546875,29.060220120735405L137.8260654296875,28.569677665702976L138.0391259765625,28.539986734512915L138.25228955078126,23.331073644711662L138.46545312499998,25.093119325173348L138.67851367187498,23.69804159835922L138.89167724609374,25.500441922719943L139.10484082031252,25.347641537095512L139.31790136718752,23.244886791967595L139.53106494140627,23.603051144597885L139.744228515625,24.76016062246837L139.9572890625,28.882125609320866L140.17045263671875,27.76691696715501L140.3836162109375,25.837658877802774L140.5966767578125,25.114457794129585L140.80984033203123,24.102123000045463L141.02300390625,28.018453975808526L141.236064453125,24.59016812930021L141.44922802734376,23.36854741078327L141.6623916015625,28.440160917173074L141.87545214843752,28.751932691254375L142.08861572265624,27.33259255746094L142.30167626953124,27.57316187806381L142.51483984375,28.269791820848713L142.72800341796875,29.569845714254026L142.94106396484375,32.401850564131834L143.1542275390625,33.50113011386972L143.36739111328126,33.111005115034075L143.58045166015626,31.934497783375907L143.793615234375,30.0784270839253L144.00677880859374,28.720092871448937L144.21983935546876,27.07198622417143L144.4330029296875,24.666940981735934L144.64616650390624,27.99517512777855L144.85922705078124,23.073020614183392L145.072390625,21.051252584574485L145.28555419921875,23.792894474735586L145.49861474609375,26.042828868272338L145.7117783203125,25.429584670410016L145.92494189453126,26.030346322265533L146.13800244140626,38.31563695188798L146.35116601562498,42.27300737458331L146.56432958984374,47.7862099423281L146.77739013671874,39.82293002626927L146.9905537109375,36.89020052064437L147.20371728515624,37.92663009835667L147.41677783203127,29.874304291924158L147.62994140625,31.53357860786934L147.84310498046875,25.655329303800396L148.05616552734375,27.962543081954717L148.2693291015625,30.845455984263975L148.48249267578123,36.761314463768024L148.69555322265623,43.05310878731029L148.90871679687498,48.59348237850597L149.12177734374998,50.02765872235098L149.33494091796877,42.55321176986892L149.54810449218752,38.61097340795L149.76116503906252,32.73813008562287L149.97432861328124,28.842132435732452L150.1874921875,24.579823294854183L150.400552734375,24.54696729030769L150.61371630859375,29.052478185057023L150.82687988281248,33.182191826398785L151.0399404296875,31.383426281548903L151.25310400390626,33.03813131010774L151.466267578125,29.684494356133015L151.679328125,28.224317849845175L151.89249169921877,21.709514894070512L152.1056552734375,21.850634656657135L152.3187158203125,24.46726140922866L152.53187939453124,28.058288750647883L152.74504296875,31.73011574713352L152.958103515625,30.564309784380363L153.17126708984375,32.618359999860004L153.3844306640625,29.23584426733137L153.5974912109375,28.851906910333714L153.81065478515626,28.54282981514555L154.02381835937499,24.41779455860229L154.23687890625,21.371641833224537L154.45004248046874,20.096407198730287L154.6632060546875,20.229825662825412L154.8762666015625,18.87604962336257L155.08943017578127,19.023262016856076L155.30259375,20.620844071279013L155.515654296875,25.293534051003085L155.72881787109375,29.46876960052373L155.9419814453125,42.117488811095505L156.1550419921875,44.300179138708074L156.36820556640623,39.91605446401914L156.58126611328126,38.02688239358075L156.79442968749998,36.17130015148046L157.00759326171877,35.91887402399376L157.22065380859374,36.29821668734547L157.43381738281252,33.267237833045314L157.64698095703125,28.625743833046585L157.86004150390625,29.390891429222474L158.073205078125,29.469329636993127L158.28636865234375,25.49376219056176L158.49942919921875,25.08787220284618L158.71259277343748,24.1207911724564L158.92575634765626,23.658891858421757L159.13881689453123,24.335044241843416L159.35198046875,25.051780858257104L159.56514404296877,23.74730541274073L159.77820458984377,26.523199287683475L159.9913681640625,24.676273027199944L160.20453173828125,23.51264632364418L160.41759228515625,22.920739802243148L160.630755859375,26.376046766274285L160.84391943359373,26.969858040233316L161.05697998046875,27.700375639569675L161.2701435546875,27.24801090620275L161.48330712890626,26.97564738437919L161.69636767578126,26.916701235803302L161.90953125000001,25.73104240896245L162.12269482421874,25.591028358788936L162.33575537109374,22.620176168512288L162.5489189453125,25.85545148561259L162.76208251953125,22.235837867279002L162.97514306640625,24.37777969790647L163.188306640625,25.56902517958371L163.4013671875,24.96756843823526L163.61453076171875,23.577926306674886L163.8276943359375,22.798679296781625L164.0407548828125,27.53448227696222L164.25391845703126,29.41704361422418L164.46708203125,28.653589327714215L164.680142578125,26.727480032989195L164.89330615234374,22.78073106178569L165.10646972656252,24.416620074245916L165.3195302734375,31.862576251904308L165.53269384765625,26.4026995495638L165.745857421875,26.868123391847654L165.95891796875,27.20353284858516L166.17208154296875,27.281757424808642L166.38524511718748,22.599043692352627L166.5983056640625,24.14719179972147L166.81146923828123,26.44294760750217L167.02463281250002,29.2157765397617L167.237693359375,33.343645774117455L167.45085693359377,28.13160211697697L167.6640205078125,25.957592271976544L167.8770810546875,26.060432153550508L168.09024462890625,28.975255182429784L168.303408203125,28.39612173738755L168.51646875,27.050797208285413L168.72963232421873,26.891752637308482L168.9427958984375,28.070307930041345L169.15585644531248,27.769387598194072L169.36902001953126,24.82051799592817L169.58218359375002,26.102691311066014L169.79524414062502,29.088472086444295L170.00840771484374,27.401548929763713L170.2215712890625,25.508283595732575L170.4346318359375,25.343168002898512L170.64779541015625,26.331129113913594L170.86085595703125,25.07680798185727L171.07401953125,24.657988668915802L171.28718310546876,23.947288237156762L171.50024365234376,23.906311357821394L171.7134072265625,25.177721832596486L171.92657080078126,28.647780092559188L172.13963134765626,31.406830205600624L172.352794921875,28.392888976224974L172.56595849609374,28.61265404003186L172.77901904296874,28.43669805552953L172.9921826171875,24.97164571523503L173.20534619140625,27.805842552025133L173.41840673828125,27.03537194560309L173.6315703125,26.701868797244693L173.84473388671876,27.811614442409297L174.05779443359376,22.87658625984664L174.2709580078125,21.896595900601994L174.48412158203124,23.162311055986198L174.69718212890623,26.178474544561766L174.910345703125,23.94303555274618L175.12350927734377,23.500021710065678L175.33656982421874,26.438558476885756L175.5497333984375,24.215893956574163L175.76289697265625,19.847174852541517L175.97595751953125,26.44070760114079L176.18912109375,29.9861031292066L176.40228466796873,25.798849001140496L176.61534521484376,22.27693896814847L176.82850878906248,26.31646652216515L177.04167236328126,25.80472299191237L177.25473291015624,28.249950290915628L177.46789648437502,26.928892537830627L177.68095703125002,28.715821382887192L177.89412060546874,24.905352377665245L178.1072841796875,26.542086630049663L178.3203447265625,27.8889159998397L178.53350830078125,26.23227637806137L178.746671875,25.18310494223397L178.959732421875,25.584718067879454L179.17289599609373,22.746074279448365L179.3860595703125,19.967194321493885L179.5991201171875,18.569269911174338L179.81228369140626,19.70317471932828L180.025447265625,22.80439016281442L180.2385078125,25.72969539733059L180.45167138671874,24.972464272089766L180.6648349609375,26.082450242941338L180.8778955078125,23.30527351083644L181.09105908203125,22.804205467992727L181.30422265625,20.899087418572343L181.517283203125,24.46178214271241L181.73044677734376,27.109790029442557L181.9436103515625,28.121376174241043L182.1566708984375,28.800875102331073L182.36983447265624,26.74550511307509L182.582998046875,22.91272945944661L182.79605859375,25.084622355843738L183.00922216796874,24.626316646741916L183.2223857421875,25.32455953964021L183.43544628906253,26.2542096210823L183.64860986328125,23.912342687525676L183.8617734375,21.47218016899327L184.074833984375,24.087323116044402L184.28799755859376,21.2029399918597L184.50116113281248,21.021378812417264L184.71422167968748,24.698858211929526L184.92738525390624,28.156039739983235L185.14044580078124,26.421845360917033L185.35360937500002,29.72224004939526L185.56677294921874,27.11906740813651L185.77983349609377,28.983938247616276L185.9929970703125,26.571463117433687L186.20616064453125,24.191234397152925L186.41922119140625,23.561425310329533L186.632384765625,24.69982617415344L186.84554833984373,25.284594577376186L187.05860888671873,22.818166007493403L187.2717724609375,23.111187924401637L187.48493603515627,18.625706986818706L187.69799658203127,22.87635383890113L187.91116015625,21.881904507116715L188.12432373046875,20.888452345790206L188.33738427734374,24.683817236738445L188.5505478515625,25.808373126059998L188.76371142578125,21.76390909902466L188.97677197265625,22.931519877546314L189.18993554687498,28.95544272893664L189.40309912109376,28.60855478124218L189.61615966796876,30.86633200611509L189.8293232421875,25.701765420710075L190.04248681640624,25.840409797673445L190.25554736328127,25.853507515973853L190.4687109375,22.631665910951497L190.68187451171875,23.108819940451102L190.89493505859375,21.054864250240723L191.1080986328125,23.032141491225158L191.32126220703125,25.833637637248135L191.53432275390625,26.8608719337486L191.747486328125,25.186721646577304L191.960546875,25.745779488597417L192.17371044921876,21.206534852175384L192.38687402343749,24.298842969410693L192.5999345703125,23.503787399891852L192.81309814453124,23.669854898431208L193.02626171875,22.76738606324494L193.239322265625,22.98774382259865L193.45248583984377,25.17549425498497L193.6656494140625,28.470293399507902L193.8787099609375,29.925404840160464L194.09187353515625,23.266842381228443L194.305037109375,23.075424774847104L194.51809765625,22.289430005289105L194.73126123046873,24.654703596435194L194.9444248046875,25.191454522769963L195.15748535156249,25.72928264611642L195.37064892578127,23.51501793158261L195.5838125,19.39284175260191L195.79687304687502,26.07104918811713L196.01003662109375,25.1445139733195L196.2232001953125,26.787382354532077L196.4362607421875,26.06249289945427L196.64942431640625,26.00556938876111L196.86258789062498,25.010503437455867L197.07564843749998,26.00416278024696L197.28881201171876,24.316770780127356L197.50197558593752,25.514211597308194L197.71503613281251,25.776565227427888L197.92819970703124,22.569374327293318L198.14136328125,25.871969200868183L198.354423828125,26.356930482923243L198.56758740234375,25.39812263505016L198.7807509765625,32.19745921335433L198.9938115234375,31.995118635108945L199.20697509765625,27.533969720290628L199.42003564453123,27.268992997538973L199.63319921875,29.148720322449147L199.84636279296876,24.590269068876403L200.05942333984376,27.043830712159178L200.27258691406252,28.33547105506243L200.48575048828124,24.57992698118197L200.69881103515624,25.175985322823777L200.911974609375,26.78585667627891L201.12513818359375,21.40649585798087L201.33819873046875,19.536837852923284L201.5513623046875,23.52460665869409L201.76452587890626,24.073738207862927L201.97758642578125,24.207123641677388L202.19075,29.880133315865816L202.40391357421873,28.22913764739709L202.61697412109376,22.234982059466912L202.8301376953125,29.03328592757469L203.04330126953124,26.28516929010601L203.25636181640624,26.63990939470161L203.46952539062502,24.52745941042124L203.68268896484375,22.32089888437121L203.89574951171875,16.78218577939391L204.1089130859375,22.08117346714807L204.32207666015626,21.358129363085055L204.53513720703126,23.78642168523385L204.74830078124998,22.37555798754004L204.96146435546873,25.144797967979756L205.17452490234373,25.637446468776137L205.38768847656252,22.746135300699265L205.60085205078124,23.75516309366827L205.81391259765627,23.771309587157987L206.027076171875,22.47618665154609L206.24013671875,22.926749100302654L206.45330029296875,23.322854086646437L206.6664638671875,22.6337446175152L206.8795244140625,23.120923202800803L207.09268798828123,26.31309139726641L207.3058515625,24.950198812155413L207.51891210937498,24.491273095886996L207.73207568359376,26.661762474068652L207.94523925781252,24.096233509831823L208.15829980468752,24.924522800397792L208.37146337890624,22.58445487083111L208.584626953125,25.59324968438018L208.7976875,25.38015328149399L209.01085107421875,24.35011831573884L209.2240146484375,23.69485982814773L209.43707519531247,22.313987094398403L209.65023876953126,23.640046777309607L209.86340234375,25.179425649393586L210.076462890625,27.750429193347088L210.28962646484376,28.446985339901474L210.5027900390625,27.735364075848445L210.7158505859375,26.567307648389942L210.92901416015624,23.506053066410256L211.14217773437503,23.335659000490697L211.35523828125,23.283929427394032L211.56840185546875,28.081645925479393L211.7815654296875,25.81906657546991L211.9946259765625,25.257945743621807L212.20778955078126,23.23890418526814L212.42095312499998,23.492499473237718L212.634013671875,22.20808310882869L212.84717724609374,26.823222098370135L213.06034082031252,26.533795523019464L213.2734013671875,26.49750615495752L213.48656494140627,24.4530607608456L213.69962548828127,23.746570495813998L213.9127890625,17.648230220665482L214.12595263671875,22.155680950595904L214.33901318359375,23.43846889343697L214.5521767578125,24.74350015930436L214.76534033203123,23.001967832399014L214.97840087890626,25.12172767616468L215.19156445312498,21.769703455470946L215.40472802734377,27.746619823119794L215.61778857421874,29.26903602147606L215.83095214843752,26.625522280203345L216.04411572265624,24.60351600484075L216.25717626953124,24.263300856566552L216.47033984375,26.960533858666487L216.68350341796875,25.65139777898571L216.89656396484375,24.008497358797666L217.10972753906248,26.591158779048143L217.32289111328126,26.734875850111177L217.53595166015623,29.51629768210446L217.749115234375,30.43621256922363L217.96227880859377,26.327522809275038L218.17533935546876,26.96042353663924L218.3885029296875,23.39203082486441L218.60166650390624,23.846944182581392L218.81472705078124,24.45025354568166L219.027890625,20.861010291878372L219.24105419921875,21.084388788245516L219.45411474609372,23.51882050846164L219.6672783203125,21.321388313377753L219.88044189453126,23.275178324940715L220.09350244140626,23.44004701775089L220.306666015625,22.20962328307892L220.5197265625,19.56714260184605L220.73289013671874,22.9801900817782L220.9460537109375,21.894450810541525L221.1591142578125,24.220648493323615L221.37227783203124,22.303557074916704L221.58544140625,26.481807544103646L221.79850195312503,24.476203107598263L222.01166552734375,26.13067155124517L222.2248291015625,25.985790076743182L222.4378896484375,27.523339382146187L222.65105322265626,25.03847312188209L222.86421679687498,27.3583019313975L223.07727734374998,26.440104103988222L223.29044091796874,25.395196648183965L223.50360449218752,24.80105375958094L223.71666503906252,20.621437167044135L223.92982861328124,23.726167048761635L224.1429921875,22.803411421070113L224.356052734375,24.052265541606918L224.56921630859375,23.916543803723936L224.78237988281248,26.24578927865362L224.9954404296875,23.154583745821718L225.20860400390623,23.509460361018423L225.421767578125,22.246667915829814L225.634828125,24.783233537583815L225.84799169921877,24.75023806566552L226.0611552734375,26.28328460372223L226.2742158203125,22.952304889023708L226.48737939453125,22.385645211653156L226.70054296875,26.932787863482794L226.913603515625,24.223675251048643L227.12676708984372,26.569122427647414L227.3399306640625,29.421343370325427L227.5529912109375,28.926000073302014L227.76615478515626,26.683481798538512L227.97921533203126,27.403208504578828L228.19237890625,27.057496981816314L228.40554248046874,24.789050455528567L228.61860302734374,28.2434650226661L228.8317666015625,28.130931511972076L229.04493017578125,28.706673693967076L229.25799072265625,25.925515121328182L229.471154296875,28.95321733695704L229.68431787109375,29.874927309726317L229.89737841796875,28.481919581636586L230.1105419921875,29.292781753864762L230.32370556640626,29.65440179971468L230.53676611328126,26.72865393790171L230.74992968749999,25.77926007107439L230.96309326171874,25.585458264324313L231.17615380859374,22.434884435319855L231.3893173828125,23.949274187396338L231.60248095703125,26.41325280589483L231.81554150390627,23.43280668435069L232.028705078125,22.57432137022955L232.24186865234375,24.350955615106475L232.45492919921875,19.8868559109747L232.6680927734375,20.46706096479771L232.88125634765623,23.72015316416508L233.09431689453123,22.781123718160508L233.30748046875,25.249131140075992L233.52064404296877,25.155265060998715L233.73370458984377,24.105114948871368" style="fill: none;" fill="none"></path></g></g></g></g><g opacity="0.2"><g><g><g><path stroke="rgb(255, 112, 67)" stroke-width="2px" d="M20.818632324218747,116.0135274251302L21.031795898437498,124.99757141113282L21.2448564453125,125.61486755371094L21.45802001953125,119.47207112630207L21.67118359375,165.2175732421875L21.884244140625,164.32306640625L22.09740771484375,165.9060986328125L22.3105712890625,164.07780924479167L22.5236318359375,166.3965889485677L22.736795410156247,144.8923301188151L22.949958984374998,154.4280106608073L23.16301953125,170.73105794270833L23.37618310546875,154.66894653320313L23.5893466796875,158.67675008138022L23.8024072265625,156.80803263346354L24.01557080078125,148.34894124348958L24.228734375,154.02219360351563L24.441794921874997,146.13543294270832L24.654958496093748,147.5669559733073L24.8681220703125,132.99947041829427L25.0811826171875,129.4241798909505L25.29434619140625,127.07233032226563L25.507509765625002,118.67876647949218L25.7205703125,131.27455586751302L25.933733886718752,123.17943705240886L26.1468974609375,113.88435628255208L26.359958007812498,120.62416280110676L26.57312158203125,94.15336242675781L26.78628515625,110.1723329671224L26.999345703125,94.08356760660807L27.212509277343752,98.2819580078125L27.425672851562503,104.8685508219401L27.638733398437502,109.3306298828125L27.85189697265625,111.0090185546875L28.064957519531248,114.32636413574218L28.27812109375,102.95415974934895L28.49128466796875,102.07033610026042L28.704345214843748,104.22502685546874L28.917508789062502,104.7864823404948L29.130672363281253,115.06678100585938L29.343732910156252,107.69807088216146L29.556896484375,104.78548604329426L29.77006005859375,102.83911743164062L29.98312060546875,104.35661010742187L30.1962841796875,108.07686787923177L30.40944775390625,109.88311869303384L30.62250830078125,97.27126851399738L30.835671875,99.6443344116211L31.048835449218753,100.53016265869141L31.26189599609375,103.23869262695312L31.4750595703125,99.25307769775391L31.688223144531246,95.57193359375002L31.90128369140625,96.6747265625L32.114447265625,101.42965698242186L32.32761083984375,96.91830322265625L32.54067138671875,108.73891337076823L32.753834960937496,95.94143381754557L32.96699853515625,98.08763203938803L33.18005908203125,102.30942342122395L33.39322265625,106.41119099934895L33.60638623046875,94.62962249755859L33.81944677734375,99.55703837076823L34.032610351562504,107.26391337076822L34.24577392578125,94.0164735921224L34.45883447265625,99.23738301595051L34.671998046875,104.52222351074218L34.88505859375,99.856923828125L35.09822216796875,110.68506591796877L35.311385742187504,98.3036124674479L35.524446289062496,102.18887145996095L35.73760986328125,107.50681783040365L35.950773437500004,96.15539164225261L36.163833984374996,95.60750020345051L36.37699755859375,95.52099039713542L36.5901611328125,86.1797378540039L36.8032216796875,102.33752380371092L37.01638525390625,96.654494527181L37.229548828125004,94.12713460286457L37.442609374999996,91.60108907063803L37.65577294921875,91.23645029703776L37.868936523437505,98.7795004272461L38.0819970703125,98.17741282145182L38.29516064453125,101.56947469075521L38.50832421875,87.98816731770833L38.721384765625004,98.99284606933594L38.93454833984375,87.05365254720051L39.1477119140625,103.39834025065105L39.3607724609375,86.27581451416016L39.57393603515625,97.88331309000651L39.787099609375,97.24241790771484L40.00016015625,93.27608072916667L40.21332373046875,93.4538417561849L40.4264873046875,89.85555836995442L40.639547851562504,97.45799621582032L40.85271142578125,101.28539794921875L41.065875,94.22547993977865L41.278935546875,88.77537414550781L41.49209912109375,92.34735168457033L41.7052626953125,90.58942128499349L41.9183232421875,88.31815175374349L42.13148681640625,91.57375091552736L42.34454736328125,86.78342793782552L42.557710937500005,91.9351187133789L42.770874511718745,82.72607360839844L42.98393505859375,81.25004130045573L43.1970986328125,93.93243652343749L43.41026220703125,91.23089263916016L43.62332275390625,82.26799296061198L43.836486328125,79.98429372151692L44.04964990234375,90.82706217447917L44.26271044921875,83.26789723714192L44.475874023437505,86.26840230305989L44.689037597656245,86.7510662841797L44.90209814453125,79.35436381022136L45.11526171875,83.9726814778646L45.32842529296875,86.14908671061198L45.54148583984375,88.12854319254556L45.7546494140625,83.80308288574219L45.96781298828125,83.72003011067709L46.18087353515625,79.156154683431L46.394037109375,83.60405751546223L46.607200683593746,83.36997568766276L46.82026123046875,90.78408935546875L47.0334248046875,81.36937489827474L47.24658837890625,79.47267110188801L47.45964892578125,85.38246002197265L47.6728125,86.5286279296875L47.88597607421875,89.21197438557944L48.09903662109375,74.5911089070638L48.3122001953125,82.2800205485026L48.525363769531246,92.07454030354818L48.73842431640625,100.43347981770833L48.951587890625,85.15401387532552L49.1646484375,79.27266143798828L49.377812011718746,84.29479756673177L49.5909755859375,83.81856750488282L49.804036132812506,84.36433430989582L50.017199707031246,84.08953633626302L50.23036328125,91.78613026936848L50.443423828125,87.51280751546224L50.65658740234375,79.96492594401042L50.8697509765625,88.556908976237L51.0828115234375,92.32249827067056L51.295975097656246,80.9918202718099L51.509138671875,89.03698018391928L51.72219921875,90.7629630533854L51.935362792968746,86.82740305582684L52.1485263671875,79.15093312581381L52.3615869140625,80.43582641601563L52.57475048828125,83.80790832519531L52.7879140625,88.48047617594402L53.000974609375,79.46773162841797L53.21413818359375,104.18201802571615L53.4273017578125,85.4630340576172L53.6403623046875,90.31383707682292L53.85352587890625,79.14737406412762L54.066689453125,95.57929178873697L54.27975,86.74538258870442L54.492913574218754,87.09249013264974L54.7060771484375,78.97349619547525L54.9191376953125,84.03823903401693L55.13230126953125,81.72097178141276L55.34546484375,83.88629170735676L55.558525390625,70.32063700358073L55.77168896484375,77.75674723307293L55.9848525390625,79.55586791992187L56.1979130859375,86.948303120931L56.411076660156255,80.25278381347655L56.62413720703125,83.97442199707031L56.83730078125,75.38052439371745L57.05046435546875,77.40898549397787L57.26352490234375,91.25512186686197L57.4766884765625,75.49448638916016L57.68985205078125,79.91468495686848L57.902912597656254,68.72228820800781L58.116076171875,72.66128122965495L58.329239746093755,82.74319071451824L58.54230029296875,81.02394185384115L58.7554638671875,83.58917907714844L58.96862744140625,72.8846918741862L59.18168798828125,79.69966481526693L59.3948515625,78.0494305419922L59.60801513671875,80.43226135253906L59.821075683593754,76.31890431722005L60.0342392578125,73.3817421468099L60.24740283203125,75.3953428141276L60.46046337890625,77.61610727945964L60.673626953125,75.48342508951824L60.88679052734375,77.28138743082683L61.09985107421875,88.42781646728515L61.3130146484375,89.76457122802735L61.52617822265625,85.86850901285808L61.739238769531255,77.36506439208985L61.95240234375,84.61070780436198L62.16556591796874,82.68298075358074L62.378626464843755,77.12891194661458L62.5917900390625,85.58877756754558L62.80495361328125,79.34097981770834L63.01801416015624,81.28563791910808L63.231177734375,73.34601348876954L63.44423828125,81.70744374593099L63.65740185546875,83.53551106770834L63.8705654296875,75.71415791829428L64.0836259765625,85.53838053385417L64.29678955078124,76.73775126139323L64.509953125,72.52264587402344L64.72301367187501,74.33097930908202L64.93617724609375,74.79062642415366L65.1493408203125,75.889260152181L65.3624013671875,58.079457397460935L65.57556494140626,63.91974558512371L65.788728515625,59.02649190266928L66.0017890625,63.63258992513021L66.21495263671875,61.970664164225255L66.4281162109375,67.1494770304362L66.6411767578125,66.41431772867838L66.85434033203124,80.414646097819L67.06750390625001,65.40575887044271L67.280564453125,64.5998324584961L67.49372802734375,63.02553283691407L67.7068916015625,68.77524200439453L67.9199521484375,69.65398213704428L68.13311572265624,72.47419942220053L68.346279296875,66.3000136311849L68.55933984375001,53.725200500488285L68.77250341796875,71.78017639160156L68.9856669921875,67.0455800374349L69.1987275390625,63.45184000651042L69.41189111328126,72.18229034423828L69.6250546875,75.78024963378905L69.838115234375,67.01455678304036L70.05127880859375,67.91986684163412L70.2644423828125,64.55318654378256L70.4775029296875,82.46011627197265L70.69066650390624,69.37732961018881L70.90372705078126,64.70234303792319L71.116890625,78.50740915934244L71.33005419921875,58.50633473714192L71.54311474609375,87.72727549235026L71.7562783203125,78.31969716389975L71.96944189453124,78.24894205729167L72.18250244140624,81.93213877360026L72.39566601562501,80.20202667236327L72.60882958984375,74.34514353434245L72.82189013671875,79.40494689941406L73.0350537109375,76.70344502766928L73.24821728515626,77.29824645996095L73.46127783203124,72.2641367594401L73.67444140625,86.03073740641277L73.88760498046875,73.01049540201822L74.10066552734375,90.55729970296224L74.3138291015625,81.77778472900391L74.52699267578124,78.39661610921223L74.74005322265626,81.53845133463543L74.953216796875,72.59446329752603L75.16638037109375,74.52229838053385L75.37944091796875,76.01334716796876L75.5926044921875,78.11022867838541L75.80576806640624,76.1442642211914L76.01882861328124,84.99623881022136L76.2319921875,86.77771423339843L76.44515576171875,78.94961507161457L76.65821630859375,59.35453175862631L76.87137988281249,64.45203236897787L77.08454345703126,82.70699391682942L77.29760400390624,58.228757934570304L77.510767578125,65.92822672526042L77.72382812500001,62.04892150878907L77.93699169921875,71.35091634114583L78.15015527343749,68.1778778076172L78.36321582031249,67.84977193196615L78.57637939453126,59.80566233317057L78.78954296875,38.882466837565104L79.002603515625,66.56162567138672L79.21576708984375,53.89759592692057L79.4289306640625,45.340435282389315L79.6419912109375,41.58338653564454L79.85515478515624,48.13938222249348L80.068318359375,34.83199656168619L80.28137890625,59.93634531656902L80.49454248046875,50.610205281575524L80.70770605468749,41.77665318806967L80.9207666015625,56.92072774251302L81.13393017578124,28.93298085530598L81.34709375,56.62090230305989L81.560154296875,39.48877970377604L81.77331787109375,50.446566467285145L81.98648144531249,48.07783686319987L82.19954199218749,60.107276306152336L82.41270556640626,47.93750000000001L82.625869140625,52.29136678059896L82.8389296875,41.29648895263672L83.05209326171875,49.29328943888346L83.2652568359375,47.75321202596029L83.47831738281249,36.070192921956384L83.69148095703125,58.543017679850266L83.90464453125,51.54785298665365L84.117705078125,41.865632731119796L84.33086865234375,55.04816914876302L84.54403222656249,34.920351918538415L84.7570927734375,49.08287267049154L84.97025634765625,54.35435618082683L85.18331689453125,31.3546462504069L85.39648046875,53.52880391438803L85.60964404296875,49.256774546305344L85.82270458984375,28.140480448404944L86.03586816406249,61.59693868001302L86.24903173828126,41.09925211588541L86.46209228515625,54.81405131022136L86.675255859375,72.02635182698569L86.88841943359375,37.98759389241537L87.10147998046875,66.03481252034504L87.31464355468749,55.24091064453125L87.52780712890625,79.2152123006185L87.74086767578126,54.99963867187501L87.95403125,37.87330479939779L88.16719482421875,56.10639882405599L88.38025537109374,43.91981150309244L88.59341894531251,32.74634140014649L88.80658251953125,26.627639160156253L89.01964306640625,25.758429870605465L89.232806640625,45.61086395263673L89.44597021484375,46.467508494059246L89.65903076171875,35.09453287760417L89.8721943359375,46.914608866373705L90.08535791015625,38.5504237874349L90.29841845703125,29.26635330200196L90.51158203125,36.53471349080403L90.72474560546875,44.30735911051433L90.93780615234375,45.73375361124675L91.1509697265625,33.747587076822924L91.36413330078125,44.35634572347005L91.57719384765626,39.33628321329752L91.790357421875,65.00769612630208L92.00341796875,43.53448455810547L92.21658154296874,36.76692576090494L92.42974511718751,38.485214335123686L92.6428056640625,57.47420084635416L92.85596923828125,42.43155954996745L93.0691328125,45.74208409627279L93.282193359375,50.24674886067709L93.49535693359375,61.73493184407553L93.7085205078125,67.25342803955078L93.92158105468751,47.366657714843754L94.13474462890625,34.592831217447916L94.347908203125,41.79336517333985L94.56096875,33.773706868489576L94.77413232421875,69.45877990722657L94.9872958984375,55.633775838216145L95.2003564453125,61.43759114583333L95.41352001953126,37.148519592285155L95.62668359375,27.09174560546874L95.839744140625,51.46255554199218L96.05290771484374,40.644868570963546L96.26607128906251,34.663553314208976L96.4791318359375,45.268239746093755L96.69229541015625,28.114675750732413L96.905458984375,25.725771128336586L97.11851953125,21.837413711547853L97.33168310546876,23.87655349731445L97.5448466796875,25.575543314615892L97.75790722656251,24.191048812866207L97.97107080078125,27.67476852416992L98.184234375,25.43860646565756L98.397294921875,47.54686447143554L98.61045849609376,28.741067606608077L98.8236220703125,23.872620824178057L99.0366826171875,26.489234873453775L99.24984619140625,23.948776041666672L99.46290673828125,33.76437408447265L99.6760703125,24.220516103108725L99.88923388671874,29.13389078776041L100.10229443359376,24.35722938537597L100.3154580078125,27.371260986328135L100.52862158203125,21.493412094116206L100.74168212890626,28.664049631754555L100.954845703125,24.846100718180338L101.16800927734374,28.760591430664064L101.38106982421874,31.120387369791672L101.59423339843751,23.095285441080726L101.80739697265625,22.811211700439458L102.02045751953125,33.53914789835613L102.23362109374999,32.46137939453125L102.44678466796876,27.529519195556645L102.65984521484376,19.247425104777008L102.8730087890625,28.02208913167318L103.08617236328125,24.02847081502279L103.29923291015625,29.60660980224609L103.512396484375,30.05520462036132L103.72556005859374,38.37115331013997L103.93862060546876,25.63692662556967L104.1517841796875,29.64757202148437L104.36494775390625,39.95469568888346L104.57800830078125,31.52009460449218L104.791171875,33.113756001790364L105.00433544921874,33.87712371826171L105.21739599609374,40.63574584960938L105.43055957031251,37.42440989176432L105.64372314453125,23.898772125244143L105.85678369140625,35.99076522827149L106.06994726562499,30.06448638916015L106.2830078125,26.531565500895177L106.49617138671874,37.51403162638346L106.7093349609375,30.438761037190762L106.92239550781251,27.98999155680338L107.13555908203125,27.965528259277352L107.34872265625,20.566330540974928L107.56178320312499,29.736752624511723L107.77494677734376,45.61972259521485L107.9881103515625,25.68495295206705L108.2011708984375,42.16138295491537L108.41433447265625,45.687293752034506L108.627498046875,28.99099416097005L108.84055859375,33.65761123657226L109.05372216796874,36.42672027587891L109.26688574218751,47.09370529174806L109.4799462890625,27.233570912679042L109.69310986328125,34.85590469360351L109.90627343749999,33.567023213704424L110.119333984375,62.269883422851564L110.33249755859374,52.062596537272135L110.5456611328125,28.605016021728517L110.75872167968751,45.430399119059246L110.97188525390625,32.753354492187505L111.185048828125,36.06274169921876L111.39810937499999,44.29462931315105L111.61127294921876,49.61457728068034L111.8244365234375,46.00593780517579L112.0374970703125,48.48820627848308L112.25066064453125,46.25864018758139L112.46382421875,40.03831863403321L112.676884765625,35.49811126708984L112.89004833984374,19.15289240519206L113.1032119140625,45.478878580729166L113.3162724609375,31.878824615478507L113.52943603515625,47.991294047037755L113.74249658203124,45.01860727945964L113.95566015625,37.72304397583008L114.16882373046874,30.26433100382488L114.38188427734374,41.29392018636067L114.59504785156251,31.83018010457356L114.80821142578125,30.18657180786132L115.02127197265625,28.962929789225267L115.23443554687499,26.152459411621088L115.44759912109376,23.73092005411783L115.66065966796874,22.76145385742188L115.8738232421875,19.542089004516598L116.08698681640625,42.31297617594401L116.30004736328125,24.147303263346362L116.5132109375,56.21436503092447L116.72637451171875,27.908751322428394L116.93943505859376,19.5211262512207L117.1525986328125,32.09644053141277L117.36576220703125,21.992924601236986L117.57882275390624,26.083846944173175L117.791986328125,26.93740956624349L118.00514990234375,22.177314605712898L118.21821044921874,21.591724421183258L118.4313740234375,29.530843200683602L118.64453759765625,23.07930567423503L118.85759814453125,29.015802561442047L119.07076171874999,30.398242950439453L119.28392529296876,22.98663352966309L119.49698583984375,18.247087198893233L119.7101494140625,30.59844467163085L119.92331298828124,23.82791948954264L120.13637353515625,30.687082112630204L120.34953710937499,38.48863535563151L120.56259765624999,25.699864400227863L120.77576123046876,37.52202301025391L120.9889248046875,34.74275293986003L121.2019853515625,25.380059000651038L121.41514892578124,22.760202484130865L121.6283125,32.01050389607747L121.841373046875,20.48583902994792L122.05453662109375,32.87156875610351L122.2677001953125,24.485816243489573L122.4807607421875,34.05472569783529L122.69392431640625,16.57636581420898L122.907087890625,15.639315287272131L123.1201484375,24.115433756510416L123.33331201171875,21.975766983032234L123.5464755859375,24.11360921223958L123.75953613281251,27.528777974446612L123.97269970703124,26.983224232991535L124.18586328125,34.793080952962235L124.39892382812499,30.260270792643233L124.61208740234376,26.699459584554038L124.82525097656249,24.10289451599121L125.03831152343751,20.523818359375003L125.25147509765624,29.22681950887044L125.46463867187501,26.58971384684244L125.67769921874999,30.61256688435873L125.89086279296876,28.62841100056966L126.10402636718749,21.852466201782228L126.31708691406249,22.59584795633951L126.53025048828125,18.003980178833004L126.74341406250001,20.56232284545899L126.95647460937501,31.853359018961594L127.16963818359373,21.608229344685878L127.3828017578125,19.106279500325527L127.59586230468749,27.434201761881504L127.80902587890625,22.98958641052246L128.02208642578125,19.09731582641602L128.23525,15.699703801472982L128.44841357421873,20.09695152282715L128.66147412109373,15.683131357828776L128.8746376953125,27.55661427815756L129.08780126953127,17.870976003011062L129.30086181640624,21.716863250732416L129.514025390625,20.210755971272782L129.72718896484375,23.7110661315918L129.94024951171875,40.138470509847004L130.1534130859375,21.371670277913417L130.36657666015626,22.633960825602216L130.57963720703125,24.787761815389004L130.79280078124998,28.875999857584638L131.00596435546876,34.41814910888673L131.21902490234373,14.494172185262043L131.43218847656252,39.506028849283844L131.64535205078124,24.26094416300455L131.85841259765627,20.30284744262696L132.071576171875,19.13453142801921L132.28473974609375,22.725083007812504L132.49780029296875,21.520415649414065L132.7109638671875,19.2874045308431L132.92412744140626,25.116505381266286L133.13718798828123,31.376264699300126L133.3503515625,31.19154159545899L133.56351513671876,21.51913126627605L133.77657568359376,26.09320673624675L133.9897392578125,31.968785451253247L134.20290283203124,41.308849639892586L134.41596337890624,25.14252764383951L134.629126953125,28.720112355550125L134.8421875,23.888858668009433L135.05535107421875,28.14181284586588L135.2685146484375,13.901334838867188L135.4815751953125,25.198042704264317L135.69473876953126,26.88107076009114L135.90790234375,24.659484049479175L136.120962890625,21.61512090047201L136.33412646484373,19.330719451904294L136.5472900390625,30.989674377441396L136.7603505859375,29.992698974609368L136.97351416015624,21.770445734659837L137.186677734375,33.34297637939453L137.39973828125002,26.31341242472331L137.61290185546875,31.314557291666674L137.8260654296875,27.833863983154306L138.0391259765625,28.495450337727856L138.25228955078126,15.517704010009773L138.46545312499998,27.736187845865892L138.67851367187498,21.605425008138017L138.89167724609374,28.204042409261078L139.10484082031252,25.118440958658866L139.31790136718752,20.090754674275722L139.53106494140627,24.140297673543294L139.744228515625,26.495824839274093L139.9572890625,35.065073089599615L140.17045263671875,26.094104003906246L140.3836162109375,22.943771743774413L140.5966767578125,24.029656168619788L140.80984033203123,22.58362080891927L141.02300390625,33.89295043945312L141.236064453125,19.447739359537756L141.44922802734376,21.53611633300781L141.6623916015625,36.04758117675782L141.87545214843752,29.2195903523763L142.08861572265624,25.20358235677083L142.30167626953124,27.9340158589681L142.51483984375,29.314736735026035L142.72800341796875,31.519926554361987L142.94106396484375,36.649857838948556L143.1542275390625,35.15004943847657L143.36739111328126,32.52581761678061L143.58045166015626,30.169736785888674L143.793615234375,27.294321034749352L144.00677880859374,26.682591552734372L144.21983935546876,24.5998262532552L144.4330029296875,21.059373118082682L144.64616650390624,32.98752634684246L144.85922705078124,15.689788843790682L145.072390625,18.018600540161138L145.28555419921875,27.90535730997722L145.49861474609375,29.417730458577477L145.7117783203125,24.509718373616543L145.92494189453126,26.931488800048832L146.13800244140626,56.74357289632161L146.35116601562498,48.2090630086263L146.56432958984374,56.05601379394532L146.77739013671874,27.878010152180998L146.9905537109375,32.49110626220704L147.20371728515624,39.48127446492512L147.41677783203127,17.795815582275395L147.62994140625,34.0224900817871L147.84310498046875,16.837955347696937L148.05616552734375,31.423363749186205L148.2693291015625,35.16982533772786L148.48249267578123,45.635102183024095L148.69555322265623,52.4908002726237L148.90871679687498,56.90404276529947L149.12177734374998,52.178923238118486L149.33494091796877,31.341541341145827L149.54810449218752,32.697615865071604L149.76116503906252,23.92886510213215L149.97432861328124,22.998135960896807L150.1874921875,18.186359583536788L150.400552734375,24.497683283487966L150.61371630859375,35.810744527180994L150.82687988281248,39.37676228841146L151.0399404296875,28.685277964274086L151.25310400390626,35.52018885294597L151.466267578125,24.654038925170894L151.679328125,26.0340530904134L151.89249169921877,11.937310460408533L152.1056552734375,22.06231430053711L152.3187158203125,28.392201538085935L152.53187939453124,33.44482976277669L152.74504296875,37.23785624186198L152.958103515625,28.81560084025065L153.17126708984375,35.699435323079435L153.3844306640625,24.162070668538416L153.5974912109375,28.276000874837248L153.81065478515626,28.07921417236328L154.02381835937499,18.230241673787432L154.23687890625,16.802412745157888L154.45004248046874,18.183555246988924L154.6632060546875,20.429953358968106L154.8762666015625,16.845385564168286L155.08943017578127,19.24408060709636L155.30259375,23.017217152913414L155.515654296875,32.302569020589196L155.72881787109375,35.73162292480468L155.9419814453125,61.090567626953124L156.1550419921875,47.57421463012695L156.36820556640623,33.339867451985675L156.58126611328126,35.19312428792318L156.79442968749998,33.38792678833008L157.00759326171877,35.54023483276368L157.22065380859374,36.86723068237304L157.43381738281252,28.72076955159504L157.64698095703125,21.663502833048497L157.86004150390625,30.538612823486332L158.073205078125,29.58698694864909L158.28636865234375,19.53041102091471L158.49942919921875,24.479037221272794L158.71259277343748,22.670169626871736L158.92575634765626,22.96604288736979L159.13881689453123,25.349272816975915L159.35198046875,26.12688578287761L159.56514404296877,21.790592244466154L159.77820458984377,30.687040100097658L159.9913681640625,21.905883636474616L160.20453173828125,21.76720626831054L160.41759228515625,22.03288002014161L160.630755859375,31.559007212320957L160.84391943359373,27.86057495117188L161.05697998046875,28.796152038574213L161.2701435546875,26.569463806152342L161.48330712890626,26.567102101643876L161.69636767578126,26.828282012939457L161.90953125000001,23.952554168701166L162.12269482421874,25.38100728352865L162.33575537109374,18.163897883097338L162.5489189453125,30.70836446126303L162.76208251953125,16.80641743977865L162.97514306640625,27.59069244384766L163.188306640625,27.35589340209961L163.4013671875,24.065383326212558L163.61453076171875,21.4934631093343L163.8276943359375,21.629808781941733L164.0407548828125,34.63818674723308L164.25391845703126,32.24088562011719L164.46708203125,27.508407897949223L164.680142578125,23.83831609090169L164.89330615234374,16.860607604980462L165.10646972656252,26.8704535929362L165.3195302734375,43.031510518391926L165.53269384765625,18.212884496053057L165.745857421875,27.56625915527344L165.95891796875,27.706647033691414L166.17208154296875,27.399094289143886L166.38524511718748,15.574973093668614L166.5983056640625,26.46941396077474L166.81146923828123,29.886581319173175L167.02463281250002,33.375019938151034L167.237693359375,39.53544962565103L167.45085693359377,20.31353663126627L167.6640205078125,22.69657750447591L167.8770810546875,26.214691975911464L168.09024462890625,33.3474897257487L168.303408203125,27.527421569824227L168.51646875,25.03281041463217L168.72963232421873,26.653185780843106L168.9427958984375,29.83814086914063L169.15585644531248,27.31800710042317L169.36902001953126,20.397213592529287L169.58218359375002,28.025951283772788L169.79524414062502,33.567143249511716L170.00840771484374,24.871164194742835L170.2215712890625,22.668385594685876L170.4346318359375,25.09549461364747L170.64779541015625,27.813070780436206L170.86085595703125,23.19532628377278L171.07401953125,24.029759699503586L171.28718310546876,22.881237589518225L171.50024365234376,23.84484603881836L171.7134072265625,27.08483754475912L171.92657080078126,33.852867482503264L172.13963134765626,35.54540537516276L172.352794921875,23.871977132161454L172.56595849609374,28.942301635742183L172.77901904296874,28.172764078776034L172.9921826171875,19.774067204793294L173.20534619140625,32.057137807210275L173.41840673828125,25.87966603597005L173.6315703125,26.201614074707038L173.84473388671876,29.476232910156256L174.05779443359376,15.474043986002611L174.2709580078125,20.426610361735026L174.48412158203124,25.0608837890625L174.69718212890623,30.70271977742513L174.910345703125,20.589877065022794L175.12350927734377,22.83550094604492L175.33656982421874,30.846363627115895L175.5497333984375,20.881897176106765L175.76289697265625,13.294096196492521L175.97595751953125,36.33100672403972L176.18912109375,35.30419642130534L176.40228466796873,19.51796780904134L176.61534521484376,16.994073918660483L176.82850878906248,32.37575785319011L177.04167236328126,25.037107696533194L177.25473291015624,31.917791239420577L177.46789648437502,24.947305908203116L177.68095703125002,31.396214650471997L177.89412060546874,19.18964886983236L178.1072841796875,28.997188008626306L178.3203447265625,29.909160054524737L178.53350830078125,23.747316945393887L178.746671875,23.609347788492844L178.959732421875,26.187137756347663L179.17289599609373,18.488108596801755L179.3860595703125,15.798874384562184L179.5991201171875,16.472383295694986L179.81228369140626,21.40403193155925L180.025447265625,27.456213328043617L180.2385078125,30.117653249104826L180.45167138671874,23.836617584228513L180.6648349609375,27.747429199218754L180.8778955078125,19.139508412679035L181.09105908203125,22.052603403727215L181.30422265625,18.041410344441733L181.517283203125,29.805824228922525L181.73044677734376,31.081801859537766L181.9436103515625,29.638755391438792L182.1566708984375,29.82012349446614L182.36983447265624,23.662450129191086L182.582998046875,17.163565979003916L182.79605859375,28.342461700439458L183.00922216796874,23.938858083089194L183.2223857421875,26.371923878987637L183.43544628906253,27.64868474324544L183.64860986328125,20.399542287190755L183.8617734375,17.811936391194653L184.074833984375,28.01003753662109L184.28799755859376,16.876365305582674L184.50116113281248,20.749037043253583L184.71422167968748,30.215077311197913L184.92738525390624,33.34181203206381L185.14044580078124,23.8205537923177L185.35360937500002,34.672832082112635L185.56677294921874,23.21430844624837L185.77983349609377,31.781244506835936L185.9929970703125,22.952750422159824L186.20616064453125,20.62089131673177L186.41922119140625,22.616711680094408L186.632384765625,26.407427469889317L186.84554833984373,26.161747182210295L187.05860888671873,19.118523152669276L187.2717724609375,23.55072079976399L187.48493603515627,11.897485580444336L187.69799658203127,29.252324117024745L187.91116015625,20.3902305094401L188.12432373046875,19.398274103800464L188.33738427734374,30.37686457316081L188.5505478515625,27.495206960042314L188.76371142578125,15.697213058471677L188.97677197265625,24.682936045328788L189.18993554687498,37.99132700602214L189.40309912109376,28.088222859700515L189.61615966796876,34.25299784342448L189.8293232421875,17.954915542602542L190.04248681640624,26.04837636311849L190.25554736328127,25.873154093424475L190.4687109375,17.79890350341797L190.68187451171875,23.824550984700522L190.89493505859375,17.97393071492513L191.1080986328125,25.998057352701817L191.32126220703125,30.035881856282543L191.53432275390625,28.401723378499348L191.747486328125,22.675496215820317L191.960546875,26.584366251627607L192.17371044921876,14.397667897542316L192.38687402343749,28.93730514526367L192.5999345703125,22.31120404561361L192.81309814453124,23.918956146240244L193.02626171875,21.4136828104655L193.239322265625,23.31828046162923L193.45248583984377,28.45711990356445L193.6656494140625,33.41249211629231L193.8787099609375,32.10807200113932L194.09187353515625,13.2789986928304L194.305037109375,22.78829836527506L194.51809765625,21.110437850952152L194.73126123046873,28.202613983154304L194.9444248046875,25.996580912272144L195.15748535156249,26.53602483113606L195.37064892578127,20.19362085978189L195.5838125,13.209577484130866L195.79687304687502,36.08836034138998L196.01003662109375,23.75471115112304L196.2232001953125,29.251684926350904L196.4362607421875,24.975158716837555L196.64942431640625,25.920184122721363L196.86258789062498,23.517904510498038L197.07564843749998,27.494651794433587L197.28881201171876,21.785682779947916L197.50197558593752,27.31037282307942L197.71503613281251,26.170095672607413L197.92819970703124,17.75858797709148L198.14136328125,30.825861511230475L198.354423828125,27.084372406005862L198.56758740234375,23.95991086324056L198.7807509765625,42.396464080810546L198.9938115234375,31.69160776774089L199.20697509765625,20.842246348063153L199.42003564453123,26.871527913411455L199.63319921875,31.96831130981446L199.84636279296876,17.752592188517255L200.05942333984376,30.72417317708334L200.27258691406252,30.27293156941732L200.48575048828124,18.946610870361322L200.69881103515624,26.070072835286457L200.911974609375,29.20066370646159L201.12513818359375,13.337454630533848L201.33819873046875,16.73235084533692L201.5513623046875,29.506259867350266L201.76452587890626,24.897435531616214L201.97758642578125,24.407201792399086L202.19075,38.38964782714844L202.40391357421873,25.75264414469402L202.61697412109376,13.243748677571613L202.8301376953125,39.23074172973633L203.04330126953124,22.162994333902986L203.25636181640624,27.172019551595056L203.46952539062502,21.358784434000654L203.68268896484375,19.011058095296228L203.89574951171875,8.474116121927896L204.1089130859375,30.029654998779293L204.32207666015626,20.27356320699057L204.53513720703126,27.428860168457025L204.74830078124998,20.259262440999343L204.96146435546873,29.298657938639323L205.17452490234373,26.376419219970696L205.38768847656252,18.409168548583985L205.60085205078124,25.268704783121752L205.81391259765627,23.795529327392575L206.027076171875,20.53350224812825L206.24013671875,23.602592773437493L206.45330029296875,23.917011566162113L206.6664638671875,21.60008041381836L206.8795244140625,23.85169108072916L207.09268798828123,31.10134368896485L207.3058515625,22.905859934488934L207.51891210937498,23.802884521484376L207.73207568359376,29.91749654134115L207.94523925781252,20.247940063476562L208.15829980468752,26.16695673624674L208.37146337890624,19.074352976481116L208.584626953125,30.106441904703786L208.7976875,25.060508677164712L209.01085107421875,22.805065867106123L209.2240146484375,22.71197209676106L209.43707519531247,20.242677993774414L209.65023876953126,25.629136301676432L209.86340234375,27.488493957519527L210.076462890625,31.60693450927734L210.28962646484376,29.491819559733063L210.5027900390625,26.667932179768883L210.7158505859375,24.815223007202142L210.92901416015624,18.91417119344075L211.14217773437503,23.080067901611336L211.35523828125,23.206335067749023L211.56840185546875,35.278220672607425L211.7815654296875,22.425197550455728L211.9946259765625,24.416264495849614L212.20778955078126,20.21034184773762L212.42095312499998,23.872892405192047L212.634013671875,20.281458562215175L212.84717724609374,33.74593058268229L213.06034082031252,26.099655659993484L213.2734013671875,26.443072102864583L213.48656494140627,21.38639266967773L213.69962548828127,22.686835098266606L213.9127890625,8.500719807942701L214.12595263671875,28.916857045491543L214.33901318359375,25.362650807698568L214.5521767578125,26.701047058105473L214.76534033203123,20.38966934204102L214.97840087890626,28.301367441813145L215.19156445312498,16.741667124430343L215.40472802734377,36.7119943745931L215.61778857421874,31.552660319010414L215.83095214843752,22.66025166829428L216.04411572265624,21.57050659179688L216.25717626953124,23.752978134155278L216.47033984375,31.0063833618164L216.68350341796875,23.687693659464518L216.89656396484375,21.544146728515628L217.10972753906248,30.465150909423823L217.32289111328126,26.95045145670574L217.53595166015623,33.6884304300944L217.749115234375,31.816084899902346L217.96227880859377,20.164488169352225L218.17533935546876,27.909774627685554L218.3885029296875,18.039441757202155L218.60166650390624,24.5293142191569L218.81472705078124,25.35521759033202L219.027890625,15.477145411173503L219.24105419921875,21.419456532796218L219.45411474609372,27.170468088785817L219.6672783203125,18.025240020751948L219.88044189453126,26.205863342285166L220.09350244140626,23.68735005696614L220.306666015625,20.36398768107096L220.5197265625,15.603421579996738L220.73289013671874,28.099761301676427L220.9460537109375,20.265841903686525L221.1591142578125,27.70994501749675L221.37227783203124,19.42791994730631L221.58544140625,32.74918324788412L221.79850195312503,21.467796452840176L222.01166552734375,28.612374216715494L222.2248291015625,25.76846786499023L222.4378896484375,29.82966334025065L222.65105322265626,21.311173731486004L222.86421679687498,30.838045145670577L223.07727734374998,25.062807362874356L223.29044091796874,23.827835464477545L223.50360449218752,23.909839426676424L223.71666503906252,14.35201227823893L223.92982861328124,28.383261871337893L224.1429921875,21.419277979532872L224.356052734375,25.925546722412115L224.56921630859375,23.71296119689942L224.78237988281248,29.73965749104817L224.9954404296875,18.517775446573893L225.20860400390623,24.041775283813482L225.421767578125,20.35247924804687L225.634828125,28.588081970214834L225.84799169921877,24.700744857788084L226.0611552734375,28.582854410807293L226.2742158203125,17.95583531697592L226.48737939453125,21.535655695597335L226.70054296875,33.753501841227205L226.913603515625,20.160006332397458L227.12676708984372,30.087293192545573L227.3399306640625,33.69967478434244L227.5529912109375,28.18298512776693L227.76615478515626,23.31970438639324L227.97921533203126,28.482798563639317L228.19237890625,26.53892969767253L228.40554248046874,21.386380666097004L228.61860302734374,33.42508687337241L228.8317666015625,27.962131245930998L229.04493017578125,29.570286966959635L229.25799072265625,21.753777262369795L229.471154296875,33.494770660400384L229.68431787109375,31.257492268880217L229.89737841796875,26.39240798950196L230.1105419921875,30.50907501220703L230.32370556640626,30.19683186848959L230.53676611328126,22.340032145182292L230.74992968749999,24.355169270833336L230.96309326171874,25.294755554199213L231.17615380859374,17.70902369181315L231.3893173828125,26.220858815511072L231.60248095703125,30.10922073364257L231.81554150390627,18.962137502034505L232.028705078125,21.28659339904784L232.24186865234375,27.015906982421882L232.45492919921875,13.190706354777015L232.6680927734375,21.337368545532225L232.88125634765623,28.599791463216153L233.09431689453123,21.37257954915364L233.30748046875,28.95114227294921L233.52064404296877,25.01446594238281L233.73370458984377,22.529889780680342" style="fill: none;" fill="none"></path></g></g></g></g></g></g><g transform="translate(82, 177)" clip-path="url(#clip_1)"><clipPath id="clip_1"><rect width="247" height="22"></rect></clipPath><g><g><line x1="0" y1="0" x2="0" y2="5" style="visibility: inherit;" fill="rgb(0, 0, 0)" stroke="rgb(204, 204, 204)" stroke-width="1px"></line><line x1="20.60546875" y1="0" x2="20.60546875" y2="5" style="visibility: inherit;" fill="rgb(0, 0, 0)" stroke="rgb(204, 204, 204)" stroke-width="1px"></line><line x1="41.2109375" y1="0" x2="41.2109375" y2="5" style="visibility: inherit;" fill="rgb(0, 0, 0)" stroke="rgb(204, 204, 204)" stroke-width="1px"></line><line x1="61.81640625" y1="0" x2="61.81640625" y2="5" style="visibility: inherit;" fill="rgb(0, 0, 0)" stroke="rgb(204, 204, 204)" stroke-width="1px"></line><line x1="82.421875" y1="0" x2="82.421875" y2="5" style="visibility: inherit;" fill="rgb(0, 0, 0)" stroke="rgb(204, 204, 204)" stroke-width="1px"></line><line x1="103.02734375" y1="0" x2="103.02734375" y2="5" style="visibility: inherit;" fill="rgb(0, 0, 0)" stroke="rgb(204, 204, 204)" stroke-width="1px"></line><line x1="123.6328125" y1="0" x2="123.6328125" y2="5" style="visibility: inherit;" fill="rgb(0, 0, 0)" stroke="rgb(204, 204, 204)" stroke-width="1px"></line><line x1="144.23828125" y1="0" x2="144.23828125" y2="5" style="visibility: inherit;" fill="rgb(0, 0, 0)" stroke="rgb(204, 204, 204)" stroke-width="1px"></line><line x1="164.84375" y1="0" x2="164.84375" y2="5" style="visibility: inherit;" fill="rgb(0, 0, 0)" stroke="rgb(204, 204, 204)" stroke-width="1px"></line><line x1="185.44921875" y1="0" x2="185.44921875" y2="5" style="visibility: inherit;" fill="rgb(0, 0, 0)" stroke="rgb(204, 204, 204)" stroke-width="1px"></line><line x1="206.0546875" y1="0" x2="206.0546875" y2="5" style="visibility: inherit;" fill="rgb(0, 0, 0)" stroke="rgb(204, 204, 204)" stroke-width="1px"></line><line x1="226.66015625" y1="0" x2="226.66015625" y2="5" style="visibility: inherit;" fill="rgb(0, 0, 0)" stroke="rgb(204, 204, 204)" stroke-width="1px"></line><line x1="247.265625" y1="0" x2="247.265625" y2="5" style="visibility: inherit;" fill="rgb(0, 0, 0)" stroke="rgb(204, 204, 204)" stroke-width="1px"></line></g><g transform="translate(0, 8)"><text x="0" y="0" dx="0em" dy="0.95em" style="text-anchor: middle; visibility: hidden; font-family: Roboto, sans-serif; font-size: 12px; font-weight: 200;" fill="rgb(255, 255, 255)" stroke="none" stroke-width="1px">-200k</text><text x="20.60546875" y="0" dx="0em" dy="0.95em" style="text-anchor: middle; visibility: inherit; font-family: Roboto, sans-serif; font-size: 12px; font-weight: 200;" fill="rgb(255, 255, 255)" stroke="none" stroke-width="1px">0</text><text x="41.2109375" y="0" dx="0em" dy="0.95em" style="text-anchor: middle; visibility: hidden; font-family: Roboto, sans-serif; font-size: 12px; font-weight: 200;" fill="rgb(255, 255, 255)" stroke="none" stroke-width="1px">200k</text><text x="61.81640625" y="0" dx="0em" dy="0.95em" style="text-anchor: middle; visibility: inherit; font-family: Roboto, sans-serif; font-size: 12px; font-weight: 200;" fill="rgb(255, 255, 255)" stroke="none" stroke-width="1px">400k</text><text x="82.421875" y="0" dx="0em" dy="0.95em" style="text-anchor: middle; visibility: hidden; font-family: Roboto, sans-serif; font-size: 12px; font-weight: 200;" fill="rgb(255, 255, 255)" stroke="none" stroke-width="1px">600k</text><text x="103.02734375" y="0" dx="0em" dy="0.95em" style="text-anchor: middle; visibility: inherit; font-family: Roboto, sans-serif; font-size: 12px; font-weight: 200;" fill="rgb(255, 255, 255)" stroke="none" stroke-width="1px">800k</text><text x="123.6328125" y="0" dx="0em" dy="0.95em" style="text-anchor: middle; visibility: hidden; font-family: Roboto, sans-serif; font-size: 12px; font-weight: 200;" fill="rgb(255, 255, 255)" stroke="none" stroke-width="1px">1M</text><text x="144.23828125" y="0" dx="0em" dy="0.95em" style="text-anchor: middle; visibility: inherit; font-family: Roboto, sans-serif; font-size: 12px; font-weight: 200;" fill="rgb(255, 255, 255)" stroke="none" stroke-width="1px">1.2M</text><text x="164.84375" y="0" dx="0em" dy="0.95em" style="text-anchor: middle; visibility: hidden; font-family: Roboto, sans-serif; font-size: 12px; font-weight: 200;" fill="rgb(255, 255, 255)" stroke="none" stroke-width="1px">1.4M</text><text x="185.44921875" y="0" dx="0em" dy="0.95em" style="text-anchor: middle; visibility: inherit; font-family: Roboto, sans-serif; font-size: 12px; font-weight: 200;" fill="rgb(255, 255, 255)" stroke="none" stroke-width="1px">1.6M</text><text x="206.0546875" y="0" dx="0em" dy="0.95em" style="text-anchor: middle; visibility: hidden; font-family: Roboto, sans-serif; font-size: 12px; font-weight: 200;" fill="rgb(255, 255, 255)" stroke="none" stroke-width="1px">1.8M</text><text x="226.66015625" y="0" dx="0em" dy="0.95em" style="text-anchor: middle; visibility: inherit; font-family: Roboto, sans-serif; font-size: 12px; font-weight: 200;" fill="rgb(255, 255, 255)" stroke="none" stroke-width="1px">2M</text><text x="247.265625" y="0" dx="0em" dy="0.95em" style="text-anchor: middle; visibility: hidden; font-family: Roboto, sans-serif; font-size: 12px; font-weight: 200;" fill="rgb(255, 255, 255)" stroke="none" stroke-width="1px">2.2M</text></g><line x1="0" y1="0" x2="247.265625" y2="0" fill="rgb(0, 0, 0)" stroke="rgb(204, 204, 204)" stroke-width="1px"></line></g></g></g></g></svg>