<svg viewBox="0 0 1548.75 400" xmlns="http://www.w3.org/2000/svg"><g><g><g><g><g><line x1="51.5625" y1="377" x2="46.5625" y2="377" style="visibility: inherit;" fill="rgb(0, 0, 0)" stroke="rgb(204, 204, 204)" stroke-width="1px"></line><line x1="51.5625" y1="323.14285714285717" x2="46.5625" y2="323.14285714285717" style="visibility: inherit;" fill="rgb(0, 0, 0)" stroke="rgb(204, 204, 204)" stroke-width="1px"></line><line x1="51.5625" y1="269.2857142857143" x2="46.5625" y2="269.2857142857143" style="visibility: inherit;" fill="rgb(0, 0, 0)" stroke="rgb(204, 204, 204)" stroke-width="1px"></line><line x1="51.5625" y1="215.42857142857142" x2="46.5625" y2="215.42857142857142" style="visibility: inherit;" fill="rgb(0, 0, 0)" stroke="rgb(204, 204, 204)" stroke-width="1px"></line><line x1="51.5625" y1="161.57142857142858" x2="46.5625" y2="161.57142857142858" style="visibility: inherit;" fill="rgb(0, 0, 0)" stroke="rgb(204, 204, 204)" stroke-width="1px"></line><line x1="51.5625" y1="107.71428571428571" x2="46.5625" y2="107.71428571428571" style="visibility: inherit;" fill="rgb(0, 0, 0)" stroke="rgb(204, 204, 204)" stroke-width="1px"></line><line x1="51.5625" y1="53.857142857142875" x2="46.5625" y2="53.857142857142875" style="visibility: inherit;" fill="rgb(0, 0, 0)" stroke="rgb(204, 204, 204)" stroke-width="1px"></line><line x1="51.5625" y1="0" x2="46.5625" y2="0" style="visibility: inherit;" fill="rgb(0, 0, 0)" stroke="rgb(204, 204, 204)" stroke-width="1px"></line></g><g transform="translate(41.5625, 0)"><text x="0" y="377" dx="0em" dy="0.3em" style="text-anchor: end; visibility: hidden; font-family: Roboto, sans-serif; font-size: 12px; font-weight: 200;" fill="rgb(255, 255, 255)" stroke="none" stroke-width="1px">-300</text><text x="0" y="323.14285714285717" dx="0em" dy="0.3em" style="text-anchor: end; visibility: inherit; font-family: Roboto, sans-serif; font-size: 12px; font-weight: 200;" fill="rgb(255, 255, 255)" stroke="none" stroke-width="1px">-250</text><text x="0" y="269.2857142857143" dx="0em" dy="0.3em" style="text-anchor: end; visibility: inherit; font-family: Roboto, sans-serif; font-size: 12px; font-weight: 200;" fill="rgb(255, 255, 255)" stroke="none" stroke-width="1px">-200</text><text x="0" y="215.42857142857142" dx="0em" dy="0.3em" style="text-anchor: end; visibility: inherit; font-family: Roboto, sans-serif; font-size: 12px; font-weight: 200;" fill="rgb(255, 255, 255)" stroke="none" stroke-width="1px">-150</text><text x="0" y="161.57142857142858" dx="0em" dy="0.3em" style="text-anchor: end; visibility: inherit; font-family: Roboto, sans-serif; font-size: 12px; font-weight: 200;" fill="rgb(255, 255, 255)" stroke="none" stroke-width="1px">-100</text><text x="0" y="107.71428571428571" dx="0em" dy="0.3em" style="text-anchor: end; visibility: inherit; font-family: Roboto, sans-serif; font-size: 12px; font-weight: 200;" fill="rgb(255, 255, 255)" stroke="none" stroke-width="1px">-50</text><text x="0" y="53.857142857142875" dx="0em" dy="0.3em" style="text-anchor: end; visibility: inherit; font-family: Roboto, sans-serif; font-size: 12px; font-weight: 200;" fill="rgb(255, 255, 255)" stroke="none" stroke-width="1px">0</text><text x="0" y="0" dx="0em" dy="0.3em" style="text-anchor: end; visibility: hidden; font-family: Roboto, sans-serif; font-size: 12px; font-weight: 200;" fill="rgb(255, 255, 255)" stroke="none" stroke-width="1px">50</text></g><line x1="51.5625" y1="0" x2="51.5625" y2="377" fill="rgb(0, 0, 0)" stroke="rgb(204, 204, 204)" stroke-width="1px"></line></g></g><g transform="translate(51, 0)" clip-path="url(#clip_0)"><clipPath id="clip_0"><rect width="1497" height="376"></rect></clipPath><g><g><g><line x1="0" y1="0" x2="0" y2="377" fill="rgb(0, 0, 0)" stroke="rgb(189, 189, 189)" stroke-width="1px" opacity="0.25"></line><line x1="149.71875" y1="0" x2="149.71875" y2="377" fill="rgb(0, 0, 0)" stroke="rgb(189, 189, 189)" stroke-width="1px" opacity="0.25"></line><line x1="299.4375" y1="0" x2="299.4375" y2="377" fill="rgb(0, 0, 0)" stroke="rgb(189, 189, 189)" stroke-width="1px" opacity="0.25"></line><line x1="449.15625" y1="0" x2="449.15625" y2="377" fill="rgb(0, 0, 0)" stroke="rgb(189, 189, 189)" stroke-width="1px" opacity="0.25"></line><line x1="598.875" y1="0" x2="598.875" y2="377" fill="rgb(0, 0, 0)" stroke="rgb(189, 189, 189)" stroke-width="1px" opacity="0.25"></line><line x1="748.59375" y1="0" x2="748.59375" y2="377" fill="rgb(0, 0, 0)" stroke="rgb(189, 189, 189)" stroke-width="1px" opacity="0.25"></line><line x1="898.3125" y1="0" x2="898.3125" y2="377" fill="rgb(0, 0, 0)" stroke="rgb(189, 189, 189)" stroke-width="1px" opacity="0.25"></line><line x1="1048.03125" y1="0" x2="1048.03125" y2="377" fill="rgb(0, 0, 0)" stroke="rgb(189, 189, 189)" stroke-width="1px" opacity="0.25"></line><line x1="1197.75" y1="0" x2="1197.75" y2="377" fill="rgb(0, 0, 0)" stroke="rgb(189, 189, 189)" stroke-width="1px" opacity="0.25"></line><line x1="1347.46875" y1="0" x2="1347.46875" y2="377" fill="rgb(0, 0, 0)" stroke="rgb(189, 189, 189)" stroke-width="1px" opacity="0.25"></line><line x1="1497.1875" y1="0" x2="1497.1875" y2="377" fill="rgb(0, 0, 0)" stroke="rgb(189, 189, 189)" stroke-width="1px" opacity="0.25"></line></g><g><line x1="0" y1="377" x2="1497.1875" y2="377" fill="rgb(0, 0, 0)" stroke="rgb(189, 189, 189)" stroke-width="1px" opacity="0.25"></line><line x1="0" y1="323.14285714285717" x2="1497.1875" y2="323.14285714285717" fill="rgb(0, 0, 0)" stroke="rgb(189, 189, 189)" stroke-width="1px" opacity="0.25"></line><line x1="0" y1="269.2857142857143" x2="1497.1875" y2="269.2857142857143" fill="rgb(0, 0, 0)" stroke="rgb(189, 189, 189)" stroke-width="1px" opacity="0.25"></line><line x1="0" y1="215.42857142857142" x2="1497.1875" y2="215.42857142857142" fill="rgb(0, 0, 0)" stroke="rgb(189, 189, 189)" stroke-width="1px" opacity="0.25"></line><line x1="0" y1="161.57142857142858" x2="1497.1875" y2="161.57142857142858" fill="rgb(0, 0, 0)" stroke="rgb(189, 189, 189)" stroke-width="1px" opacity="0.25"></line><line x1="0" y1="107.71428571428571" x2="1497.1875" y2="107.71428571428571" fill="rgb(0, 0, 0)" stroke="rgb(189, 189, 189)" stroke-width="1px" opacity="0.25"></line><line x1="0" y1="53.857142857142875" x2="1497.1875" y2="53.857142857142875" fill="rgb(0, 0, 0)" stroke="rgb(189, 189, 189)" stroke-width="1px" opacity="0.25"></line><line x1="0" y1="0" x2="1497.1875" y2="0" fill="rgb(0, 0, 0)" stroke="rgb(189, 189, 189)" stroke-width="1px" opacity="0.25"></line></g></g></g><g><g><line x1="0" y1="53.857142857142875" x2="1497.1875" y2="53.857142857142875" fill="rgb(0, 0, 0)" stroke="rgb(153, 153, 153)" stroke-width="1.5px"></line></g></g><g><g><line x1="149.71875" y1="0" x2="149.71875" y2="377" fill="rgb(0, 0, 0)" stroke="rgb(153, 153, 153)" stroke-width="1.5px"></line></g></g><g><g><g><g><g><path stroke="rgb(255, 112, 67)" stroke-width="2px" d="M151.55729625,279.43635907854355L153.3913509375,236.88828889086733L155.22166265625,214.81377674478824L157.05197437500001,201.98514013690132L158.88378328125,201.59576608321177L160.71634078124998,219.12339616753337L162.54889828125,219.41352201505177L164.38145578125,218.54614593739706L166.208773125,213.13285700764743L168.03758765625,212.19719233474225L169.87164234375,223.14753615877362L171.70045687500001,256.4940321464952L173.53376296874998,256.3714905282004L175.36482328124998,291.57597669414656L177.18989484374998,346.17259756135195L179.02544671875,455.2790647904649L204.72467015625003,384.7622793118508L206.55797625,375.71888631917966L208.39352812500002,350.7739783789611L210.22458843750002,337.1046639333879L212.05639734375,325.71208044882843L213.88820624999997,311.3043575891941L215.72001515625,300.6872528298261L217.5638015625,282.76370611931816L219.39710765624997,270.5590761705258L221.22816796875,263.3050831791054L223.06147406250003,244.36559119839123L224.9030146875,262.14401206412316L226.7475496875,287.39312502210447L228.59283328125,292.1714363761075L230.43137953125,270.6179832037686L232.270674375,244.31619044700574L234.1167065625,222.48057585343543L235.97172187500001,233.02224246548576L237.8207484375,263.465373726096L239.66303765625003,275.77386694900247L241.50906984374998,270.1650988920855L243.34537031250002,260.5609370310364L245.18616234375,246.6291860012859L247.032943125,229.95450036859108L248.88720984375001,207.5653018591405L250.73997937500002,180.9485888794324L252.59274890624997,154.63800470416368L254.44701562499998,152.6581359681673L256.30277953125,163.03776893070682L258.1510575,172.32571250374247L259.9940953125,175.313906664058L261.83638453125,174.5057765017726L263.68840546875,175.61020590585522L265.54416937499997,176.79406558939382L267.39993328125,175.64753804249884L269.2556971875,171.8088299900566L271.1122096875,172.3399026958591L272.9657278125,176.81604387360701L274.8162515625,170.9947160618372L276.66902109375,173.08466751196295L278.52328781250003,179.47158309846873L280.37680593749997,184.2439020575958L282.2273296875,181.22164348723732L284.08009921875004,187.34198625917278L285.9343659375,193.68132763346867L287.78938125,205.27024505241545L289.642899375,225.26603817106002L291.49866328125,232.34284323132667L293.35218140625,257.7939642050667L295.20270515625,282.9289429160178L297.04873734375,315.0063159898203L298.89327234374997,334.8290851090623L300.73705874999996,351.55452238182386L302.58084515625,367.0147916324194L304.42538015625,377.9942032869404L308.11894171874997,380.21766922604434L309.96796828125,368.2635121806615L311.81849203125,354.69192254075045L313.66677,360.1082680799778L315.5187909375,357.42964120426814L317.3693146875,350.1589533842101L319.2198384375,348.33083825850025L321.07410515624997,350.33598714048725L322.928371875,349.487832171989L324.78263859375,340.80072775442665L326.635408125,332.0965677864834L328.48817765625,322.2897011081696L330.3439415625,316.03279109792277L332.198956875,309.84728427132137L334.049480625,305.3660745994972L335.90299875,302.18557523451426L337.7550196875,301.7035447068992L339.60778921875,291.88220028443624L341.46280453125,278.4868058210772L343.31931703125,271.7120175472352L345.1750809375,270.70541614649943L347.03084484375,265.8497189675027L348.8851115625,259.6316039525145L350.7356353125,249.16480172199422L352.58990203125,239.2127589952041L354.44641453125,233.92148972711354L356.3021784375,232.13553337210195L358.1586909375,231.50143497354023L360.01295765624997,225.50528920783808L361.8657271875,219.38949169894784L363.717748125,220.21431465513962L365.5727634375,219.83476492246922L367.42852734375003,215.15322288466922L369.28429125,208.33087240937417L371.13706078125,209.90915629293576L372.99207609375003,209.8001887591615L374.8433484375,208.41960695461978L376.69836375,206.79003748608292L378.55487625,200.7650436468306L380.4098915625,197.0145579244738L382.26415828125,194.25251492036097L384.11917359375,194.7852359177414L385.97194312500005,191.38221746792053L387.82471265625,193.2357957608688L389.67972796875006,200.65340045752984L391.53324609375,206.23577171367342L393.3875128125,210.69996780936341L395.24177953124996,211.27682184372364L397.09604625000003,204.9531286357202L398.95031296875,197.89159012549572L400.8030825,195.67908835835246L402.65884640625,197.98955535264565L404.51311312499996,204.97141428454825L406.36737984375003,213.8436756303631L408.22089796875,214.74827962260073L410.07366749999994,217.53915751097372L411.92643703125,225.2013062518067L413.78294953125,229.03595459975347L415.6387134375,232.87829588564776L417.49298015625,233.81828006567326L419.34500109375,234.21800318533514L421.1962734375,224.2108839906836L423.0527859375,220.60012119468146L424.90929843749996,220.47912059245348L426.76581093749996,225.5840139413228L428.62007765625003,225.7692828232248L430.47359578124997,216.14847252319893L432.32561671875,206.39740344969852L434.1798834375,204.63519882422986L436.03639593750006,207.39411062233765L437.89290843749995,208.33419330263672L439.74792375,208.47302120436314L441.6029390625,204.40985660520286L443.45496,194.17782071287436L445.3069809375,201.00204194495822L447.16349343750005,206.095993430191L449.01925734375004,208.65841839539962L450.86528953125,211.3257057031488L452.7210534375,204.51668761473823L454.57756593749997,199.33284154825836L456.43332984374996,202.03902249329334L458.28984234375,204.3958886170366L460.14560625,197.77360782718776L461.99687859374995,186.99330871732934L463.8481509375,183.59738598784406L465.70391484375,184.03234389390065L467.55967875000005,180.15104998214764L469.41619124999994,174.5988391731619L471.27270375,174.20406300474372L473.12697046875,179.88855184069956L474.97599703125,197.68874782201848L476.8317609375,208.54050389402107L478.68677625000004,218.36914464123015L480.53804859375,216.00576366580972L482.39456109375,214.49293678908964L484.25107359375005,219.33700006907344L486.103843125,216.66327374344615L487.9588584375,211.47155181588857L489.81462234375005,215.3998734384582L491.66814046875,210.94457227144966L493.52165859375,205.30282114916793L495.37817109375004,198.16081610749802L497.23168921875,205.1623669343692L499.08670453125,215.86248171413726L500.94171984375004,213.07285632237478L502.79673515625,202.04894641447328L504.64875609374997,200.39177592628096L506.50526859375003,211.87907049676758L508.3610325,211.32709608534384L510.21380203125,207.3941280427194L512.0695659375,211.81608766664687L513.92458125,214.89711354215893L515.77585359375,208.6755718210216L517.63236609375,205.0978824405059L519.4888785937501,205.20550193753294L521.341648125,205.85562624806383L523.1966634375,200.91139794268022L525.0524273437501,194.6415923257469L526.90744265625,202.92400261604897L528.75946359375,201.63334018611204L530.6159760937501,198.81089509989687L532.4717400000001,202.4106947948747L534.3237609375,201.99336830929647L536.1795248437501,197.3170511827248L538.0337915625,198.6249623803433L539.8858124999999,194.18851406264375L541.7423249999999,187.4592695472156L543.5988375000001,186.96431500887425L545.452355625,185.90855660351957L547.3066223437501,188.3550096593433L549.16238625,190.87564091332555L551.01665296875,192.43442488823388L552.8686739062499,189.67347709777886L554.72518640625,185.70149356478132L556.5809503125,185.18372498480036L558.4344684375001,187.41842375375705L560.28948375,188.10424065402887L562.14375046875,183.15304619167506L563.99577140625,187.81273883926673L565.85228390625,192.10083056050286L567.7080478125,196.06460102897753L569.5615659375001,194.673066136158L571.41732984375,194.5184546388521L573.27309375,196.43237776023554L575.126611875,194.5045635332615L576.97938140625,190.84980661221002L578.83589390625,190.0373671932963L580.6916578125,187.30434865715208L582.5451759375001,188.69063155618227L584.40019125,190.4981141377263L586.25445796875,185.60374414756444L588.10647890625,188.3025712578536L589.96299140625,193.45299262508934L591.8187553125,189.99371379405892L593.6722734375,188.84707143598592L595.52803734375,190.34025008254503L597.3823040625,195.1771430125638L599.23657078125,199.66755515002737L601.0893403125,202.15144087911256L602.9458528125,197.21542259770692L604.8001195312501,196.92915600757746L606.6558834374999,193.49859929352135L608.51089875,191.09181223577528L610.36516546875,193.03801756964845L612.21718640625,190.53999800435977L614.0729503125,188.37044259217006L615.92871421875,190.897692618326L617.7829809375,193.54114268633438L619.6387448437499,197.2033356643266L621.4930115625,197.61806560933456L623.3472782812499,196.50131164762468L625.2000478125,194.3553485344419L627.0565603125,194.2360129302651L628.9108270312499,197.26622172199455L630.7665909374999,193.36090117681306L632.62160625,196.3450696302149L634.47587296875,198.33444220123567L636.32789390625,195.0056260786432L638.1836578125,196.32510608203836L640.03942171875,194.05993551594707L641.8936884374999,189.49281669187093L643.74945234375,192.28649919504886L645.6037190625,189.38936794576068L647.45648859375,189.74795757940743L649.3107553125,188.79286475028186L651.1672678125,189.76425970225606L653.0215345312499,188.22092639647605L654.8772984375,187.60768919070102L656.73231375,189.3849952315226L658.58658046875,186.09741626675395L660.4378528125,187.10165615950544L662.2943653125,186.18759215183104L664.1501292187501,184.4003430575844L666.0043959375,187.85345098989856L667.86015984375,185.22493564423905L669.7144265625001,190.90271400015632L671.56569890625,194.25698941410602L673.4214628125,193.25312635133997L675.2772267187501,196.4105016696103L677.13224203125,195.49613462119694L678.98725734375,195.41338004579598L680.84302125,198.05642341939037L682.6972879687501,196.70059331587206L684.5485603125,197.70205033734712L686.4050728125001,194.93273061637387L688.26083671875,196.2782962562572L690.11435484375,199.53150974325018L691.97011875,196.35103084882874L693.823636875,197.84998309231509L695.67640640625,198.27858722187406L697.5321703125,196.68001950441246L699.38793421875,196.6827456467098L701.24145234375,194.54745618946063L703.09721625,191.64143946324958L704.95298015625,191.84894619092717L706.807246875,191.69485957267145L708.6592678125,189.83368167291684L710.5157803125,190.2675261259516L712.37154421875,190.3542096923813L714.22506234375,190.85457646902765L716.08007765625,189.66321781460886L717.934344375,189.3248158547509L719.78711390625,189.03744932490497L721.64212921875,188.5004981001258L723.49714453125,187.83807347757838L725.35066265625,187.92247052783952L727.2064265625,186.36496528544552L729.0629390625,188.04281337447213L730.91570859375,184.8552108722125L732.768478125,185.84963493182443L734.62424203125,185.94229176509288L736.4785087500001,187.30222441458105L738.33427265625,187.74482022132676L740.1900365625,189.97865563868208L742.0428060937501,188.00883570513264L743.89632421875,187.96956646218635L745.7505909375001,187.46647992007624L747.6063548437501,186.4981638677659L749.4606215625,187.3235229309056L751.3163854687499,186.7120496530564L753.1714007812501,183.4045323555974L755.02491890625,184.77853820032507L756.87843703125,184.54518762823483L758.73345234375,182.57219466802363L760.5884676562499,183.2905520183251L762.4442315625,183.4888692246782L764.2999954687499,184.21803610688045L766.1535135937501,182.89084843465156L768.00703171875,184.2236737866733L769.8612984375001,182.56540470294527L771.71706234375,183.88280626669092L773.5713290625,181.84394053521572L775.4270929687499,184.51716812476056L777.2821082812501,182.0951748884215L779.13562640625,182.22807585225092L780.98914453125,186.47912357010898L782.8441598437499,184.1961974758283L784.6991751562499,183.83910356137534L786.5549390625,183.33575641586143L788.409954375,182.0540847507157L790.26422109375,184.6038759913947L792.1169906250001,184.09437011702155L793.9712573437499,183.03700748755642L795.8277698437499,183.42696849940347L797.6820365625,181.25247832976095L799.53780046875,182.52039082742104L801.39281578125,182.18419296171993L803.24483671875,183.4331502829796L805.09985203125,183.70081295505136L806.9548673437499,182.49786523498562L808.8098826562499,183.85619097257802L810.66489796875,183.28850035301627L812.520661875,183.31270526025435L814.37492859375,184.27791748307797L816.2269495312499,183.50975434892337L818.0819648437499,183.21915000124153L819.9384773437499,183.36538476831186L821.7927440625,185.13081777062408L823.64850796875,185.24002652090545L825.50202609375,183.42108935735774L827.3547956250001,183.27801787322977L829.2098109375,182.40880411168106L831.06482625,179.65150218736423L832.9198415625,178.96442537430238L834.77560546875,178.4342644073067L836.63062078125,178.22534184884793L838.48413890625,179.84769011461185L840.3369084375,179.83632000495382L842.19192375,182.0067284010126L844.04768765625,183.20662190612617L845.90270296875,183.59088746078768L847.7584668750001,183.43804577194243L849.61123640625,182.17421850274908L851.465503125,180.48134341194336L853.31976984375,182.86815864699062L855.17179078125,181.71322793592577L857.02680609375,180.43960508042608L858.8810728125001,180.93528719846466L860.7368367187499,180.4836305729088L862.5918520312499,182.52808748806493L864.44611875,180.93689840304188L866.2996368749999,183.63724794349247L868.1546521874999,184.96248686810245L870.0096674999999,182.1216046494493L871.863185625,182.960236590859L873.7174523437501,183.0006421440708L875.57321625,181.82638508908755L877.42748296875,181.34831422021088L879.2817496874999,180.0221026472586L881.1367650000001,179.76240721843536L882.9895345312501,177.32290688791434L884.8423040624999,176.00956808162152L886.6958221875,174.27330530858077L888.5493403125,174.93756831409965L890.404355625,175.72147579368996L892.260868125,176.34521901370715L894.11363765625,178.1081242014826L895.96865296875,179.86661067485414L897.8229196875,178.8966947376352L899.677935,181.5765700331588L901.53070453125,182.36326164521685L903.3857198437499,183.81066929765942L905.24073515625,182.80063637755447L907.09425328125,181.4963152411941L908.9485199999999,182.21270789353602L910.8020381250001,180.8914980586851L912.6570534375,176.91679526558164L914.5113201562499,174.96705664391325L916.3648382812501,176.6521884254622L918.2191049999999,175.4956762479551L920.0726231250001,171.9921477946509L921.9223982812499,172.9484786215265L923.776665,169.0376419157285L925.6301831249999,166.36071832212582L927.48145546875,161.2510907996928L929.3342250000001,156.93531080384741L931.187743125,155.6322758215723L933.04350703125,157.27129464052072L934.8947793750001,162.494677570965L936.7490460937499,170.98248682192514L938.5995698437499,151.71395454641862L940.45458515625,142.15727635513468L942.3058575000001,154.69787196180872L944.16012421875,148.2248060039004L946.0113965625,135.93424431067587L947.8649146875,120.29778792116451L949.7169356249999,104.69430631794319L951.57120234375,98.21833925333762L953.423971875,103.06565067014955L955.2752442187499,100.3614062050066L957.12876234375,101.63355378597429L958.97928609375,107.56533849177978L960.8320556250001,109.2111022173263L962.6833279687501,110.0314728806906L964.5360975000001,107.00357235230872L966.39186140625,111.11354809001311L968.2446309375,113.46428151604945L970.09964625,113.18598272409851L971.9546615625,116.56805466348065L973.8066825,119.76395308725188L975.66094921875,121.69795150324069L977.51446734375,122.10359376136391L979.3679854687499,124.67740469947137L981.2230007812499,123.77699036434214L983.0787646875,130.63872508296515L984.93378,133.48110970270295L986.7872981249999,138.97101367732665L988.6408162500001,143.36011917735695L990.4935857812501,133.93055396135225L992.3486010937501,131.25959438496275L994.20211921875,134.70411839068032L996.0563859375001,139.69797087307577L997.9128984375001,141.89592930073056L999.7671651562499,135.94303385317528L1001.6221804687501,133.7237311479638L1003.47569859375,140.26016993589482L1005.32921671875,140.05472285371718L1007.18123765625,138.18280193705883L1009.0355043750001,131.162876297938L1010.8905196875,118.85366264057375L1012.7440378125,124.71064356628342L1014.5960587500001,122.6505427030022L1016.449576875,124.2815977205089L1018.303095,121.59840210338267L1020.15736171875,116.8139987205678L1022.0131256249999,110.64654656989016L1023.8651465625,107.85988704861714L1025.7216590625,104.11291190500422L1027.5759257812501,109.38062693137044L1029.4286953125002,114.0600640464086L1031.28071625,112.70978513723374L1033.13722875,115.58176334086527L1034.98999828125,113.49703591817311L1036.8457621875,114.48827470262884L1038.6992803125,119.29138411765473L1040.55504421875,122.63975750747267L1042.40781375,132.48352419708533L1044.2605832812499,146.13412407840218L1046.11709578125,155.01495997029693L1047.9683681249999,166.0357154075934L1049.82413203125,163.04196614989766L1051.6783987499998,161.98171184142643L1053.5304196875,156.96076697237342L1055.38468640625,158.8198112468158L1057.23970171875,161.19642468520965L1059.0939684375,161.19717934193284L1060.94823515625,157.29085794661026L1062.8039990625,152.9844541871229L1064.65676859375,149.41441489852014L1066.51178390625,147.9093920618838L1068.366050625,148.72794920448516L1070.22031734375,144.85960769677385L1072.07383546875,141.16774059862263L1073.929599375,142.2455649993665L1075.7846146875,142.12414268522093L1077.636635625,143.0967406411687L1079.49239953125,147.730673933532L1081.34666625,151.3602691247561L1083.2016815625,150.5015500496305L1085.0551996875,148.4567971268382L1086.91096359375,149.62747203277186L1088.76298453125,149.22170011461603L1090.61725125,147.86198249137288L1092.47301515625,149.47778414196358L1094.3295276562499,149.38394806262352L1096.1822971875,149.89240573438855L1098.03806109375,149.272928198495L1099.89307640625,143.15010348014704L1101.74509734375,143.03649096364043L1103.5993640625,143.28554710670855L1105.45512796875,140.22679759143736L1107.3078975,141.17727464904868L1109.1629128125,141.75096973924985L1111.0194253125,142.62398548417949L1112.8729434375,141.88287644512607L1114.72721015625,141.7519358683102L1116.58222546875,139.56028857228551L1118.4364921875,138.27997663182245L1120.2900103125,140.0861825775618L1122.1465228125,140.7021930385905L1124.001538125,139.0479599451458L1125.85505625,140.15510290675564L1127.70932296875,140.2114558668125L1129.56583546875,140.26721031108482L1131.418605,139.68302537355194L1133.2736203125,140.5707180144194L1135.1301328125,143.15667112622037L1136.98290234375,142.38787435094835L1138.8371690625,140.41579985661457L1140.69293296875,141.37412939505325L1142.5471996874999,142.83124545596644L1144.4007178125,140.1802237862156L1146.2572303125,141.30357468553072L1148.112245625,141.92841515616917L1149.96576375,142.46360879680222L1151.82003046875,140.9849433931091L1153.67654296875,139.8756108274798L1155.5293125,139.14729930440674L1157.3843278125,140.50351996600708L1159.2408403125,141.1854986469838L1161.09286125,138.88577370511956L1162.9478765625,139.2466929929328L1164.80364046875,139.39104024724583L1166.65715859375,137.97803389403L1168.5114253125,137.34255430049058L1170.3679378125,136.08602570106027L1172.2222045312499,136.85973579662107L1174.07647125,136.86960669066156L1175.93073796875,136.45826984230897L1177.78725046875,137.2341408604846L1179.64002,138.41596143063384L1181.4950353125,136.8968008453446L1183.35079921875,137.86787557822777L1185.20356875,136.6319044571726L1187.0585840625,135.58621416404324L1188.91434796875,138.88821823592016L1190.76786609375,138.40934341201424L1192.6221328125,139.99357684991784L1194.4786453125,141.17160020304686L1196.3329120312499,139.09959560658777L1198.18717875,138.60655104357477L1200.04144546875,137.46414402314934L1201.8972093749999,136.63490792414424L1203.7507274999998,136.84122734291148L1205.6049942187499,137.34314556103035L1207.460758125,136.93691409557323L1209.31427625,135.4229971349556L1211.1692915625,133.76142280358377L1213.02505546875,134.22298649943912L1214.87857359375,133.43100800068802L1216.7320917187499,131.5999820177317L1218.5886042187499,130.95614352316417L1220.4421223437498,132.15456957176156L1222.29713765625,132.06289587874554L1224.15215296875,133.18376173433498L1226.00716828125,134.16362286776885L1227.86068640625,132.63629965003148L1229.7157017187499,134.48689250694514L1231.571465625,135.40331657891736L1233.42498375,136.02195266612537L1235.27925046875,136.8248682960321L1237.13576296875,136.20910751884938L1238.98928109375,138.1051162899311L1240.8427992187499,136.2884061288335L1242.698563125,132.72493677318718L1244.55282984375,131.42886606950125L1246.40784515625,128.3285085229149L1248.262111875,124.22713909577247L1250.1171271875,125.6445801108604L1251.9698967187499,124.68652170021211L1253.825660625,124.67554210273555L1255.6806759375,126.35588030927981L1257.5356912500001,126.11323454127384L1259.38995796875,126.67224245136937L1261.245721875,124.51366721266731L1263.09924,121.35499153143965L1264.95350671875,123.63149566765465L1266.809270625,124.76722362294902L1268.66353734375,123.97708378890466L1270.51855265625,124.17820602873627L1272.372819375,124.34653082032416L1274.2270860937501,124.35813558130933L1276.08060421875,124.3734941989945L1277.9363681250002,125.52342687486797L1279.7913834375001,125.69991616631533L1281.6463987500001,127.22100711499137L1283.499916875,126.02790156427632L1285.3556807812502,125.33727783655085L1287.20919890625,121.84080549701375L1289.0634656250002,122.25367776495678L1290.9184809375001,122.90712937671444L1292.77349625,123.17822027205082L1294.6285115625,129.20218966809836L1296.4827782812501,126.46001659754624L1298.337045,126.62483656036764L1300.1905631250002,127.23038909381887L1302.0455784375001,125.29031264563606L1303.90134234375,122.93893692480852L1305.7556090625,122.25105371293594L1307.610624375,121.38586292403104L1309.4663882812501,119.26386286340461L1311.31990640625,121.70156019086853L1313.17342453125,117.07602882191944L1315.0291884375001,116.57541355286055L1316.88345515625,116.68631945665999L1318.7392190625,116.77475619952288L1320.5934857812501,113.11037283802393L1322.4477525,113.71567546772603L1324.3012706250001,112.22063073720273L1326.15553734375,110.773895492026L1328.01055265625,107.26838315698265L1329.8655679687502,108.00542180530856L1331.7205832812501,104.94674817139982L1333.57485,98.86937151971746L1335.43061390625,97.56175658541453L1337.2833834375,108.65070800206834L1339.1376501562502,109.64839075388966L1340.991916875,102.37950529777642L1342.84618359375,103.03173309637666L1344.7004503125002,94.55079027946708L1346.5539684375,95.28052010793954L1348.4104809375,93.70512412916287L1350.26549625,91.16290230299063L1352.1205115625,87.99076025869402L1353.9740296875,77.15740521060786L1355.8275478125001,77.69329664864478L1357.68181453125,68.18331195012381L1359.5375784375,59.31805431119402L1361.39334234375,51.49704375617325L1363.2476090625,49.65466296007163L1365.10037859375,48.193940825942754L1366.9546453125001,51.05234857963473L1368.80891203125,50.829733459568864L1370.66317875,47.901499869514964L1372.51969125,46.00475001705877L1374.3747065625,43.536550189085176L1376.2282246875002,43.022860620735976L1378.0817428125001,45.93119818264656L1379.936758125,39.60982503578608L1381.78952765625,43.72989126115033L1383.6452915625,42.34891250719715L1385.500306875,38.43424098957947L1387.3553221875002,38.267717711489844L1389.2088403125001,28.935645721486217L1391.06310703125,22.105602784120684L1392.91737375,21.99487507047122L1394.77164046875,20.857309548505384L1396.6259071875,18.15883772059055L1398.4794253124999,14.065725269419463L1400.334440625,12.808319589706533L1402.1894559375,9.08700037836423L1404.04447125,10.248507203386163L1405.897989375,1.606751283724198L1407.75225609375,2.0458400670077475L1409.6065228124999,4.933011979627177L1411.45854375,2.1405221023780525L1413.312061875,1.6304158564085043L1415.16782578125,7.786392056521194L1417.0220924999999,17.317828296861663L1418.875610625,13.648964222843102L1420.73137453125,17.85519118769112L1422.5871384375,15.90597054827469L1424.43990796875,18.20754808015199L1426.29492328125,19.986719965644394L1428.14844140625,13.92780566604914L1430.0012109375,5.994369466335236L1431.85248328125,10.651906412254284L1433.7045042187501,3.097743633577668L1435.55802234375,1.4244091538607622L1437.410791875,-0.38857290793995714L1439.26356140625,-0.8186317199640238L1441.1193253125,2.991512218110818L1442.9728434375,7.129773924472248L1444.8263615624999,10.953394337865586L1446.68062828125,10.881630711922934" style="fill: none;" fill="none"></path></g></g></g></g><g opacity="0.2"><g><g><g><path stroke="rgb(255, 112, 67)" stroke-width="2px" d="M151.55729625,279.43635907854355L153.3913509375,198.5950257219587L155.22166265625,177.06636097499305L157.05197437500001,170.69609545026503L158.88378328125,200.3906144496373L160.71634078124998,283.7230543300084L162.54889828125,220.63699170793808L164.38145578125,214.47353084019252L166.208773125,185.38544708251953L168.03758765625,207.03867126464843L169.87164234375,287.3372913469587L171.70045687500001,462.43214198521207L173.53376296874998,255.58010031563893L175.36482328124998,527.8797798374721L182.7092765625,771.0079963030133L184.54932,164.97548335484095L186.37813453125,177.5576134599958L188.20919484375,173.9618586077009L190.03875796875,164.12932235717776L191.86832109375,273.1301688929966L193.715101875,1521.6277242606027L195.56038546874998,476.6021521868024L197.40042890625,232.459068472726L199.22999203125002,207.40895555768697L201.06404671875,318.93794690813337L202.89510703125,202.34170318603515L204.72467015625003,151.38962953839984L206.55797625,297.7785885184152L208.39352812500002,134.83509959629606L210.22458843750002,218.30508326939173L212.05639734375,226.34742998395646L213.88820624999997,185.241328931536L215.72001515625,207.52517377580915L217.5638015625,125.08588511875698L219.39710765624997,162.94450794764927L221.22816796875,199.2104842703683L223.06147406250003,76.70958751133509L224.9030146875,419.78477303641176L226.7475496875,511.61218776157926L228.59283328125,334.6613629150391L230.43137953125,78.72710191999163L232.270674375,9.89566652570453L234.1167065625,27.675268549237952L235.97172187500001,327.15198298863004L237.8207484375,535.5165543910435L239.66303765625003,385.84547031947545L241.50906984374998,219.9752496773856L243.34537031250002,174.56895950317383L245.18616234375,121.82501574925013L247.032943125,80.50881464276995L248.88720984375001,6.819581821986608L250.73997937500002,-57.79181409563339L252.59274890624997,-81.43662506103517L254.44701562499998,134.88812179565429L256.30277953125,256.22419019426616L258.1510575,255.7317543247768L259.9940953125,202.1539559500558L261.83638453125,167.24567500523156L263.68840546875,185.53399470738003L265.54416937499997,187.4332939365932L267.39993328125,165.3423078918457L269.2556971875,137.30119068690712L271.1122096875,177.11448527744838L272.9657278125,217.06284184047155L274.8162515625,118.64779687064036L276.66902109375,191.87968035016738L278.52328781250003,236.91380432128906L280.37680593749997,227.1678605869838L282.2273296875,154.03665518624442L284.08009921875004,242.39711495535715L285.9343659375,250.7093390764509L287.78938125,309.52762416294644L289.642899375,405.16159232003355L291.49866328125,296.0128802490234L293.35218140625,486.785405796596L306.27290953125004,424.9207603236607L308.11894171874997,357.9923797607422L309.96796828125,260.68859034946985L311.81849203125,232.56037933349606L313.66677,408.8507934570313L315.5187909375,333.3240398297991L317.3693146875,284.72774775913786L319.2198384375,331.87893014090406L321.07410515624997,368.3812135532924L322.928371875,341.8548613630022L324.78263859375,262.62069562639505L326.635408125,253.76265184674946L328.48817765625,234.03147417340958L330.3439415625,259.72265276227677L332.198956875,254.17954833984376L334.049480625,265.0363778250558L335.90299875,273.56184125627794L337.7550196875,297.36537366594587L339.60778921875,203.49200221470423L341.46280453125,157.93059005737302L343.31931703125,210.73998565673827L345.1750809375,261.6461456298828L347.03084484375,222.14906123570034L348.8851115625,203.66927978515625L350.7356353125,154.96465872628346L352.58990203125,149.64529615129743L354.44641453125,186.30050735473634L356.3021784375,216.06206015450613L358.1586909375,225.79459219796317L360.01295765624997,171.54034166608537L361.8657271875,164.34764857700893L363.717748125,227.63768066406251L365.5727634375,216.41883414132252L367.42852734375003,173.0195311846052L369.28429125,146.9299629211426L371.13706078125,224.1136602783203L372.99207609375003,208.81948412214007L374.8433484375,195.99440682547433L376.69836375,192.1239506312779L378.55487625,146.54022674560548L380.4098915625,163.26025793892995L382.26415828125,169.39417528424943L384.11917359375,199.5797166660854L385.97194312500005,160.7550987243652L387.82471265625,209.9179772077288L389.67972796875006,267.4117592075893L391.53324609375,256.4770564488002L393.3875128125,250.8776919555664L395.24177953124996,216.46850341796875L397.09604625000003,148.03993647984095L398.95031296875,134.3377904837472L400.8030825,175.7665856933594L402.65884640625,218.78374585832867L404.51311312499996,267.80811083112445L406.36737984375003,293.69398903982983L408.22089796875,222.8897120012556L410.07366749999994,242.65704864501953L411.92643703125,294.1606205531529L413.78294953125,263.5477787562779L415.6387134375,267.4593575613839L417.49298015625,242.2781355067662L419.34500109375,237.8155104282924L421.1962734375,134.14683003016881L423.0527859375,188.1032621329171L424.90929843749996,219.39011535644534L426.76581093749996,271.5280470929827L428.62007765625003,227.43670253208705L430.47359578124997,129.56119049072262L432.32561671875,118.63779151916502L434.1798834375,188.77535877772738L436.03639593750006,232.22431457519528L437.89290843749995,216.7949367414202L439.74792375,209.72247222900393L441.6029390625,167.8413776070731L443.45496,102.08950310843329L445.3069809375,262.42002977643693L447.16349343750005,251.9415546090262L449.01925734375004,231.72024209158764L450.86528953125,235.33129054478238L452.7210534375,143.23552695138116L454.57756593749997,152.6782284109933L456.43332984374996,226.39465031215124L458.28984234375,225.60768319266185L460.14560625,138.17308207920618L461.99687859374995,89.97061872209824L463.8481509375,153.03408198765345L465.70391484375,187.94696498325894L467.55967875000005,145.21940529959542L469.41619124999994,124.62894256591798L471.27270375,170.65107753208704L473.12697046875,231.04895080566408L474.97599703125,357.8905100795201L476.8317609375,306.2063076782227L478.68677625000004,306.82691066196986L480.53804859375,194.73533503941124L482.39456109375,200.87749498639786L484.25107359375005,262.9335693359375L486.103843125,192.59973693847655L487.9588584375,164.74605468750002L489.81462234375005,250.75476789202006L491.66814046875,170.84686192103797L493.52165859375,154.52706122262137L495.37817109375004,133.88277093069894L497.23168921875,268.1763242013114L499.08670453125,312.16351449148993L500.94171984375004,187.9662278529576L502.79673515625,102.83375744410925L504.64875609374997,185.47724155970982L506.50526859375003,315.2647214617048L508.3610325,206.3593263898577L510.21380203125,171.99741570608955L512.0695659375,251.6137242344448L513.92458125,242.62634639195034L515.77585359375,152.68169638497488L517.63236609375,172.89867804391042L519.4888785937501,206.17407741001676L521.341648125,211.70674503871376L523.1966634375,156.41334322248184L525.0524273437501,138.2133418055943L526.90744265625,277.4656951904297L528.75946359375,190.01737832205637L530.6159760937501,173.4088893345424L532.4717400000001,234.80889203752793L534.3237609375,198.23742994035993L536.1795248437501,155.23019705636162L538.0337915625,210.39616315569197L539.8858124999999,154.26047921316965L541.7423249999999,126.89606892177035L543.5988375000001,182.5097241646903L545.452355625,176.40673095703127L547.3066223437501,210.37308715820313L549.16238625,213.56132219587056L551.01665296875,206.4634806605748L552.8686739062499,164.82494698660713L554.72518640625,149.95364177158902L556.5809503125,180.52380776541574L558.4344684375001,207.53071267264232L560.28948375,194.2765927559989L562.14375046875,138.59229603358676L563.99577140625,229.7499726649693L565.85228390625,230.69365604945588L567.7080478125,231.73853524344307L569.5615659375001,182.14925210135323L571.41732984375,193.1269511631557L573.27309375,213.6576858520508L575.126611875,177.15423549107143L576.97938140625,157.95699432373047L578.83589390625,182.7254124232701L580.6916578125,162.70718183244978L582.5451759375001,201.16717764718192L584.40019125,206.76545737130303L586.25445796875,141.55441423688617L588.10647890625,212.59201525006978L589.96299140625,239.806784929548L591.8187553125,158.86020431518557L593.6722734375,178.52729021344865L595.52803734375,203.7788579014369L597.3823040625,238.7091793823242L599.23657078125,240.0812643868583L601.0893403125,224.50641244070871L602.9458528125,152.79125806535995L604.8001195312501,194.35275669642857L606.6558834374999,162.62358886718752L608.51089875,169.43072871616909L610.36516546875,210.55386557442802L612.21718640625,168.05782191685265L614.0729503125,168.84444388253348L615.92871421875,213.64294285365514L617.7829809375,217.33219329833983L619.6387448437499,230.1630724661691L621.4930115625,201.3506351143973L623.3472782812499,186.45052599225724L625.2000478125,175.0416805158343L627.0565603125,193.16199249267578L628.9108270312499,224.53810084751672L630.7665909374999,158.2130162702288L632.62160625,223.202585710798L634.47587296875,216.23879534040177L636.32789390625,165.04628097534183L638.1836578125,208.20042611258373L640.03942171875,173.6734004211426L641.8936884374999,148.38874727521622L643.74945234375,217.4296417236328L645.6037190625,163.31518670218333L647.45648859375,192.97526428222656L649.3107553125,180.1970292881557L651.1672678125,198.50681427001953L653.0215345312499,174.3309266444615L654.8772984375,182.08855433872768L656.73231375,205.38074959891182L658.58658046875,156.50920558384487L660.4378528125,196.1398151942662L662.2943653125,177.96101608276365L664.1501292187501,168.31510120936804L666.0043959375,218.93142238071985L667.86015984375,161.56829753330777L669.7144265625001,242.00271920340398L671.56569890625,224.44546813964843L673.4214628125,184.2183587864467L675.2772267187501,224.8268795340402L677.13224203125,187.2668311854771L678.98725734375,194.6685888671875L680.84302125,221.84381378173825L682.6972879687501,184.4981223842076L684.5485603125,206.71516353062222L686.4050728125001,170.0088531276158L688.26083671875,208.38838701520646L690.11435484375,228.81043112618585L691.97011875,167.72672079903737L693.823636875,211.3405532836914L695.67640640625,202.13602438790454L697.5321703125,182.29291004725866L699.38793421875,196.70728092738563L701.24145234375,175.32985107421874L703.09721625,165.4872889273507L704.95298015625,193.7165067400251L706.807246875,190.30808000837052L708.6592678125,173.08308057512554L710.5157803125,194.1721262032645L712.37154421875,191.13436179024833L714.22506234375,195.35787745884485L716.08007765625,178.94098992483956L717.934344375,186.27919821602958L719.78711390625,186.45115055629185L721.64212921875,183.66793707711355L723.49714453125,181.87625187465122L725.35066265625,188.68204398018972L727.2064265625,172.3474181038993L729.0629390625,203.14344617571152L730.91570859375,156.1667883518764L732.768478125,194.79945146833148L734.62424203125,186.77620326450895L736.4785087500001,199.54161825997485L738.33427265625,191.7281824820382L740.1900365625,210.08317439488L742.0428060937501,170.28045630318778L743.89632421875,187.61614327566966L745.7505909375001,182.93870104108538L747.6063548437501,177.78331939697264L749.4606215625,194.75175449916296L751.3163854687499,181.2087901524135L753.1714007812501,153.63687667846682L755.02491890625,197.1445908028739L756.87843703125,182.44503247942242L758.73345234375,164.81525802612305L760.5884676562499,189.75576817103797L762.4442315625,185.27372408185684L764.2999954687499,190.78053804670063L766.1535135937501,170.94615938459123L768.00703171875,196.21910195486888L769.8612984375001,167.64098294939313L771.71706234375,195.7394203404018L773.5713290625,163.4941489519392L775.4270929687499,208.57621643066406L777.2821082812501,160.29723576137L779.13562640625,183.42418452671595L780.98914453125,224.7385530308315L782.8441598437499,163.6498626273019L784.6991751562499,180.6252583312988L786.5549390625,178.80563210623606L788.409954375,170.51903976440428L790.26422109375,207.55199715750558L792.1169906250001,179.50881724766322L793.9712573437499,173.52074382237024L795.8277698437499,186.93661760602677L797.6820365625,161.68206680297848L799.53780046875,193.9316033063616L801.39281578125,179.15841217041014L803.24483671875,194.67376617431643L805.09985203125,186.109777003697L806.9548673437499,171.67133575439453L808.8098826562499,196.08112261090957L810.66489796875,178.1792847769601L812.520661875,183.53054942539762L814.37492859375,192.9648274884905L816.2269495312499,176.5962861415318L818.0819648437499,180.6037108721052L819.9384773437499,184.68149767194475L821.7927440625,201.01971479143413L823.64850796875,186.22290527343753L825.50202609375,167.05065488542832L827.3547956250001,181.9903745160784L829.2098109375,174.58588025774276L831.06482625,154.83578486851283L832.9198415625,172.78073405674525L834.77560546875,173.6628157043457L836.63062078125,176.34503882271903L838.48413890625,194.44882450648714L840.3369084375,179.7339890180315L842.19192375,201.54040396554132L844.04768765625,194.00566345214844L845.90270296875,187.04927745274136L847.7584668750001,182.06247057233537L849.61123640625,170.79977308000838L851.465503125,165.2454675946917L853.31976984375,204.3494957624163L855.17179078125,171.31885153634207L857.02680609375,168.97699938092913L858.8810728125001,185.39642626081192L860.7368367187499,176.418720942906L862.5918520312499,200.9281997244699L864.44611875,166.61619663783483L866.2996368749999,207.94039380754742L868.1546521874999,196.88963718959263L870.0096674999999,156.5536646815709L871.863185625,190.50792406354634L873.7174523437501,183.36429212297713L875.57321625,171.25807159423826L877.42748296875,177.04567640032087L879.2817496874999,168.0861984906878L881.1367650000001,177.42514835902622L882.9895345312501,155.36740391322544L884.8423040624999,164.18951882498604L886.6958221875,158.64694035121371L888.5493403125,180.91593536376953L890.404355625,182.77664311000282L892.260868125,181.95890799386163L894.11363765625,193.97427089146206L895.96865296875,195.6929889351981L897.8229196875,170.16745130266463L899.677935,205.69544769287108L901.53070453125,189.44348615373886L903.3857198437499,196.8373381696429L905.24073515625,173.7103400966099L907.09425328125,169.7574250139509L908.9485199999999,188.66024176461357L910.8020381250001,169.00060954502652L912.6570534375,141.1444701276507L914.5113201562499,157.41940904889788L916.3648382812501,191.81837445940292L918.2191049999999,165.08706665039062L920.0726231250001,140.46039171491353L921.9223982812499,181.5554560634068L923.776665,133.84011156354632L925.6301831249999,142.26840597970144L927.48145546875,115.26444309779575L929.3342250000001,118.09329084123883L931.187743125,143.90496098109654L933.04350703125,172.02246401105612L934.8947793750001,209.50512394496374L936.7490460937499,247.3727700805664L938.5995698437499,-21.70283593314034L940.45458515625,56.1471726335798L942.3058575000001,267.563232421875L944.16012421875,89.96721238272531L946.0113965625,25.319189071655273L947.8649146875,-20.430319584437814L949.7169356249999,-35.73702811104909L951.57120234375,39.93463567188808L953.423971875,146.6914534214565L955.2752442187499,76.02320601872036L957.12876234375,113.0828820146833L958.97928609375,160.951400844029L960.8320556250001,124.02297574724469L962.6833279687501,117.41480885096956L964.5360975000001,79.75246759687153L966.39186140625,148.10332972935268L968.2446309375,134.62088235037666L970.09964625,110.68129359654019L971.9546615625,147.0067021179199L973.8066825,148.5270389011928L975.66094921875,139.10393724714007L977.51446734375,125.75437408447267L979.3679854687499,147.8417031424386L981.2230007812499,115.67326134817941L983.0787646875,192.39433755057198L984.93378,159.06257128034318L986.7872981249999,188.38014944893973L988.6408162500001,182.86206867762976L990.4935857812501,49.064467017309994L992.3486010937501,107.22095819745746L994.20211921875,165.70483444213866L996.0563859375001,184.6426432146345L997.9128984375001,161.67755514962332L999.7671651562499,82.36697482517786L1001.6221804687501,113.75000680106027L1003.47569859375,199.08811902727396L1005.32921671875,138.20569911411832L1007.18123765625,121.33551368713381L1009.0355043750001,67.98354554585048L1010.8905196875,8.070739724295494L1012.7440378125,177.4234718976702L1014.5960587500001,104.1096349334717L1016.449576875,138.9610928780692L1018.303095,97.44964154924664L1020.15736171875,73.75436827523366L1022.0131256249999,55.13947721379145L1023.8651465625,82.7799513571603L1025.7216590625,70.39013561248781L1027.5759257812501,156.79006216866628L1029.4286953125002,156.17499808175222L1031.28071625,100.5572749546596L1033.13722875,141.42956717354912L1034.98999828125,94.73448911394392L1036.8457621875,123.40942376273019L1038.6992803125,162.51936885288782L1040.55504421875,152.77511801583427L1042.40781375,221.0774244035993L1044.2605832812499,268.98952301025395L1046.11709578125,234.94248299734934L1047.9683681249999,265.2225143432617L1049.82413203125,136.09822283063616L1051.6783987499998,152.43942306518554L1053.5304196875,111.77226315089632L1055.38468640625,175.55120971679688L1057.23970171875,182.58594563075476L1059.0939684375,161.20397125244142L1060.94823515625,122.13396538870674L1062.8039990625,114.22682035173689L1064.65676859375,117.28406130109515L1066.51178390625,134.36418653215682L1068.366050625,156.0949634878976L1070.22031734375,110.04453412737166L1072.07383546875,107.94093671526228L1073.929599375,151.94598460606167L1075.7846146875,141.03134185791018L1077.636635625,151.85012224469864L1079.49239953125,189.4360735648019L1081.34666625,184.0266258457729L1083.2016815625,142.77307837350028L1085.0551996875,130.0540208217076L1086.91096359375,160.16354618617464L1088.76298453125,145.5697528512137L1090.61725125,135.62452388218472L1092.47301515625,164.01999899727957L1094.3295276562499,148.53942334856305L1096.1822971875,154.46852478027344L1098.03806109375,143.6976303754534L1099.89307640625,88.04468101501463L1101.74509734375,142.01397831508095L1103.5993640625,145.527052394322L1105.45512796875,112.69805195399694L1107.3078975,149.73156816755022L1109.1629128125,146.91422555106027L1111.0194253125,150.48112718854634L1112.8729434375,135.21289509364536L1114.72721015625,140.57347067696708L1116.58222546875,119.83546290806363L1118.4364921875,126.75716916765487L1120.2900103125,156.34203608921598L1122.1465228125,146.2462871878488L1124.001538125,124.15986210414343L1125.85505625,150.11938956124442L1127.70932296875,140.71863250732423L1129.56583546875,140.76900030953541L1131.418605,134.42536093575612L1133.2736203125,148.55995178222656L1135.1301328125,166.43024913242883L1136.98290234375,135.4687033735003L1138.8371690625,122.6671294076102L1140.69293296875,149.9990952410017L1142.5471996874999,155.94529000418527L1144.4007178125,116.32102875845774L1146.2572303125,151.41373277936663L1148.112245625,147.55197939191547L1149.96576375,147.2803515625L1151.82003046875,127.67695475987026L1153.67654296875,129.89161773681639L1155.5293125,132.59249559674944L1157.3843278125,152.70950592041012L1159.2408403125,147.32330677577428L1161.09286125,118.18824922834123L1162.9478765625,142.49496658325197L1164.80364046875,140.6901655360631L1166.65715859375,125.26097671508788L1168.5114253125,131.6232379586356L1170.3679378125,124.77726830618721L1172.2222045312499,143.82312665666853L1174.07647125,136.95844473702567L1175.93073796875,132.75623820713588L1177.78725046875,144.2169800240653L1179.64002,149.05234656197683L1181.4950353125,123.22435557774136L1183.35079921875,146.60754817417688L1185.20356875,125.50816436767577L1187.0585840625,126.17500152587888L1188.91434796875,168.60625488281252L1190.76786609375,134.09946999686105L1192.6221328125,154.25167779105053L1194.4786453125,151.77381038120814L1196.3329120312499,120.45155423845564L1198.18717875,134.16914997645785L1200.04144546875,127.18248083932059L1201.8972093749999,129.1717830330985L1203.7507274999998,138.69810211181644L1205.6049942187499,141.86040952410013L1207.460758125,133.28083090645927L1209.31427625,121.79774448939732L1211.1692915625,118.80725382123673L1213.02505546875,138.37705976213726L1214.87857359375,126.30320151192801L1216.7320917187499,115.12074817112516L1218.5886042187499,125.16159707205634L1220.4421223437498,142.94040400913784L1222.29713765625,131.23783264160159L1224.15215296875,143.27155443464008L1226.00716828125,142.98237306867327L1227.86068640625,118.89039069039481L1229.7157017187499,151.14222821916852L1231.571465625,143.6511332266671L1233.42498375,141.5896774509975L1235.27925046875,144.05110896519253L1237.13576296875,130.66726052420478L1238.98928109375,155.16919522966657L1240.8427992187499,119.93801467895507L1242.698563125,100.65371257237027L1244.55282984375,119.76422973632812L1246.40784515625,100.4252906036377L1248.262111875,87.31481425149101L1250.1171271875,138.4015492466518L1251.9698967187499,116.06399600437707L1253.825660625,124.57672572544642L1255.6806759375,141.47892416817803L1257.5356912500001,123.92942262922013L1259.38995796875,131.70331364222938L1261.245721875,105.08649006434848L1263.09924,92.92691040039062L1264.95350671875,144.12003289358955L1266.809270625,134.98877522059848L1268.66353734375,116.86582528250557L1270.51855265625,125.988306187221L1272.372819375,125.86145394461495L1274.2270860937501,124.46257843017577L1276.08060421875,124.51172175816129L1277.9363681250002,135.8728209577288L1279.7913834375001,127.28831978934153L1281.6463987500001,140.91082565307616L1283.499916875,115.28995160784038L1285.3556807812502,119.1216642870222L1287.20919890625,90.37255444117953L1289.0634656250002,125.96952817644393L1290.9184809375001,128.7881938825335L1292.77349625,125.61803833007811L1294.6285115625,183.41791423252653L1296.4827782812501,101.78045896257672L1298.337045,128.10821622576034L1300.1905631250002,132.68036189488004L1302.0455784375001,107.82962461199081L1303.90134234375,101.77655543736051L1305.7556090625,116.0601048060826L1307.610624375,113.59914582388741L1309.4663882812501,100.16586231776647L1311.31990640625,143.6408361380441L1313.17342453125,75.44624650137764L1315.0291884375001,112.0698761313302L1316.88345515625,117.68447259085521L1318.7392190625,117.57068688528877L1320.5934857812501,80.13092258453369L1322.4477525,119.16339913504464L1324.3012706250001,98.76522816249302L1326.15553734375,97.75327828543529L1328.01055265625,75.71877214159285L1329.8655679687502,114.63876964024135L1331.7205832812501,77.41868546622142L1333.57485,44.17298165457589L1335.43061390625,85.79322217668808L1337.2833834375,208.45127075195316L1339.1376501562502,118.6275355202811L1340.991916875,36.959536192757746L1342.84618359375,108.9017832837786L1344.7004503125002,18.22230492728096L1346.5539684375,101.84808856419156L1348.4104809375,79.52656032017299L1350.26549625,68.28290586744035L1352.1205115625,59.441481860024574L1353.9740296875,-20.342790222167984L1355.8275478125001,82.51631959097725L1357.68181453125,-17.406550336565324L1361.39334234375,-18.892051239013675L1363.2476090625,33.07323579515728L1365.10037859375,35.04744161878314L1366.9546453125001,76.77801836286272L1368.80891203125,48.826197378975984L1370.66317875,21.54739755902973L1372.51969125,28.934001344953284L1374.3747065625,21.32275173732213L1376.2282246875002,38.39965450559344L1378.0817428125001,72.10623623984202L1379.936758125,-17.282533285958387L1381.78952765625,80.81048728942872L1383.6452915625,29.92010372161864L1385.500306875,3.2021973310198013L1387.3553221875002,36.76900820868358L1389.2088403125001,-55.05300218854631L1391.06310703125,-39.364783652169365L1392.91737375,20.998325647626608L1394.77164046875,10.619219850812646L1396.6259071875,-6.127408730643152L1398.4794253124999,-22.772286791120276L1400.334440625,1.4916684722900406L1402.1894559375,-24.40487252371655L1404.04447125,20.70206862858364L1405.897989375,-76.16905199323382L1407.75225609375,5.997639116559693L1409.6065228124999,30.917559193202422L1411.45854375,-22.991886792864115L1413.312061875,-2.9605403573172184L1415.16782578125,63.19017785753523L1417.0220924999999,103.10075445992604L1418.875610625,-19.37081244332449L1420.73137453125,55.71123387132373L1422.5871384375,-1.6370152064732502L1424.43990796875,38.921745867048L1426.29492328125,35.99926693507605L1428.14844140625,-40.6024230303083L1430.0012109375,-65.40655633108953L1431.85248328125,52.56973892552514L1433.7045042187501,-64.88972137451171L1439.26356140625,-4.689161028180791L1441.1193253125,37.28280766078406L1442.9728434375,44.3741292817252L1444.8263615624999,45.365978058406284L1446.68062828125,10.235758078438879" style="fill: none;" fill="none"></path></g></g></g></g></g></g><g transform="translate(51, 377)" clip-path="url(#clip_1)"><clipPath id="clip_1"><rect width="1497" height="22"></rect></clipPath><g><g><line x1="0" y1="0" x2="0" y2="5" style="visibility: inherit;" fill="rgb(0, 0, 0)" stroke="rgb(204, 204, 204)" stroke-width="1px"></line><line x1="149.71875" y1="0" x2="149.71875" y2="5" style="visibility: inherit;" fill="rgb(0, 0, 0)" stroke="rgb(204, 204, 204)" stroke-width="1px"></line><line x1="299.4375" y1="0" x2="299.4375" y2="5" style="visibility: inherit;" fill="rgb(0, 0, 0)" stroke="rgb(204, 204, 204)" stroke-width="1px"></line><line x1="449.15625" y1="0" x2="449.15625" y2="5" style="visibility: inherit;" fill="rgb(0, 0, 0)" stroke="rgb(204, 204, 204)" stroke-width="1px"></line><line x1="598.875" y1="0" x2="598.875" y2="5" style="visibility: inherit;" fill="rgb(0, 0, 0)" stroke="rgb(204, 204, 204)" stroke-width="1px"></line><line x1="748.59375" y1="0" x2="748.59375" y2="5" style="visibility: inherit;" fill="rgb(0, 0, 0)" stroke="rgb(204, 204, 204)" stroke-width="1px"></line><line x1="898.3125" y1="0" x2="898.3125" y2="5" style="visibility: inherit;" fill="rgb(0, 0, 0)" stroke="rgb(204, 204, 204)" stroke-width="1px"></line><line x1="1048.03125" y1="0" x2="1048.03125" y2="5" style="visibility: inherit;" fill="rgb(0, 0, 0)" stroke="rgb(204, 204, 204)" stroke-width="1px"></line><line x1="1197.75" y1="0" x2="1197.75" y2="5" style="visibility: inherit;" fill="rgb(0, 0, 0)" stroke="rgb(204, 204, 204)" stroke-width="1px"></line><line x1="1347.46875" y1="0" x2="1347.46875" y2="5" style="visibility: inherit;" fill="rgb(0, 0, 0)" stroke="rgb(204, 204, 204)" stroke-width="1px"></line><line x1="1497.1875" y1="0" x2="1497.1875" y2="5" style="visibility: inherit;" fill="rgb(0, 0, 0)" stroke="rgb(204, 204, 204)" stroke-width="1px"></line></g><g transform="translate(0, 8)"><text x="0" y="0" dx="0em" dy="0.95em" style="text-anchor: middle; visibility: hidden; font-family: Roboto, sans-serif; font-size: 12px; font-weight: 200;" fill="rgb(255, 255, 255)" stroke="none" stroke-width="1px">-200k</text><text x="149.71875" y="0" dx="0em" dy="0.95em" style="text-anchor: middle; visibility: inherit; font-family: Roboto, sans-serif; font-size: 12px; font-weight: 200;" fill="rgb(255, 255, 255)" stroke="none" stroke-width="1px">0</text><text x="299.4375" y="0" dx="0em" dy="0.95em" style="text-anchor: middle; visibility: inherit; font-family: Roboto, sans-serif; font-size: 12px; font-weight: 200;" fill="rgb(255, 255, 255)" stroke="none" stroke-width="1px">200k</text><text x="449.15625" y="0" dx="0em" dy="0.95em" style="text-anchor: middle; visibility: inherit; font-family: Roboto, sans-serif; font-size: 12px; font-weight: 200;" fill="rgb(255, 255, 255)" stroke="none" stroke-width="1px">400k</text><text x="598.875" y="0" dx="0em" dy="0.95em" style="text-anchor: middle; visibility: inherit; font-family: Roboto, sans-serif; font-size: 12px; font-weight: 200;" fill="rgb(255, 255, 255)" stroke="none" stroke-width="1px">600k</text><text x="748.59375" y="0" dx="0em" dy="0.95em" style="text-anchor: middle; visibility: inherit; font-family: Roboto, sans-serif; font-size: 12px; font-weight: 200;" fill="rgb(255, 255, 255)" stroke="none" stroke-width="1px">800k</text><text x="898.3125" y="0" dx="0em" dy="0.95em" style="text-anchor: middle; visibility: inherit; font-family: Roboto, sans-serif; font-size: 12px; font-weight: 200;" fill="rgb(255, 255, 255)" stroke="none" stroke-width="1px">1M</text><text x="1048.03125" y="0" dx="0em" dy="0.95em" style="text-anchor: middle; visibility: inherit; font-family: Roboto, sans-serif; font-size: 12px; font-weight: 200;" fill="rgb(255, 255, 255)" stroke="none" stroke-width="1px">1.2M</text><text x="1197.75" y="0" dx="0em" dy="0.95em" style="text-anchor: middle; visibility: inherit; font-family: Roboto, sans-serif; font-size: 12px; font-weight: 200;" fill="rgb(255, 255, 255)" stroke="none" stroke-width="1px">1.4M</text><text x="1347.46875" y="0" dx="0em" dy="0.95em" style="text-anchor: middle; visibility: inherit; font-family: Roboto, sans-serif; font-size: 12px; font-weight: 200;" fill="rgb(255, 255, 255)" stroke="none" stroke-width="1px">1.6M</text><text x="1497.1875" y="0" dx="0em" dy="0.95em" style="text-anchor: middle; visibility: hidden; font-family: Roboto, sans-serif; font-size: 12px; font-weight: 200;" fill="rgb(255, 255, 255)" stroke="none" stroke-width="1px">1.8M</text></g><line x1="0" y1="0" x2="1497.1875" y2="0" fill="rgb(0, 0, 0)" stroke="rgb(204, 204, 204)" stroke-width="1px"></line></g></g></g></g></svg>