<svg viewBox="0 0 1570 400" xmlns="http://www.w3.org/2000/svg"><g><g><g><g><g><line x1="51.5625" y1="377" x2="46.5625" y2="377" style="visibility: inherit;" fill="rgb(0, 0, 0)" stroke="rgb(204, 204, 204)" stroke-width="1px"></line><line x1="51.5625" y1="348" x2="46.5625" y2="348" style="visibility: inherit;" fill="rgb(0, 0, 0)" stroke="rgb(204, 204, 204)" stroke-width="1px"></line><line x1="51.5625" y1="319" x2="46.5625" y2="319" style="visibility: inherit;" fill="rgb(0, 0, 0)" stroke="rgb(204, 204, 204)" stroke-width="1px"></line><line x1="51.5625" y1="290" x2="46.5625" y2="290" style="visibility: inherit;" fill="rgb(0, 0, 0)" stroke="rgb(204, 204, 204)" stroke-width="1px"></line><line x1="51.5625" y1="261" x2="46.5625" y2="261" style="visibility: inherit;" fill="rgb(0, 0, 0)" stroke="rgb(204, 204, 204)" stroke-width="1px"></line><line x1="51.5625" y1="232" x2="46.5625" y2="232" style="visibility: inherit;" fill="rgb(0, 0, 0)" stroke="rgb(204, 204, 204)" stroke-width="1px"></line><line x1="51.5625" y1="203" x2="46.5625" y2="203" style="visibility: inherit;" fill="rgb(0, 0, 0)" stroke="rgb(204, 204, 204)" stroke-width="1px"></line><line x1="51.5625" y1="174" x2="46.5625" y2="174" style="visibility: inherit;" fill="rgb(0, 0, 0)" stroke="rgb(204, 204, 204)" stroke-width="1px"></line><line x1="51.5625" y1="145" x2="46.5625" y2="145" style="visibility: inherit;" fill="rgb(0, 0, 0)" stroke="rgb(204, 204, 204)" stroke-width="1px"></line><line x1="51.5625" y1="116" x2="46.5625" y2="116" style="visibility: inherit;" fill="rgb(0, 0, 0)" stroke="rgb(204, 204, 204)" stroke-width="1px"></line><line x1="51.5625" y1="86.99999999999999" x2="46.5625" y2="86.99999999999999" style="visibility: inherit;" fill="rgb(0, 0, 0)" stroke="rgb(204, 204, 204)" stroke-width="1px"></line><line x1="51.5625" y1="58" x2="46.5625" y2="58" style="visibility: inherit;" fill="rgb(0, 0, 0)" stroke="rgb(204, 204, 204)" stroke-width="1px"></line><line x1="51.5625" y1="28.999999999999982" x2="46.5625" y2="28.999999999999982" style="visibility: inherit;" fill="rgb(0, 0, 0)" stroke="rgb(204, 204, 204)" stroke-width="1px"></line><line x1="51.5625" y1="0" x2="46.5625" y2="0" style="visibility: inherit;" fill="rgb(0, 0, 0)" stroke="rgb(204, 204, 204)" stroke-width="1px"></line></g><g transform="translate(41.5625, 0)"><text x="0" y="377" dx="0em" dy="0.3em" style="text-anchor: end; visibility: hidden; font-family: Roboto, sans-serif; font-size: 12px; font-weight: 200;" fill="rgb(255, 255, 255)" stroke="none" stroke-width="1px">-450</text><text x="0" y="348" dx="0em" dy="0.3em" style="text-anchor: end; visibility: inherit; font-family: Roboto, sans-serif; font-size: 12px; font-weight: 200;" fill="rgb(255, 255, 255)" stroke="none" stroke-width="1px">-400</text><text x="0" y="319" dx="0em" dy="0.3em" style="text-anchor: end; visibility: inherit; font-family: Roboto, sans-serif; font-size: 12px; font-weight: 200;" fill="rgb(255, 255, 255)" stroke="none" stroke-width="1px">-350</text><text x="0" y="290" dx="0em" dy="0.3em" style="text-anchor: end; visibility: inherit; font-family: Roboto, sans-serif; font-size: 12px; font-weight: 200;" fill="rgb(255, 255, 255)" stroke="none" stroke-width="1px">-300</text><text x="0" y="261" dx="0em" dy="0.3em" style="text-anchor: end; visibility: inherit; font-family: Roboto, sans-serif; font-size: 12px; font-weight: 200;" fill="rgb(255, 255, 255)" stroke="none" stroke-width="1px">-250</text><text x="0" y="232" dx="0em" dy="0.3em" style="text-anchor: end; visibility: inherit; font-family: Roboto, sans-serif; font-size: 12px; font-weight: 200;" fill="rgb(255, 255, 255)" stroke="none" stroke-width="1px">-200</text><text x="0" y="203" dx="0em" dy="0.3em" style="text-anchor: end; visibility: inherit; font-family: Roboto, sans-serif; font-size: 12px; font-weight: 200;" fill="rgb(255, 255, 255)" stroke="none" stroke-width="1px">-150</text><text x="0" y="174" dx="0em" dy="0.3em" style="text-anchor: end; visibility: inherit; font-family: Roboto, sans-serif; font-size: 12px; font-weight: 200;" fill="rgb(255, 255, 255)" stroke="none" stroke-width="1px">-100</text><text x="0" y="145" dx="0em" dy="0.3em" style="text-anchor: end; visibility: inherit; font-family: Roboto, sans-serif; font-size: 12px; font-weight: 200;" fill="rgb(255, 255, 255)" stroke="none" stroke-width="1px">-50</text><text x="0" y="116" dx="0em" dy="0.3em" style="text-anchor: end; visibility: inherit; font-family: Roboto, sans-serif; font-size: 12px; font-weight: 200;" fill="rgb(255, 255, 255)" stroke="none" stroke-width="1px">0</text><text x="0" y="86.99999999999999" dx="0em" dy="0.3em" style="text-anchor: end; visibility: inherit; font-family: Roboto, sans-serif; font-size: 12px; font-weight: 200;" fill="rgb(255, 255, 255)" stroke="none" stroke-width="1px">50</text><text x="0" y="58" dx="0em" dy="0.3em" style="text-anchor: end; visibility: inherit; font-family: Roboto, sans-serif; font-size: 12px; font-weight: 200;" fill="rgb(255, 255, 255)" stroke="none" stroke-width="1px">100</text><text x="0" y="28.999999999999982" dx="0em" dy="0.3em" style="text-anchor: end; visibility: inherit; font-family: Roboto, sans-serif; font-size: 12px; font-weight: 200;" fill="rgb(255, 255, 255)" stroke="none" stroke-width="1px">150</text><text x="0" y="0" dx="0em" dy="0.3em" style="text-anchor: end; visibility: hidden; font-family: Roboto, sans-serif; font-size: 12px; font-weight: 200;" fill="rgb(255, 255, 255)" stroke="none" stroke-width="1px">200</text></g><line x1="51.5625" y1="0" x2="51.5625" y2="377" fill="rgb(0, 0, 0)" stroke="rgb(204, 204, 204)" stroke-width="1px"></line></g></g><g transform="translate(51, 0)" clip-path="url(#clip_0)"><clipPath id="clip_0"><rect width="1518" height="376"></rect></clipPath><g><g><g><line x1="0" y1="0" x2="0" y2="377" fill="rgb(0, 0, 0)" stroke="rgb(189, 189, 189)" stroke-width="1px" opacity="0.25"></line><line x1="151.84375" y1="0" x2="151.84375" y2="377" fill="rgb(0, 0, 0)" stroke="rgb(189, 189, 189)" stroke-width="1px" opacity="0.25"></line><line x1="303.6875" y1="0" x2="303.6875" y2="377" fill="rgb(0, 0, 0)" stroke="rgb(189, 189, 189)" stroke-width="1px" opacity="0.25"></line><line x1="455.53125" y1="0" x2="455.53125" y2="377" fill="rgb(0, 0, 0)" stroke="rgb(189, 189, 189)" stroke-width="1px" opacity="0.25"></line><line x1="607.375" y1="0" x2="607.375" y2="377" fill="rgb(0, 0, 0)" stroke="rgb(189, 189, 189)" stroke-width="1px" opacity="0.25"></line><line x1="759.21875" y1="0" x2="759.21875" y2="377" fill="rgb(0, 0, 0)" stroke="rgb(189, 189, 189)" stroke-width="1px" opacity="0.25"></line><line x1="911.0625" y1="0" x2="911.0625" y2="377" fill="rgb(0, 0, 0)" stroke="rgb(189, 189, 189)" stroke-width="1px" opacity="0.25"></line><line x1="1062.90625" y1="0" x2="1062.90625" y2="377" fill="rgb(0, 0, 0)" stroke="rgb(189, 189, 189)" stroke-width="1px" opacity="0.25"></line><line x1="1214.75" y1="0" x2="1214.75" y2="377" fill="rgb(0, 0, 0)" stroke="rgb(189, 189, 189)" stroke-width="1px" opacity="0.25"></line><line x1="1366.59375" y1="0" x2="1366.59375" y2="377" fill="rgb(0, 0, 0)" stroke="rgb(189, 189, 189)" stroke-width="1px" opacity="0.25"></line><line x1="1518.4375" y1="0" x2="1518.4375" y2="377" fill="rgb(0, 0, 0)" stroke="rgb(189, 189, 189)" stroke-width="1px" opacity="0.25"></line></g><g><line x1="0" y1="377" x2="1518.4375" y2="377" fill="rgb(0, 0, 0)" stroke="rgb(189, 189, 189)" stroke-width="1px" opacity="0.25"></line><line x1="0" y1="348" x2="1518.4375" y2="348" fill="rgb(0, 0, 0)" stroke="rgb(189, 189, 189)" stroke-width="1px" opacity="0.25"></line><line x1="0" y1="319" x2="1518.4375" y2="319" fill="rgb(0, 0, 0)" stroke="rgb(189, 189, 189)" stroke-width="1px" opacity="0.25"></line><line x1="0" y1="290" x2="1518.4375" y2="290" fill="rgb(0, 0, 0)" stroke="rgb(189, 189, 189)" stroke-width="1px" opacity="0.25"></line><line x1="0" y1="261" x2="1518.4375" y2="261" fill="rgb(0, 0, 0)" stroke="rgb(189, 189, 189)" stroke-width="1px" opacity="0.25"></line><line x1="0" y1="232" x2="1518.4375" y2="232" fill="rgb(0, 0, 0)" stroke="rgb(189, 189, 189)" stroke-width="1px" opacity="0.25"></line><line x1="0" y1="203" x2="1518.4375" y2="203" fill="rgb(0, 0, 0)" stroke="rgb(189, 189, 189)" stroke-width="1px" opacity="0.25"></line><line x1="0" y1="174" x2="1518.4375" y2="174" fill="rgb(0, 0, 0)" stroke="rgb(189, 189, 189)" stroke-width="1px" opacity="0.25"></line><line x1="0" y1="145" x2="1518.4375" y2="145" fill="rgb(0, 0, 0)" stroke="rgb(189, 189, 189)" stroke-width="1px" opacity="0.25"></line><line x1="0" y1="116" x2="1518.4375" y2="116" fill="rgb(0, 0, 0)" stroke="rgb(189, 189, 189)" stroke-width="1px" opacity="0.25"></line><line x1="0" y1="86.99999999999999" x2="1518.4375" y2="86.99999999999999" fill="rgb(0, 0, 0)" stroke="rgb(189, 189, 189)" stroke-width="1px" opacity="0.25"></line><line x1="0" y1="58" x2="1518.4375" y2="58" fill="rgb(0, 0, 0)" stroke="rgb(189, 189, 189)" stroke-width="1px" opacity="0.25"></line><line x1="0" y1="28.999999999999982" x2="1518.4375" y2="28.999999999999982" fill="rgb(0, 0, 0)" stroke="rgb(189, 189, 189)" stroke-width="1px" opacity="0.25"></line><line x1="0" y1="0" x2="1518.4375" y2="0" fill="rgb(0, 0, 0)" stroke="rgb(189, 189, 189)" stroke-width="1px" opacity="0.25"></line></g></g></g><g><g><line x1="0" y1="116" x2="1518.4375" y2="116" fill="rgb(0, 0, 0)" stroke="rgb(153, 153, 153)" stroke-width="1.5px"></line></g></g><g><g><line x1="151.84375" y1="0" x2="151.84375" y2="377" fill="rgb(0, 0, 0)" stroke="rgb(153, 153, 153)" stroke-width="1.5px"></line></g></g><g><g><g><g><g><path stroke="rgb(255, 112, 67)" stroke-width="2px" d="M153.70839125,309.6478540039062L155.56695875,236.5918355560303L157.42324859375,218.77306812519927L159.28029765625,204.41109663009644L161.1381059375,218.3468905156789L162.99743265625,256.18312708505374L164.85524093749999,267.3758462624079L166.7077346875,288.90902674034226L168.5663021875,276.29071666253566L170.4218328125,247.8742827132651L172.27964109375,228.9248018158155L174.1389678125,209.71865356335573L175.99905375,203.009763724581L177.8591396875,210.75819414349263L179.73061390625,275.2585853984379L181.59753281250002,324.11525089176024L183.46445171875,292.44016509978815L185.3359259375,234.97559450354188L187.1944934375,220.82606467717324L189.0515425,208.97186933857026L190.91086921874998,218.5279434168847L192.76867750000002,223.4953614614304L194.63104109375,237.14325617696227L196.50327453125,300.14289528889793L198.37626718750002,283.42594355281346L200.24318609375,233.85719141532127L202.100994375,212.40172257722705L203.95880265625001,198.90295482225065L205.824203125,191.9345653697471L207.69719578125,142.58199302075428L209.5732253125,167.47857460312474L211.44773640625002,181.03810091915662L213.3146553125,242.5381515741798L215.18005578125,248.31469384438765L217.05001156249998,217.1178605091065L218.9116159375,242.14363990343415L220.76942421875,209.24837770820963L222.6408984375,174.00900841241017L224.51616875,319.28648447267454L226.37853234375,336.1484595538013L228.2408959375,268.2075442446833L230.09946343750002,228.7289939350383L231.95954937500002,191.9222895999072L233.8226721875,190.7979302783042L235.68807265625,227.11090660825715L237.55726921874998,279.9659052963757L239.42950265625,250.58265181930403L241.30401375,192.18966721636997L243.183839375,159.58082634561805L245.06138734375,192.742514606467L246.94424984375001,324.5740121824883L248.82711234375,289.466121054508L250.709215625,241.68150606767998L252.57993062499997,209.53300093061335L254.456719375,197.78138442066535L256.33047124999996,193.89885744683136L258.20801921875,203.7100521389995L260.0901225,202.2814269132823L261.97222578125,207.67058698293076L263.85508828125,209.03799745343042L265.7371915625,215.7628005472537L267.61625796875,206.50897048948488L269.4922875,197.908974945058L271.37439078125,189.30871986693714L273.2564940625,185.0527122668419L275.1393565625,227.55590006518335L277.02221906249997,231.44320507817253L278.9020446875,218.75102509768473L280.77807421875,202.86038904542724L282.65941828125,208.0278515913189L284.540003125,194.21454994404914L286.42210640625,210.66156883361697L288.3042096875,240.47479921032644L290.18479453125,256.6129669285396L292.06158328125,271.68468494228L293.9376128125,287.7553517368524L295.81516078125003,284.88777061242394L297.69043109374996,278.21768800222L299.56570140625,247.9314572837539L301.443249375,244.72650840345543L303.320038125,239.74041407527636L305.1983453125,254.08249502719707L307.07437484375004,254.1871964792089L308.95571890625,231.7339847576425L310.83706296875,216.20008763192922L312.71840703125,201.0123983433177L314.5974734375,215.42687552942817L316.47805828125,218.33763288601622L318.3571246875,216.31571217789877L320.23011734375,248.2895728145518L322.10235078125,257.39887430396544L323.97989875,253.26061950425427L325.859724375,259.5990050033338L327.73955,241.35424113676595L329.619375625,229.91912292912988L331.502238125,221.17080407974356L333.3835821875,211.78213711093207L335.26113015625003,199.984613809528L337.14247421875,192.00837955280662L339.02381828125004,189.8471708591254L340.904403125,219.9058655037565L342.78726562500003,227.63808888233203L344.670128125,235.47120013115702L346.54919453125,217.3462313701981L348.42902015625,203.560615836279L350.31036421875,190.59423607891586L352.19018984375,188.14274580994717L354.072293125,211.97153200745268L355.955155625,218.64277015662006L357.83422203124996,220.980363632058L359.708733125,221.99427652884415L361.5870403125,222.84794543390808L363.46306984375,223.22911223104796L365.339099375,221.5402368698788L367.22120265625,199.6915179153843L369.10406515625,203.17297874239463L370.98692765625,226.57647645442117L372.86979015624996,238.77274915390268L374.74961578125,220.59586299331818L376.62640453125,216.2288418926706L378.50623015625,215.45359139048517L380.38909265625,212.65193742706455L382.27195515625004,205.45624741717623L384.15481765625,210.41144180968072L386.0369209375,201.31006930944125L387.91522812499994,194.52229048703197L389.792016875,198.31275795921135L391.67412015625,199.72525487318305L393.55698265625,183.79534323152706L395.43984515625,177.56063092670922L397.32270765625,209.37789405895523L399.2017740625,216.70235508771688L401.0785628125,194.35621029384106L402.95914765624997,184.87471348099214L404.84201015625,200.20357247336088L406.72487265625006,193.88744371595016L408.60773515625,192.37362394441385L410.4898384375,200.70622881000767L412.36738640625003,199.80071274987182L414.244934375,191.17444431252076L416.12703765625,186.88632149473898L418.00990015625,187.700077503777L419.89276265625,186.12168993488336L421.77562515625,180.50412101659413L423.65393234375,188.7127500757768L425.53148031250004,184.95732692534887L427.41206515625,178.95681955608822L429.29492765625,190.07161321802792L431.17779015624996,185.00101187612924L433.06065265625,175.22196027509162L434.9427559375,180.73509999317994L436.81878546875,190.0463484480564L438.697851875,194.70503026024008L440.57995515625004,191.0498456707925L442.46281765625,187.49249767347158L444.34568015625,186.52189795711033L446.22854265625,181.43801029526227L448.10684984375,179.64274898721595L449.982879375,176.53596921654832L451.86498265625,191.68318736488996L453.74784515625004,194.18465607127771L455.63070765624997,179.05368683124323L457.51357015625,179.20095330968343L459.39491421875,215.9524711557319L461.27018453125,206.04008242488447L463.15001015625,185.91885139584863L465.0321134375,197.75433830332952L466.9149759375,199.36427937359926L468.7978384375,176.8612010470111L470.6807009375,176.07300077957387L472.55976734375,209.55422014547872L474.4342784375,198.00325968738488L476.31638171875,193.21566906926685L478.198485,195.2515948009351L480.0813475,192.79190609931106L481.96421000000004,187.48046409415696L483.84631328124993,178.32762946967776L485.72310203125,185.39660856559576L487.60140921874995,184.8817464503926L489.48427171875,175.79721571691525L491.36485656250005,179.6117406239968L493.2477190625,191.81534210389026L495.1305815625,191.033937623174L497.01040718750005,183.17502266911924L498.8871959375,195.03094878213562L500.76929921875,200.2842103825626L502.6498840625,190.07111448637352L504.53122812500004,187.1977122098905L506.414090625,195.08843286792649L508.2954346875,186.82531625151765L510.173741875,181.89947301507073L512.05432671875,197.43993661665962L513.93567078125,196.41603985085513L515.816255625,185.83864063414592L517.699118125,191.3661682672063L519.58122140625,195.32263894860506L521.46180625,188.67209447756144L523.3401134375,185.49736270460326L525.2214574999999,182.88975685616043L527.10204234375,183.11241038811033L528.98338640625,182.08174030024898L530.86624890625,176.2804714872783L532.74683375,179.44200054373414L534.626659375,182.01340339020535L536.506485,176.26515763470917L538.3878290625,183.05991147535673L540.26841390625,185.92845463667888L542.1505171875,185.64087563845263L544.03262046875,191.9499344406888L545.91396453125,190.90321463169843L547.7930309375,189.38497620333544L549.67361578125,187.29154150813406L551.554200625,186.58410709482186L553.4355446874999,188.16647158111186L555.3184071875,192.14237586858897L557.19975125,183.12093376089948L559.0788176562501,185.22012165790687L560.9594025,182.1923355679863L562.8407465624999,182.82515854294022L564.7205721875,185.5866932702954L566.6034346875,182.7787150588569L568.48553796875,187.96055252164228L570.3661228125,183.04978854423538L572.2459484375,183.5538026919709L574.12653328125,184.9042025746552L576.007118125,183.4989975579767L577.8884621875,183.35213828087979L579.76980625,187.30515076637943L581.6511503125,193.10894824791362L583.53021671875,189.80674187355285L585.4108015625001,183.65715480430748L587.292145625,187.90872794117823L589.1734896875,190.25369111041007L591.05483375,185.0662913264023L592.9361778125,190.50204396088046L594.8160034375,194.2039649019189L596.69506984375,188.45255478343648L598.57641390625,186.62347140765954L600.45623953125,200.26479524693949L602.3383428125001,198.6656649899606L604.2204460937501,197.7847792429998L606.10179015625,196.14768810244047L607.9808565625,192.87774512464793L609.8614414062499,179.75826829060907L611.74126703125,173.802805334717L613.6233703125,173.49788986586927L615.5047143749999,174.95884268416998L617.38529921875,180.7213975294473L619.26512484375,189.3692896895434L621.1457096875,204.0872649758354L623.02629453125,215.72816855581374L624.9083978125,209.1810352887617L626.79050109375,196.34921724259294L628.6710859374999,191.46935511362216L630.5524300000001,194.98680642754832L632.4314964062501,192.36885766023994L634.3135996875,188.82581935688614L636.1934253125,185.76907407262777L638.0755285937499,182.5015464943579L639.95687265625,180.99294779407566L641.8374575,177.6253391720509L643.717283125,178.9238349729571L645.5986271875,179.01644099842267L647.47921203125,177.53007333928804L649.36055609375,181.8353256808189L651.242659375,180.54064749589367L653.1240034374999,188.05482978171588L655.0053475,184.52668406287717L656.88441390625,183.6641227424138L658.7665171875,182.90135682415925L660.6463428125,182.63081665797208L662.52844609375,181.53215753628717L664.40979015625,184.33152535673324L666.2896157812501,189.62513652751647L668.16792296875,185.91474842041617L670.04926703125,189.22429058057L671.92909265625,180.87090875996307L673.80739984375,163.43166369469856L675.68874390625,146.1882821866983L677.5678103125,146.25768220264393L679.4461175,142.21978119658638L681.3244246875,149.72214368133072L683.2042503125,157.66404902618123L685.08483515625,169.0650290861189L686.96314234375,176.0128484453237L688.84296796875,163.07053822979188L690.72127515625,155.91582388392L692.6003415625,145.6592516545708L694.47788953125,146.803936948553L696.358474375,152.51321483026462L698.2352631250001,129.57274585372517L700.1150887499999,123.45930060175844L701.994914375,151.9783667380082L703.8717031250001,161.7133491443674L705.75228796875,144.54095064110038L707.63059515625,161.30123871962118L709.50890234375,146.33943291377958L711.38796875,146.8553885385509L713.26551671875,129.82853747493718L715.14382390625,142.53350450400532L717.021371875,131.6844458420516L718.89891984375,132.63396410557274L720.77570859375,138.06306013448625L722.65401578125,149.30079506506675L724.5330821875,165.76934642380564L726.41214859375,166.67428693143185L728.29197421875,166.3775911407927L730.1748367187499,184.92968139346L732.0554215625,173.45829412660336L733.9352471875,171.93713058973154L735.81431359375,170.3570094329405L737.69565765625,171.2844299639635L739.57548328125,178.57544374497968L741.4545496874999,182.60755677433153L743.33513453125,194.74222815639578L745.2126825,192.83918021659136L747.0932673437501,182.12340961921262L748.9738521875,151.01126650517014L750.85595546875,135.5800675202896L752.7342626562499,119.14122407540619L754.61408828125,117.8160623544749L756.49391390625,117.10553466679434L758.37222109375,127.29650692678557L760.2505282812501,147.10565794025104L762.131113125,163.33107890721703L764.01017953125,141.68016948483313L765.89000515625,127.30591593040188L767.76983078125,139.50703924329972L769.65117484375,149.47922903914386L771.53024125,138.12505624520264L773.40930765625,125.80466331712888L775.2883740625,126.46738089127834L777.1659220312499,159.0365054390639L779.0480253125,159.0677274821883L780.92861015625,177.06352247564112L782.8084357812501,177.30539772610732L784.68674296875,189.24202305949254L786.56505015625,188.73253890893767L788.44487578125,191.8723719781751L790.3277382812499,181.219347381241L792.2068046875,166.5099550779145L794.08435265625,136.1623141417194L795.96265984375,131.5174719963842L797.8432446875,97.77147501911958L799.7207926562501,138.15219299487018L801.59909984375,163.6491047373518L803.47740703125,174.23576069397356L805.3557142187501,187.53587743689195L807.23553984375,192.63770810276014L809.11460625,191.235321700035L810.9944318749999,182.39404763427882L812.87653515625,185.4081024086923L814.7586384374999,186.07438592031303L816.6384640625,183.13904805609405L818.51904890625,185.17190875309004L820.39887453125,181.00548228798684L822.27870015625,167.457169804921L824.1600442187499,161.56675699159518L826.0421475,167.3156732135118L827.9234915625001,171.1877744115055L829.8033171874999,164.2169174545205L831.6831428124999,160.33409236724358L833.56145,164.01910953411564L835.4427940625,161.22332576685614L837.3248973437501,157.0326047740785L839.207000625,153.91942590155645L841.0883446875,165.01314681290657L842.9689295312501,165.94971523618145L844.8479959375001,164.9985214634862L846.7278215625,178.35170101285735L848.60992484375,188.6068925559566L850.492028125,179.77833206677707L852.3718537499999,176.5527133513944L854.2516793750001,179.598019551364L856.1330234375,190.76481929917776L858.0128490625,193.69535935294417L859.8941931249999,191.30307785541882L861.7740187500001,193.4417978851263L863.6538443750001,195.33936120177893L865.5336699999999,193.45396950427045L867.41425484375,197.64663463224977L869.2940804687499,189.4338532769085L871.1769429687499,191.3350207063794L873.0567685937501,191.1478808320308L874.9373534375,190.0153116291013L876.81793828125,182.87562008292952L878.69928234375,181.29505863423037L880.581385625,182.13076870104604L882.46121125,179.049027382737L884.34407375,177.26041282856798L886.22314015625,173.26656318786343L888.10296578125,172.634766403929L889.9850690624999,173.4714935093496L891.86717234375,176.93881694301209L893.74623875,171.55425806131504L895.6291012500001,169.31391238073434L897.5074084375,167.88412806808904L899.38799328125,167.4565987890956L901.2700965625,161.61209947121128L903.1514406250001,170.32190653331273L905.0327846875,170.63742913727282L906.91412875,169.8578039179106L908.7947135937501,166.40331021939866L910.6737800000001,160.66607353398297L912.5551240625001,167.8463515178507L914.43722734375,167.2739850440112L916.3193306250001,165.80606290140676L918.19915625,174.3788281705315L920.0805003125,171.71732601608844L921.95956671875,178.66275492361788L923.84091078125,171.95806909186607L925.7230140624999,165.69001259769777L927.6043581250001,165.65990727785695L929.4857021875,164.41246109034697L931.36704625,170.01971932998944L933.246871875,167.36396526498584L935.12593828125,169.43738440801494L937.0080415625001,173.39174998074648L938.889385625,174.92145770329162L940.7722481249999,177.9190322757836L942.65207375,173.29393010765764L944.53265859375,169.76330587953598L946.4117249999999,169.13613916737L948.2930690625001,173.31264974798063L950.1759315625,172.08556012466727L952.0572756250001,165.6474875640582L953.9371012500001,171.659894515974L955.81920453125,168.65284649962345L957.69903015625,168.51203602477406L959.5780965625,170.5862814903527L961.4609590624999,169.2126105690163L963.3423031250001,170.07910589219102L965.2251656249999,169.73524063492403L967.1042320312499,166.5154437583958L968.984816875,171.39797090591637L970.86388328125,172.9510368160108L972.7459865625001,171.590069172126L974.6288490625,170.23273522886151L976.5101931249999,171.73131850548097L978.3892595312499,167.1659367331714L980.27212203125,168.08113778453173L982.1511884375,163.85859551251593L984.0310140625,165.14820790565412L985.9138765624999,169.62000634739636L987.795220625,170.93159816878938L989.678083125,169.81107224355878L991.5571495312499,171.34809152728764L993.437734375,171.66779375914598L995.31680078125,168.3012333233587L997.1989040624999,166.51619281383944L999.0817665625,166.83625871808883L1000.9631106249999,169.8032393006775L1002.8421770312499,170.2161725232776L1004.72503953125,175.6970359114275L1006.6041059375,168.8643698622862L1008.4839315625001,165.46993185389516L1010.3667940624999,170.66851239602852L1012.248138125,166.7577166295116L1014.131000625,167.48208676481633L1016.01006703125,167.91144480791323L1017.890651875,169.71159094480655L1019.7689590625001,163.18959165184486L1021.6518215624999,164.5779386458921L1023.53392484375,164.5252007485704L1025.416028125,166.0361760521696L1027.29509453125,158.04291894917284L1029.1771978125,167.88104720690606L1031.0562642187501,167.21865090715144L1032.9368490625,168.50762755600962L1034.8197115625,167.51545800333233L1036.701055625,169.65177785375724L1038.58315890625,173.07199585043793L1040.46298453125,165.1640090337002L1042.343569375,163.11325747100142L1044.2218765625,164.2662617335774L1046.1047390625,164.1491565152441L1047.9868423437501,161.81244886520113L1049.868945625,160.6711711623824L1051.74801203125,163.21082611051537L1053.6301153125,157.03806527690494L1055.5084225,157.8221508116508L1057.3897665625,163.0498482262483L1059.2726290625,168.74355194112005L1061.153973125,165.24172894299232L1063.0353171875,160.948460644604L1064.91590203125,165.59048178227022L1066.79572765625,163.99393677444024L1068.6747940625,160.54057074386338L1070.55689734375,159.40713761233363L1072.43824140625,165.86388498439237L1074.32110390625,165.61913512881904L1076.20092953125,171.8842145977992L1078.08227359375,166.68839893690216L1079.96058078125,167.05271673030538L1081.8419248437501,166.93738437167934L1083.72478734375,165.67929115767558L1085.60613140625,170.16317973610924L1087.48671625,173.5895100145171L1089.3680603125001,167.2823181302923L1091.2478859375,168.98022962329256L1093.12695234375,159.87623835991306L1095.009055625,165.07589255208063L1096.89115890625,167.4876595546859L1098.7732621875,158.30748178017478L1100.6530878125,162.82784026439396L1102.53367265625,170.4175229452575L1104.4127390625,163.0620455359533L1106.294083125,160.96960073465794L1108.176945625,162.27982318493537L1110.05753046875,163.1115700584222L1111.93735609375,159.86203010878376L1113.82021859375,161.95969828987964L1115.70004421875,158.83788141289264L1117.579110625,162.21749770759882L1119.46121390625,155.986081113573L1121.3433171875,159.77605436882737L1123.22466125,158.88905071211676L1125.1052460937499,159.56240174074662L1126.9858309375,160.58662189161592L1128.8656565625,160.84802977559454L1130.74624140625,160.0168850040286L1132.62910390625,164.72822408103045L1134.5096887500001,155.1024277042335L1136.39027359375,158.27249672263773L1138.27313609375,154.18948170667835L1140.15144328125,152.05041113094063L1142.03126890625,156.2060387928222L1143.9133721875,158.1664837493261L1145.79547546875,152.83804399715427L1147.67681953125,150.90860795346833L1149.55816359375,153.1038677750107L1151.43798921875,157.25988896334624L1153.31781484375,154.63390337922849L1155.19764046875,151.72892558466597L1157.07898453125,147.6167394450379L1158.9603285937499,155.6151886255188L1160.84167265625,157.23841652003784L1162.7245351562499,158.40558097891727L1164.6036015625,158.4551461337371L1166.4834271875,161.74798880328913L1168.36477125,161.61763312572344L1170.24687453125,150.67146926447217L1172.12821859375,134.5992360050944L1174.0088034375,144.63637992092777L1175.8893882812501,144.34283567350394L1177.76921390625,142.32811372710043L1179.64979875,146.55130323381886L1181.5311428125,149.84849007017408L1183.4132460937499,146.4747357047021L1185.29307171875,139.38798915841699L1187.172138125,135.5516573103578L1189.05272296875,133.84152528526255L1190.9340670312502,128.88103515101588L1192.8131334375,124.86403253241252L1194.6959959375,131.08068877603932L1196.5773399999998,133.38346621362163L1198.45640640625,138.88679042153234L1200.3377504687498,140.7719586523335L1202.22061296875,131.2061722865081L1204.099679375,138.88315817537168L1205.98026421875,141.1473412858382L1207.86312671875,120.71808513038965L1209.74143390625,127.94169385167129L1211.6227779687501,127.71618301327327L1213.50564046875,119.63112473258552L1215.384706875,126.55660031562554L1217.2645325,125.72055758622591L1219.1458765625,114.33575224582735L1221.0264614062498,97.35927373519172L1222.90704625,89.12054617470879L1224.7883903125,95.91017526952254L1226.66897515625,104.72248279957668L1228.546523125,95.33231295245109L1230.42710796875,86.58936201463473L1232.306174375,80.31298872977692L1234.1837223437499,74.23678304499502L1236.0612703125,79.42289511386231L1237.94033671875,78.76925556196967L1239.8216807812498,90.72803403481366L1241.70150640625,101.9500343796284L1243.58209125,98.69717025546264L1245.45812078125,79.04704861323847L1247.338705625,88.63614104843624L1249.21929046875,85.20711529312426L1251.10139375,88.58665201889214L1252.981219375,106.56722998086653L1254.858008125,115.0897097078803L1256.7340376562502,107.00969542311685L1258.611585625,110.83397860698139L1260.4883743750001,98.03158766467708L1262.36744078125,88.62885689568124L1264.24726640625,100.20311726469758L1266.12709203125,107.97524147164204L1268.007676875,112.14213503725155L1269.8890209375,111.59724318818344L1271.77112421875,96.93029018781245L1273.64791296875,82.90200284803903L1275.5284978125,75.80543315413591L1277.4052865625,53.343757329004994L1279.2835937500001,43.537655520449846L1281.1649378125,50.51702019215271L1283.046281875,78.78468673229604L1284.92382984375,85.96603826618427L1286.8044146875,96.76900891933579L1288.6872771875,92.64749760624017L1290.5671028125,102.16782473228125L1292.4469284375,116.5459116667613L1294.3282725000001,100.43201758111145L1296.208098125,110.02144694545643L1298.0886829687502,114.80966688095795L1299.96850859375,120.0455813327984L1301.84985265625,123.18076678368783L1303.72967828125,128.01910853823028L1305.610263125,127.21844241786005L1307.49236640625,142.09363832669257L1309.3714328125002,141.00644303629872L1311.2512584375,151.39306064599802L1313.1326025,156.68543404384877L1315.0139465625,156.69268950345773L1316.8968090625,128.3324213802973L1318.7766346875,132.12412247539515L1320.65418265625,140.67104538465114L1322.5355267187501,147.7379864837204L1324.41535234375,145.20031801327912L1326.2959371875002,150.6457864500573L1328.17728125,155.24668341788598L1330.0593845312499,148.0033110456046L1331.9414878125,141.11811583878855L1333.82055421875,120.41782818247235L1335.70037984375,133.0988096719346L1337.5786870312502,134.87930393060216L1339.45851265625,146.10526998043164L1341.3406159375,146.51046502780974L1343.22120078125,145.8982661382679L1345.10102640625,143.53494622470876L1346.9831296875,142.05794359542097L1348.861436875,132.3441995545457L1350.7442993749999,134.51762926031532L1352.62488421875,132.06445467716085L1354.5047098437499,128.84770007375255L1356.38453546875,121.71110477020369L1358.26436109375,134.40198036700502L1360.14570515625,137.49395891112098L1362.02629,145.38764023925071L1363.90687484375,127.64890125170469L1365.78973734375,134.08768358549548L1367.6695629687501,138.71832725334806L1369.548629375,131.4165325382271L1371.428455,142.91141512840503L1373.3097990625,136.55411407643265L1375.1926615625,128.2507643442971L1377.07324640625,140.36893797669543L1378.95383125,139.45892073889812L1380.8321384375,126.6658647114053L1382.71120484375,129.09352471673574L1384.59027125,124.91405661013178L1386.4716153125,93.24344965211421L1388.352959375,87.16752926392479L1390.235821875,109.42893693091345L1392.1156475,113.8047852885835L1393.995473125,96.55055214238836L1395.87529875,84.3552891711752L1397.75436515625,106.9177656047559L1399.6364684375,101.93696374517775L1401.51857171875,97.3961578003293L1403.3991565625001,94.81521839235579L1405.2789821874999,94.55360054835295L1407.15804859375,79.63206059756645L1409.037115,63.17247671498517L1410.91618140625,86.82145961602725L1412.7975254687499,101.45115830898403L1414.67886953125,88.64723624515605L1416.559454375,65.22316474514051L1418.4400392187501,76.78086994693783L1420.32138328125,71.02676378945172L1422.19893125,79.91470545995033L1424.07951609375,92.73845353262305L1425.96086015625,110.99892313275744L1427.8429634375,125.97663882228142L1429.7243075,138.31702955801728L1431.604133125,127.00999149274496L1433.48395875,107.52734365052979L1435.36454359375,106.8670382551372L1437.24436921875,107.07599106526493L1439.12571328125,118.63566547045778L1441.00705734375,119.16736333256766L1442.8876421875,105.57763848904254L1444.76822703125,106.97717314316917L1446.64501578125,97.24543303629213L1448.5240821875,109.15981009948524L1450.40466703125,113.81107949536009L1452.28601109375,101.78287697578048L1454.1673551562499,92.473310047773L1456.04718078125,122.89770392417161L1457.927765625,109.45573142432721L1459.8091096875,100.76010413779943L1461.6881760937501,100.11519665321188L1463.5687609375,75.0775100817709L1465.4478273437499,77.7617938603418L1467.3253753125,103.15286238798242" style="fill: none;" fill="none"></path></g></g></g></g><g opacity="0.2"><g><g><g><path stroke="rgb(255, 112, 67)" stroke-width="2px" d="M153.70839125,309.6478540039062L155.56695875,192.75822448730466L157.42324859375,201.66705139160155L159.28029765625,187.52141815185544L161.1381059375,236.54146301269532L162.99743265625,308.5242633056641L164.85524093749999,283.38161376953127L166.7077346875,320.30461059570314L168.5663021875,257.6811602783203L170.4218328125,205.67919006347654L172.27964109375,200.67245086669925L174.1389678125,181.0139501953125L175.99905375,192.96833465576174L177.8591396875,222.36565979003908L179.73061390625,371.9333544921875L181.59753281250002,397.36579162597656L183.46445171875,244.94094024658204L185.3359259375,148.79332885742187L187.1944934375,199.6039254760742L189.0515425,191.1916598510742L190.91086921874998,232.86153045654297L192.76867750000002,230.94632507324218L194.63104109375,257.61482879638675L196.50327453125,394.64160766601566L198.37626718750002,258.350634765625L200.24318609375,159.50427459716795L202.100994375,180.21857421875L203.95880265625001,178.65482391357423L205.824203125,181.48198760986327L207.69719578125,68.55316177368164L209.5732253125,204.82343872070314L211.44773640625002,201.3773876953125L213.3146553125,334.78822021484376L215.18005578125,256.9795068359375L217.05001156249998,170.32261184692382L218.9116159375,279.6823083496094L220.76942421875,159.9054849243164L222.6408984375,121.14995479583739L224.51616875,537.2026977539062L226.37853234375,361.4414221191406L228.2408959375,166.2961714172363L230.09946343750002,169.51116851806643L231.95954937500002,136.7122331237793L233.8226721875,189.11139129638673L235.68807265625,281.58037109375005L237.55726921874998,359.2484033203125L239.42950265625,206.50777160644532L241.30401375,104.60019031524656L243.183839375,110.6675650405884L245.06138734375,242.48504699707033L246.94424984375001,522.3212585449219L248.82711234375,236.80428436279297L250.709215625,170.0045835876465L252.57993062499997,161.31024322509765L254.456719375,180.1539596557617L256.33047124999996,188.07506698608398L258.20801921875,218.42684417724612L260.0901225,200.138489074707L261.97222578125,215.75432708740237L263.85508828125,211.0891131591797L265.7371915625,225.85000518798827L267.61625796875,192.62822540283202L269.4922875,185.00898162841796L271.37439078125,176.40833724975587L273.2564940625,178.66870086669923L275.1393565625,291.3106817626953L277.02221906249997,237.27416259765621L278.9020446875,199.71275512695314L280.77807421875,179.024434967041L282.65941828125,215.77904541015627L284.540003125,173.49459747314452L286.42210640625,235.33209716796878L288.3042096875,285.1946447753906L290.18479453125,280.8202185058594L292.06158328125,294.2922619628906L293.9376128125,311.861351928711L295.81516078125003,280.5863989257812L297.69043109374996,268.2125640869141L299.56570140625,202.5021112060547L301.443249375,239.9190850830078L303.320038125,232.2612725830078L305.1983453125,275.59561645507813L307.07437484375004,254.34424865722656L308.95571890625,198.05416717529295L310.83706296875,192.89924194335936L312.71840703125,178.2308644104004L314.5974734375,237.04859130859376L316.47805828125,222.70376892089845L318.3571246875,213.28283111572264L320.23011734375,296.25036376953125L322.10235078125,271.0628265380859L323.97989875,247.0532373046875L325.859724375,269.1065832519531L327.73955,213.98709533691405L329.619375625,212.76644561767577L331.502238125,208.04832580566406L333.3835821875,197.69913665771483L335.26113015625003,182.2883288574219L337.14247421875,180.0440281677246L339.02381828125004,186.60535781860352L340.904403125,264.9939074707031L342.78726562500003,239.2364239501953L344.670128125,247.22086700439453L346.54919453125,190.15877822875973L348.42902015625,182.8821925354004L350.31036421875,171.1446664428711L352.19018984375,184.46551040649413L354.072293125,247.7147113037109L355.955155625,228.64962738037107L357.83422203124996,224.48675384521482L359.708733125,223.51514587402346L361.5870403125,224.1284487915039L363.46306984375,223.8008624267578L365.339099375,219.006923828125L367.22120265625,166.91843948364257L369.10406515625,208.39516998291018L370.98692765625,261.6817230224609L372.86979015624996,257.067158203125L374.74961578125,193.3305337524414L376.62640453125,209.6783102416992L378.50623015625,214.29071563720703L380.38909265625,208.4494564819336L382.27195515625004,194.66271240234377L384.15481765625,217.8442333984375L386.0369209375,187.65801055908202L387.91522812499994,184.34062225341796L389.792016875,203.99845916748043L391.67412015625,201.84400024414066L393.55698265625,159.900475769043L395.43984515625,168.20856246948244L397.32270765625,257.1037887573242L399.2017740625,227.68904663085937L401.0785628125,160.83699310302734L402.95914765624997,170.65246826171878L404.84201015625,223.19686096191407L406.72487265625006,184.41325057983397L408.60773515625,190.10289428710936L410.4898384375,213.20513610839848L412.36738640625003,198.442438659668L414.244934375,178.23504165649413L416.12703765625,180.4541372680664L418.00990015625,188.92071151733398L419.89276265625,183.754108581543L421.77562515625,172.07776763916016L423.65393234375,201.0256936645508L425.53148031250004,179.324192199707L427.41206515625,169.95605850219727L429.29492765625,206.7438037109375L431.17779015624996,177.39510986328125L433.06065265625,160.55338287353516L434.9427559375,189.00480957031252L436.81878546875,204.01322113037108L438.697851875,201.69305297851562L440.57995515625004,185.56706878662112L442.46281765625,182.15647567749022L444.34568015625,185.06599838256838L446.22854265625,173.81217880249022L448.10684984375,176.94985702514649L449.982879375,171.87579956054685L451.86498265625,214.40401458740234L453.74784515625004,197.93685913085938L455.63070765624997,156.3572329711914L457.51357015625,179.42185302734373L459.39491421875,271.0797479248047L461.27018453125,191.17149932861327L463.15001015625,155.73700485229494L465.0321134375,215.50756866455077L466.9149759375,201.77919097900394L468.7978384375,143.1065835571289L470.6807009375,174.890700378418L472.55976734375,259.77604919433594L474.4342784375,180.67681900024414L476.31638171875,186.03428314208986L478.198485,198.30548339843747L480.0813475,189.102373046875L481.96421000000004,179.5133010864258L483.84631328124993,164.598377532959L485.72310203125,196.00007720947264L487.60140921874995,184.1094532775879L489.48427171875,162.1704196166992L491.36485656250005,185.33352798461914L493.2477190625,210.12074432373046L495.1305815625,189.8618309020996L497.01040718750005,171.3866502380371L498.8871959375,212.81483795166017L500.76929921875,208.16410278320313L502.6498840625,174.75147064208986L504.53122812500004,182.88760879516602L506.414090625,206.92451385498046L508.2954346875,174.43064132690432L510.173741875,174.51070816040038L512.05432671875,220.75063201904297L513.93567078125,194.8801947021484L515.816255625,169.97254180908206L517.699118125,199.65745971679686L519.58122140625,201.25734497070312L521.46180625,178.6962777709961L523.3401134375,180.73526504516602L525.2214574999999,178.97834808349612L527.10204234375,183.44639068603516L528.98338640625,180.53573516845702L530.86624890625,167.57856826782228L532.74683375,184.18429412841797L534.626659375,185.87050765991214L536.506485,167.64278900146485L538.3878290625,193.2520422363281L540.26841390625,190.23126937866212L542.1505171875,185.2095071411133L544.03262046875,201.41352264404298L545.91396453125,189.3331349182129L547.7930309375,187.10761856079102L549.67361578125,184.15138946533204L551.554200625,185.52295547485352L553.4355446874999,190.54001831054688L555.3184071875,198.10623229980467L557.19975125,169.58877059936523L559.0788176562501,188.36890350341795L560.9594025,177.65065643310547L562.8407465624999,183.77439300537108L564.7205721875,189.72899536132815L566.6034346875,178.5667477416992L568.48553796875,195.7333087158203L570.3661228125,175.683642578125L572.2459484375,184.3098239135742L574.12653328125,186.92980239868163L576.007118125,181.391190032959L577.8884621875,183.13184936523436L579.76980625,193.2346694946289L581.6511503125,201.81464447021483L583.53021671875,184.85343231201173L585.4108015625001,174.43277420043944L587.292145625,194.28608764648436L589.1734896875,193.77113586425781L591.05483375,177.28519165039063L592.9361778125,198.65567291259762L594.8160034375,199.75684631347653L596.69506984375,179.8254396057129L598.57641390625,183.87984634399416L600.45623953125,220.7267810058594L602.3383428125001,196.2669696044922L604.2204460937501,196.4634506225586L606.10179015625,193.69205139160155L607.9808565625,187.97283065795898L609.8614414062499,160.0790530395508L611.74126703125,164.8696109008789L613.6233703125,173.04051666259764L615.5047143749999,177.15027191162108L617.38529921875,189.3652297973633L619.26512484375,202.3411279296875L621.1457096875,226.16422790527344L623.02629453125,233.18952392578126L624.9083978125,199.3603353881836L626.79050109375,177.10149017333987L628.6710859374999,184.149561920166L630.5524300000001,200.26298339843748L632.4314964062501,188.44193450927733L634.3135996875,183.51126190185545L636.1934253125,181.18395614624023L638.0755285937499,177.60025512695313L639.95687265625,178.73004974365236L641.8374575,172.57392623901367L643.717283125,180.87157867431642L645.5986271875,179.1553500366211L647.47921203125,175.30052185058594L649.36055609375,188.29320419311523L651.242659375,178.59863021850586L653.1240034374999,199.32610321044922L655.0053475,179.23446548461914L656.88441390625,182.37028076171876L658.7665171875,181.75720794677736L660.6463428125,182.22500640869143L662.52844609375,179.88416885375975L664.40979015625,188.53057708740235L666.2896157812501,197.5655532836914L668.16792296875,180.34916625976564L670.04926703125,194.18860382080078L671.92909265625,168.34083602905275L673.80739984375,137.27279609680176L675.68874390625,120.32320992469786L677.5678103125,146.3617822265625L679.4461175,136.16292968750003L681.3244246875,160.97568740844727L683.2042503125,169.57690704345703L685.08483515625,186.1664991760254L686.96314234375,186.43457748413087L688.84296796875,143.65707290649416L690.72127515625,145.18375236511233L692.6003415625,130.27439331054688L694.47788953125,148.52096488952634L696.358474375,161.07713165283204L698.2352631250001,95.162042388916L700.1150887499999,114.28913272380828L701.994914375,194.75696594238278L703.8717031250001,176.31582275390628L705.75228796875,118.78235288619996L707.63059515625,186.44167083740234L709.50890234375,123.89672420501708L711.38796875,147.629321975708L713.26551671875,104.2882608795166L715.14382390625,161.59095504760742L717.021371875,115.4108578491211L718.89891984375,134.0582415008545L720.77570859375,146.20670417785644L722.65401578125,166.1573974609375L724.5330821875,190.47217346191408L726.41214859375,168.0316976928711L728.29197421875,165.93254745483398L730.1748367187499,212.75781677246093L732.0554215625,156.25121322631836L733.9352471875,169.65538528442386L735.81431359375,167.98682769775394L737.69565765625,172.67556076049806L739.57548328125,189.5119644165039L741.4545496874999,188.65572631835937L743.33513453125,212.94423522949216L745.2126825,189.98460830688475L747.0932673437501,166.0497537231445L748.9738521875,104.34305183410645L750.85595546875,112.43326904296875L752.7342626562499,94.48295890808103L754.61408828125,115.82831977307798L756.49391390625,116.03974313527345L758.37222109375,142.5829653167725L760.2505282812501,176.8193844604492L762.131113125,187.66921035766603L764.01017953125,109.20380535125734L765.89000515625,105.7445355987549L767.76983078125,157.8087242126465L769.65117484375,164.43751373291016L771.53024125,121.09379705429077L773.40930765625,107.3240739250183L775.2883740625,127.46145725250246L777.1659220312499,207.8901922607422L779.0480253125,159.114560546875L780.92861015625,204.0572149658203L782.8084357812501,177.66821060180666L784.68674296875,207.14696105957034L786.56505015625,187.9683126831055L788.44487578125,196.58212158203125L790.3277382812499,165.23981048583983L792.2068046875,144.4458666229248L794.08435265625,90.64085273742675L795.96265984375,124.55020877838136L797.8432446875,47.152479553222676L799.7207926562501,198.72326995849608L801.59909984375,201.8944723510742L803.47740703125,190.11574462890624L805.3557142187501,207.48605255126952L807.23553984375,200.2904541015625L809.11460625,189.13174209594726L810.9944318749999,169.13213653564452L812.87653515625,189.92918457031254L814.7586384374999,187.07381118774413L816.6384640625,178.7360412597656L818.51904890625,188.221199798584L820.39887453125,174.75584259033204L822.27870015625,147.13470108032226L824.1600442187499,152.73113777160643L826.0421475,175.93904754638672L827.9234915625001,176.99592620849612L829.8033171874999,153.76063201904296L831.6831428124999,154.50985473632812L833.56145,169.54663528442381L835.4427940625,157.0296501159668L837.3248973437501,150.74652328491212L839.207000625,149.24965759277342L841.0883446875,181.65372817993165L842.9689295312501,167.35456787109376L844.8479959375001,163.57173080444338L846.7278215625,198.38147033691408L848.60992484375,203.98967987060547L850.492028125,166.5354913330078L852.3718537499999,171.71428527832032L854.2516793750001,184.16597885131836L856.1330234375,207.51501892089846L858.0128490625,198.09116943359376L859.8941931249999,187.7146556091309L861.7740187500001,196.64987792968753L863.6538443750001,198.18570617675783L865.5336699999999,190.6258819580078L867.41425484375,203.93563232421872L869.2940804687499,177.11468124389648L871.1769429687499,194.18677185058593L873.0567685937501,190.8671710205078L874.9373534375,188.31645782470704L876.81793828125,172.16608276367188L878.69928234375,178.92421646118163L880.581385625,183.38433380126952L882.46121125,174.42641540527345L884.34407375,174.57749099731444L886.22314015625,167.27578872680664L888.10296578125,171.68707122802735L889.9850690624999,174.7265841674805L891.86717234375,182.13980209350584L893.74623875,163.47741973876953L895.6291012500001,165.95339385986327L897.5074084375,165.7394515991211L899.38799328125,166.81530487060547L901.2700965625,152.84535049438477L903.1514406250001,183.38661712646487L905.0327846875,171.11071304321288L906.91412875,168.6883660888672L908.7947135937501,161.22156967163087L910.6737800000001,152.06021850585938L912.5551240625001,178.61676849365233L914.43722734375,166.41543533325196L916.3193306250001,163.60417968750002L918.19915625,187.23797607421875L920.0805003125,167.72507278442384L921.95956671875,189.08089828491208L923.84091078125,161.90104034423828L925.7230140624999,156.2879278564453L927.6043581250001,165.61474929809572L929.4857021875,162.54129180908203L931.36704625,178.43060668945316L933.246871875,163.38033416748044L935.12593828125,172.5475131225586L937.0080415625001,179.32329833984375L938.889385625,177.21601928710936L940.7722481249999,182.41539413452148L942.65207375,166.35627685546876L944.53265859375,164.46736953735353L946.4117249999999,168.1953890991211L948.2930690625001,179.57741561889648L950.1759315625,170.24492568969728L952.0572756250001,155.99037872314454L953.9371012500001,180.67850494384766L955.81920453125,164.14227447509768L957.69903015625,168.3008203125L959.5780965625,173.6976496887207L961.4609590624999,167.15210418701173L963.3423031250001,171.37884887695313L965.2251656249999,169.21944274902344L967.1042320312499,161.68574844360353L968.984816875,178.72176162719725L970.86388328125,175.28063568115232L972.7459865625001,169.5486177062988L974.6288490625,168.19673431396484L976.5101931249999,173.97919342041016L978.3892595312499,160.31786407470702L980.27212203125,169.45393936157228L982.1511884375,157.52478210449217L984.0310140625,167.08262649536132L985.9138765624999,176.32770401000977L987.795220625,172.8989859008789L989.678083125,168.13028335571292L991.5571495312499,173.65362045288086L993.437734375,172.14734710693358L995.31680078125,163.25139266967773L997.1989040624999,163.83863204956054L999.0817665625,167.31635757446287L1000.9631106249999,174.25371017456052L1002.8421770312499,170.8355723571777L1004.72503953125,183.91833099365232L1006.6041059375,158.6153707885742L1008.4839315625001,160.37827484130858L1010.3667940624999,178.46638320922852L1012.248138125,160.89152297973632L1014.131000625,168.56864196777346L1016.01006703125,168.55548187255857L1017.890651875,172.4118101501465L1019.7689590625001,153.40659271240236L1021.6518215624999,166.6604591369629L1023.53392484375,164.44609390258788L1025.416028125,168.30263900756833L1027.29509453125,146.05303329467773L1029.1771978125,182.63823959350586L1031.0562642187501,166.22505645751954L1032.9368490625,170.4410925292969L1034.8197115625,166.0272036743164L1036.701055625,172.85625762939452L1038.58315890625,178.20232284545898L1040.46298453125,153.30202880859375L1042.343569375,160.03713012695312L1044.2218765625,165.99576812744144L1046.1047390625,163.97349868774415L1047.9868423437501,158.3073873901367L1049.868945625,158.9592546081543L1051.74801203125,167.02030853271486L1053.6301153125,147.77892402648928L1055.5084225,158.9982791137695L1057.3897665625,170.89139434814453L1059.2726290625,177.28410751342773L1061.153973125,159.98899444580078L1063.0353171875,154.5085581970215L1064.91590203125,172.5535134887695L1066.79572765625,161.5991192626953L1068.6747940625,155.36052169799805L1070.55689734375,157.70698791503906L1072.43824140625,175.54900604248047L1074.32110390625,165.25201034545898L1076.20092953125,181.28183380126953L1078.08227359375,158.89467544555666L1079.96058078125,167.59919342041016L1081.8419248437501,166.76438583374022L1083.72478734375,163.79215133666992L1085.60613140625,176.88901260375974L1087.48671625,178.7290054321289L1089.3680603125001,157.8215303039551L1091.2478859375,171.52709686279297L1093.12695234375,146.22025146484376L1095.009055625,172.87537384033203L1096.89115890625,171.10531005859374L1098.7732621875,144.53721511840823L1100.6530878125,169.6083779907227L1102.53367265625,181.80204696655275L1104.4127390625,152.02882942199707L1106.294083125,157.83093353271485L1108.176945625,164.24515686035156L1110.05753046875,164.35919036865235L1111.93735609375,154.98772018432618L1113.82021859375,165.10620056152342L1115.70004421875,154.1551560974121L1117.579110625,167.2869221496582L1119.46121390625,146.63895622253418L1121.3433171875,165.46101425170897L1123.22466125,157.5585452270508L1125.1052460937499,160.5724282836914L1126.9858309375,162.1229521179199L1128.8656565625,161.2401416015625L1130.74624140625,158.7701678466797L1132.62910390625,171.79523269653322L1134.5096887500001,140.66373313903807L1136.39027359375,163.02760025024415L1138.27313609375,148.06495918273924L1140.15144328125,148.84180526733397L1142.03126890625,162.43948028564452L1143.9133721875,161.10715118408203L1145.79547546875,144.8453843688965L1147.67681953125,148.01445388793945L1149.55816359375,156.39675750732422L1151.43798921875,163.4939207458496L1153.31781484375,150.69492500305176L1155.19764046875,147.37145889282226L1157.07898453125,141.4484602355957L1158.9603285937499,167.61286239624025L1160.84167265625,159.67325836181638L1162.7245351562499,160.15632766723635L1164.6036015625,158.5294938659668L1166.4834271875,166.68725280761717L1168.36477125,161.422099609375L1170.24687453125,134.25222347259523L1172.12821859375,110.49088611602784L1174.0088034375,159.69209579467773L1175.8893882812501,143.90251930236815L1177.76921390625,139.30603080749515L1179.64979875,152.88608749389647L1181.5311428125,154.794270324707L1183.4132460937499,141.41410415649415L1185.29307171875,128.75786933898925L1187.172138125,129.79715953826906L1189.05272296875,131.27632724761963L1190.9340670312502,121.44029994964599L1192.8131334375,118.83852860450745L1194.6959959375,140.40567314147947L1196.5773399999998,136.83763236999513L1198.45640640625,147.14177673339844L1200.3377504687498,143.59971099853516L1202.22061296875,116.85749273777009L1204.099679375,150.398637008667L1205.98026421875,144.54361595153807L1207.86312671875,90.07420089721677L1209.74143390625,138.77710693359376L1211.6227779687501,127.37791675567625L1213.50564046875,107.50353731155394L1215.384706875,136.94481369018555L1217.2645325,124.46649349212645L1219.1458765625,97.2585442352295L1221.0264614062498,71.89455596923828L1222.90704625,76.76245483398435L1224.7883903125,106.09461891174317L1226.66897515625,117.9409440946579L1228.546523125,81.2470581817627L1230.42710796875,73.47493560791015L1232.306174375,70.89842880249024L1234.1837223437499,65.12247451782225L1236.0612703125,87.20206321716307L1237.94033671875,77.78879623413084L1239.8216807812498,108.6662017440796L1241.70150640625,118.7830348968506L1243.58209125,93.81787406921386L1245.45812078125,49.57186614990235L1247.338705625,103.0197797012329L1249.21929046875,80.06357666015623L1251.10139375,93.65595710754394L1252.981219375,133.53809692382814L1254.858008125,127.8734292984009L1256.7340376562502,94.88967399597169L1258.611585625,116.57040338277815L1260.4883743750001,78.8280012512207L1262.36744078125,74.52476074218748L1264.24726640625,117.56450781822204L1266.12709203125,119.63342778205873L1268.007676875,118.39247538566589L1269.8890209375,110.77990541458131L1271.77112421875,74.92986068725584L1273.64791296875,61.85957183837891L1275.5284978125,65.16057861328125L1277.4052865625,19.651243591308585L1279.2835937500001,28.82850280761717L1281.1649378125,60.98606719970703L1283.046281875,121.18618654251098L1284.92382984375,96.73806556701659L1286.8044146875,112.9734648990631L1288.6872771875,86.4652306365967L1290.5671028125,116.44831542134287L1292.4469284375,138.11304206848146L1294.3282725000001,76.2611764526367L1296.208098125,124.40559099197385L1298.0886829687502,121.9919967842102L1299.96850859375,127.8994530105591L1301.84985265625,127.88354496002198L1303.72967828125,135.27662117004397L1305.610263125,126.01744323730468L1307.49236640625,164.40643218994143L1309.3714328125002,139.375650100708L1311.2512584375,166.97298706054684L1313.1326025,164.623994140625L1315.0139465625,156.70357269287112L1316.8968090625,85.79201919555663L1318.7766346875,137.81167411804196L1320.65418265625,153.49142974853515L1322.5355267187501,158.33839813232422L1324.41535234375,141.39381530761716L1326.2959371875002,158.8139891052246L1328.17728125,162.1480288696289L1330.0593845312499,137.13825248718263L1331.9414878125,130.79032302856444L1333.82055421875,89.36739669799806L1335.70037984375,152.12028190612793L1337.5786870312502,137.5500453186035L1339.45851265625,162.94421905517578L1341.3406159375,147.11825759887694L1343.22120078125,144.97996780395508L1345.10102640625,139.9899663543701L1346.9831296875,139.84243965148926L1348.861436875,117.77358349323274L1350.7442993749999,137.77777381896973L1352.62488421875,128.3846928024292L1354.5047098437499,124.02256816864013L1356.38453546875,111.00621181488036L1358.26436109375,153.43829376220702L1360.14570515625,142.13192672729494L1362.02629,157.2281622314453L1363.90687484375,101.04079277038572L1365.78973734375,143.74585708618164L1367.6695629687501,145.66429275512695L1369.548629375,120.46384046554564L1371.428455,160.15373901367187L1373.3097990625,127.01816249847411L1375.1926615625,115.79573974609376L1377.07324640625,158.546198425293L1378.95383125,138.09389488220216L1380.8321384375,107.47628067016603L1382.71120484375,132.73501472473146L1384.59027125,118.64485445022582L1386.4716153125,45.73753921508788L1388.352959375,78.05364868164062L1390.235821875,142.8210484313965L1392.1156475,120.36855782508849L1393.995473125,70.6692024230957L1395.87529875,66.06239471435546L1397.75436515625,140.76148025512694L1399.6364684375,94.46576095581054L1401.51857171875,90.58494888305664L1403.3991565625001,90.94380928039551L1405.2789821874999,94.16117378234861L1407.15804859375,57.249750671386735L1409.037115,38.48310089111326L1410.91618140625,122.29493396759035L1412.7975254687499,123.39570634841917L1414.67886953125,69.44135314941407L1416.559454375,30.087057495117172L1418.4400392187501,94.11742774963379L1420.32138328125,62.395604553222675L1422.19893125,93.24661796569823L1424.07951609375,111.97407564163206L1425.96086015625,138.38962753295897L1427.8429634375,148.44321235656741L1429.7243075,156.8276156616211L1431.604133125,110.04943439483644L1433.48395875,78.30337188720705L1435.36454359375,105.87658016204836L1437.24436921875,107.38942028045652L1439.12571328125,135.97517707824707L1441.00705734375,119.96491012573243L1442.8876421875,85.19305122375489L1444.76822703125,109.07647512435913L1446.64501578125,82.64782287597654L1448.5240821875,127.03137569427489L1450.40466703125,120.78798358917238L1452.28601109375,83.74057319641115L1454.1673551562499,78.50895965576171L1456.04718078125,168.53429473876955L1457.927765625,89.29277267456055L1459.8091096875,87.71666320800782L1461.6881760937501,99.14783542633059L1463.5687609375,37.520980224609396L1465.4478273437499,81.78821952819823L1467.3253753125,141.23946517944336" style="fill: none;" fill="none"></path></g></g></g></g></g></g><g transform="translate(51, 377)" clip-path="url(#clip_1)"><clipPath id="clip_1"><rect width="1518" height="22"></rect></clipPath><g><g><line x1="0" y1="0" x2="0" y2="5" style="visibility: inherit;" fill="rgb(0, 0, 0)" stroke="rgb(204, 204, 204)" stroke-width="1px"></line><line x1="151.84375" y1="0" x2="151.84375" y2="5" style="visibility: inherit;" fill="rgb(0, 0, 0)" stroke="rgb(204, 204, 204)" stroke-width="1px"></line><line x1="303.6875" y1="0" x2="303.6875" y2="5" style="visibility: inherit;" fill="rgb(0, 0, 0)" stroke="rgb(204, 204, 204)" stroke-width="1px"></line><line x1="455.53125" y1="0" x2="455.53125" y2="5" style="visibility: inherit;" fill="rgb(0, 0, 0)" stroke="rgb(204, 204, 204)" stroke-width="1px"></line><line x1="607.375" y1="0" x2="607.375" y2="5" style="visibility: inherit;" fill="rgb(0, 0, 0)" stroke="rgb(204, 204, 204)" stroke-width="1px"></line><line x1="759.21875" y1="0" x2="759.21875" y2="5" style="visibility: inherit;" fill="rgb(0, 0, 0)" stroke="rgb(204, 204, 204)" stroke-width="1px"></line><line x1="911.0625" y1="0" x2="911.0625" y2="5" style="visibility: inherit;" fill="rgb(0, 0, 0)" stroke="rgb(204, 204, 204)" stroke-width="1px"></line><line x1="1062.90625" y1="0" x2="1062.90625" y2="5" style="visibility: inherit;" fill="rgb(0, 0, 0)" stroke="rgb(204, 204, 204)" stroke-width="1px"></line><line x1="1214.75" y1="0" x2="1214.75" y2="5" style="visibility: inherit;" fill="rgb(0, 0, 0)" stroke="rgb(204, 204, 204)" stroke-width="1px"></line><line x1="1366.59375" y1="0" x2="1366.59375" y2="5" style="visibility: inherit;" fill="rgb(0, 0, 0)" stroke="rgb(204, 204, 204)" stroke-width="1px"></line><line x1="1518.4375" y1="0" x2="1518.4375" y2="5" style="visibility: inherit;" fill="rgb(0, 0, 0)" stroke="rgb(204, 204, 204)" stroke-width="1px"></line></g><g transform="translate(0, 8)"><text x="0" y="0" dx="0em" dy="0.95em" style="text-anchor: middle; visibility: hidden; font-family: Roboto, sans-serif; font-size: 12px; font-weight: 200;" fill="rgb(255, 255, 255)" stroke="none" stroke-width="1px">-200k</text><text x="151.84375" y="0" dx="0em" dy="0.95em" style="text-anchor: middle; visibility: inherit; font-family: Roboto, sans-serif; font-size: 12px; font-weight: 200;" fill="rgb(255, 255, 255)" stroke="none" stroke-width="1px">0</text><text x="303.6875" y="0" dx="0em" dy="0.95em" style="text-anchor: middle; visibility: inherit; font-family: Roboto, sans-serif; font-size: 12px; font-weight: 200;" fill="rgb(255, 255, 255)" stroke="none" stroke-width="1px">200k</text><text x="455.53125" y="0" dx="0em" dy="0.95em" style="text-anchor: middle; visibility: inherit; font-family: Roboto, sans-serif; font-size: 12px; font-weight: 200;" fill="rgb(255, 255, 255)" stroke="none" stroke-width="1px">400k</text><text x="607.375" y="0" dx="0em" dy="0.95em" style="text-anchor: middle; visibility: inherit; font-family: Roboto, sans-serif; font-size: 12px; font-weight: 200;" fill="rgb(255, 255, 255)" stroke="none" stroke-width="1px">600k</text><text x="759.21875" y="0" dx="0em" dy="0.95em" style="text-anchor: middle; visibility: inherit; font-family: Roboto, sans-serif; font-size: 12px; font-weight: 200;" fill="rgb(255, 255, 255)" stroke="none" stroke-width="1px">800k</text><text x="911.0625" y="0" dx="0em" dy="0.95em" style="text-anchor: middle; visibility: inherit; font-family: Roboto, sans-serif; font-size: 12px; font-weight: 200;" fill="rgb(255, 255, 255)" stroke="none" stroke-width="1px">1M</text><text x="1062.90625" y="0" dx="0em" dy="0.95em" style="text-anchor: middle; visibility: inherit; font-family: Roboto, sans-serif; font-size: 12px; font-weight: 200;" fill="rgb(255, 255, 255)" stroke="none" stroke-width="1px">1.2M</text><text x="1214.75" y="0" dx="0em" dy="0.95em" style="text-anchor: middle; visibility: inherit; font-family: Roboto, sans-serif; font-size: 12px; font-weight: 200;" fill="rgb(255, 255, 255)" stroke="none" stroke-width="1px">1.4M</text><text x="1366.59375" y="0" dx="0em" dy="0.95em" style="text-anchor: middle; visibility: inherit; font-family: Roboto, sans-serif; font-size: 12px; font-weight: 200;" fill="rgb(255, 255, 255)" stroke="none" stroke-width="1px">1.6M</text><text x="1518.4375" y="0" dx="0em" dy="0.95em" style="text-anchor: middle; visibility: hidden; font-family: Roboto, sans-serif; font-size: 12px; font-weight: 200;" fill="rgb(255, 255, 255)" stroke="none" stroke-width="1px">1.8M</text></g><line x1="0" y1="0" x2="1518.4375" y2="0" fill="rgb(0, 0, 0)" stroke="rgb(204, 204, 204)" stroke-width="1px"></line></g></g></g></g></svg>