<svg viewBox="0 0 1548.75 400" xmlns="http://www.w3.org/2000/svg"><g><g><g><g><g><line x1="51.5625" y1="377" x2="46.5625" y2="377" style="visibility: inherit;" fill="rgb(0, 0, 0)" stroke="rgb(204, 204, 204)" stroke-width="1px"></line><line x1="51.5625" y1="342.7272727272727" x2="46.5625" y2="342.7272727272727" style="visibility: inherit;" fill="rgb(0, 0, 0)" stroke="rgb(204, 204, 204)" stroke-width="1px"></line><line x1="51.5625" y1="308.45454545454544" x2="46.5625" y2="308.45454545454544" style="visibility: inherit;" fill="rgb(0, 0, 0)" stroke="rgb(204, 204, 204)" stroke-width="1px"></line><line x1="51.5625" y1="274.1818181818182" x2="46.5625" y2="274.1818181818182" style="visibility: inherit;" fill="rgb(0, 0, 0)" stroke="rgb(204, 204, 204)" stroke-width="1px"></line><line x1="51.5625" y1="239.9090909090909" x2="46.5625" y2="239.9090909090909" style="visibility: inherit;" fill="rgb(0, 0, 0)" stroke="rgb(204, 204, 204)" stroke-width="1px"></line><line x1="51.5625" y1="205.63636363636363" x2="46.5625" y2="205.63636363636363" style="visibility: inherit;" fill="rgb(0, 0, 0)" stroke="rgb(204, 204, 204)" stroke-width="1px"></line><line x1="51.5625" y1="171.36363636363637" x2="46.5625" y2="171.36363636363637" style="visibility: inherit;" fill="rgb(0, 0, 0)" stroke="rgb(204, 204, 204)" stroke-width="1px"></line><line x1="51.5625" y1="137.0909090909091" x2="46.5625" y2="137.0909090909091" style="visibility: inherit;" fill="rgb(0, 0, 0)" stroke="rgb(204, 204, 204)" stroke-width="1px"></line><line x1="51.5625" y1="102.81818181818181" x2="46.5625" y2="102.81818181818181" style="visibility: inherit;" fill="rgb(0, 0, 0)" stroke="rgb(204, 204, 204)" stroke-width="1px"></line><line x1="51.5625" y1="68.54545454545453" x2="46.5625" y2="68.54545454545453" style="visibility: inherit;" fill="rgb(0, 0, 0)" stroke="rgb(204, 204, 204)" stroke-width="1px"></line><line x1="51.5625" y1="34.27272727272729" x2="46.5625" y2="34.27272727272729" style="visibility: inherit;" fill="rgb(0, 0, 0)" stroke="rgb(204, 204, 204)" stroke-width="1px"></line><line x1="51.5625" y1="0" x2="46.5625" y2="0" style="visibility: inherit;" fill="rgb(0, 0, 0)" stroke="rgb(204, 204, 204)" stroke-width="1px"></line></g><g transform="translate(41.5625, 0)"><text x="0" y="377" dx="0em" dy="0.3em" style="text-anchor: end; visibility: hidden; font-family: Roboto, sans-serif; font-size: 12px; font-weight: 200;" fill="rgb(255, 255, 255)" stroke="none" stroke-width="1px">-900</text><text x="0" y="342.7272727272727" dx="0em" dy="0.3em" style="text-anchor: end; visibility: inherit; font-family: Roboto, sans-serif; font-size: 12px; font-weight: 200;" fill="rgb(255, 255, 255)" stroke="none" stroke-width="1px">-800</text><text x="0" y="308.45454545454544" dx="0em" dy="0.3em" style="text-anchor: end; visibility: inherit; font-family: Roboto, sans-serif; font-size: 12px; font-weight: 200;" fill="rgb(255, 255, 255)" stroke="none" stroke-width="1px">-700</text><text x="0" y="274.1818181818182" dx="0em" dy="0.3em" style="text-anchor: end; visibility: inherit; font-family: Roboto, sans-serif; font-size: 12px; font-weight: 200;" fill="rgb(255, 255, 255)" stroke="none" stroke-width="1px">-600</text><text x="0" y="239.9090909090909" dx="0em" dy="0.3em" style="text-anchor: end; visibility: inherit; font-family: Roboto, sans-serif; font-size: 12px; font-weight: 200;" fill="rgb(255, 255, 255)" stroke="none" stroke-width="1px">-500</text><text x="0" y="205.63636363636363" dx="0em" dy="0.3em" style="text-anchor: end; visibility: inherit; font-family: Roboto, sans-serif; font-size: 12px; font-weight: 200;" fill="rgb(255, 255, 255)" stroke="none" stroke-width="1px">-400</text><text x="0" y="171.36363636363637" dx="0em" dy="0.3em" style="text-anchor: end; visibility: inherit; font-family: Roboto, sans-serif; font-size: 12px; font-weight: 200;" fill="rgb(255, 255, 255)" stroke="none" stroke-width="1px">-300</text><text x="0" y="137.0909090909091" dx="0em" dy="0.3em" style="text-anchor: end; visibility: inherit; font-family: Roboto, sans-serif; font-size: 12px; font-weight: 200;" fill="rgb(255, 255, 255)" stroke="none" stroke-width="1px">-200</text><text x="0" y="102.81818181818181" dx="0em" dy="0.3em" style="text-anchor: end; visibility: inherit; font-family: Roboto, sans-serif; font-size: 12px; font-weight: 200;" fill="rgb(255, 255, 255)" stroke="none" stroke-width="1px">-100</text><text x="0" y="68.54545454545453" dx="0em" dy="0.3em" style="text-anchor: end; visibility: inherit; font-family: Roboto, sans-serif; font-size: 12px; font-weight: 200;" fill="rgb(255, 255, 255)" stroke="none" stroke-width="1px">0</text><text x="0" y="34.27272727272729" dx="0em" dy="0.3em" style="text-anchor: end; visibility: inherit; font-family: Roboto, sans-serif; font-size: 12px; font-weight: 200;" fill="rgb(255, 255, 255)" stroke="none" stroke-width="1px">100</text><text x="0" y="0" dx="0em" dy="0.3em" style="text-anchor: end; visibility: hidden; font-family: Roboto, sans-serif; font-size: 12px; font-weight: 200;" fill="rgb(255, 255, 255)" stroke="none" stroke-width="1px">200</text></g><line x1="51.5625" y1="0" x2="51.5625" y2="377" fill="rgb(0, 0, 0)" stroke="rgb(204, 204, 204)" stroke-width="1px"></line></g></g><g transform="translate(51, 0)" clip-path="url(#clip_0)"><clipPath id="clip_0"><rect width="1497" height="376"></rect></clipPath><g><g><g><line x1="0" y1="0" x2="0" y2="377" fill="rgb(0, 0, 0)" stroke="rgb(189, 189, 189)" stroke-width="1px" opacity="0.25"></line><line x1="149.71875" y1="0" x2="149.71875" y2="377" fill="rgb(0, 0, 0)" stroke="rgb(189, 189, 189)" stroke-width="1px" opacity="0.25"></line><line x1="299.4375" y1="0" x2="299.4375" y2="377" fill="rgb(0, 0, 0)" stroke="rgb(189, 189, 189)" stroke-width="1px" opacity="0.25"></line><line x1="449.15625" y1="0" x2="449.15625" y2="377" fill="rgb(0, 0, 0)" stroke="rgb(189, 189, 189)" stroke-width="1px" opacity="0.25"></line><line x1="598.875" y1="0" x2="598.875" y2="377" fill="rgb(0, 0, 0)" stroke="rgb(189, 189, 189)" stroke-width="1px" opacity="0.25"></line><line x1="748.59375" y1="0" x2="748.59375" y2="377" fill="rgb(0, 0, 0)" stroke="rgb(189, 189, 189)" stroke-width="1px" opacity="0.25"></line><line x1="898.3125" y1="0" x2="898.3125" y2="377" fill="rgb(0, 0, 0)" stroke="rgb(189, 189, 189)" stroke-width="1px" opacity="0.25"></line><line x1="1048.03125" y1="0" x2="1048.03125" y2="377" fill="rgb(0, 0, 0)" stroke="rgb(189, 189, 189)" stroke-width="1px" opacity="0.25"></line><line x1="1197.75" y1="0" x2="1197.75" y2="377" fill="rgb(0, 0, 0)" stroke="rgb(189, 189, 189)" stroke-width="1px" opacity="0.25"></line><line x1="1347.46875" y1="0" x2="1347.46875" y2="377" fill="rgb(0, 0, 0)" stroke="rgb(189, 189, 189)" stroke-width="1px" opacity="0.25"></line><line x1="1497.1875" y1="0" x2="1497.1875" y2="377" fill="rgb(0, 0, 0)" stroke="rgb(189, 189, 189)" stroke-width="1px" opacity="0.25"></line></g><g><line x1="0" y1="377" x2="1497.1875" y2="377" fill="rgb(0, 0, 0)" stroke="rgb(189, 189, 189)" stroke-width="1px" opacity="0.25"></line><line x1="0" y1="342.7272727272727" x2="1497.1875" y2="342.7272727272727" fill="rgb(0, 0, 0)" stroke="rgb(189, 189, 189)" stroke-width="1px" opacity="0.25"></line><line x1="0" y1="308.45454545454544" x2="1497.1875" y2="308.45454545454544" fill="rgb(0, 0, 0)" stroke="rgb(189, 189, 189)" stroke-width="1px" opacity="0.25"></line><line x1="0" y1="274.1818181818182" x2="1497.1875" y2="274.1818181818182" fill="rgb(0, 0, 0)" stroke="rgb(189, 189, 189)" stroke-width="1px" opacity="0.25"></line><line x1="0" y1="239.9090909090909" x2="1497.1875" y2="239.9090909090909" fill="rgb(0, 0, 0)" stroke="rgb(189, 189, 189)" stroke-width="1px" opacity="0.25"></line><line x1="0" y1="205.63636363636363" x2="1497.1875" y2="205.63636363636363" fill="rgb(0, 0, 0)" stroke="rgb(189, 189, 189)" stroke-width="1px" opacity="0.25"></line><line x1="0" y1="171.36363636363637" x2="1497.1875" y2="171.36363636363637" fill="rgb(0, 0, 0)" stroke="rgb(189, 189, 189)" stroke-width="1px" opacity="0.25"></line><line x1="0" y1="137.0909090909091" x2="1497.1875" y2="137.0909090909091" fill="rgb(0, 0, 0)" stroke="rgb(189, 189, 189)" stroke-width="1px" opacity="0.25"></line><line x1="0" y1="102.81818181818181" x2="1497.1875" y2="102.81818181818181" fill="rgb(0, 0, 0)" stroke="rgb(189, 189, 189)" stroke-width="1px" opacity="0.25"></line><line x1="0" y1="68.54545454545453" x2="1497.1875" y2="68.54545454545453" fill="rgb(0, 0, 0)" stroke="rgb(189, 189, 189)" stroke-width="1px" opacity="0.25"></line><line x1="0" y1="34.27272727272729" x2="1497.1875" y2="34.27272727272729" fill="rgb(0, 0, 0)" stroke="rgb(189, 189, 189)" stroke-width="1px" opacity="0.25"></line><line x1="0" y1="0" x2="1497.1875" y2="0" fill="rgb(0, 0, 0)" stroke="rgb(189, 189, 189)" stroke-width="1px" opacity="0.25"></line></g></g></g><g><g><line x1="0" y1="68.54545454545453" x2="1497.1875" y2="68.54545454545453" fill="rgb(0, 0, 0)" stroke="rgb(153, 153, 153)" stroke-width="1.5px"></line></g></g><g><g><line x1="149.71875" y1="0" x2="149.71875" y2="377" fill="rgb(0, 0, 0)" stroke="rgb(153, 153, 153)" stroke-width="1.5px"></line></g></g><g><g><g><g><g><path stroke="rgb(255, 112, 67)" stroke-width="2px" d="M151.55729625,182.97373191139914L153.38985375000001,139.804266464927L155.22016546875,129.27499480125414L157.05122578125,120.78837528142061L158.8830346875,129.0231625774466L160.71634078124998,151.38093873207723L162.5481496875,157.99481824596833L164.3747184375,170.71897034656592L166.20727593750001,163.26269620968012L168.0368390625,146.47116705783847L169.86864796875,135.27374652752735L171.7019540625,123.92465892380112L173.53600875,119.96031492816151L175.3700634375,124.5389329029729L177.21534703125,162.65280046271332L179.05613906250002,191.52264825422196L180.89693109375,172.80555210442026L182.7422146875,138.84921493391113L184.5747721875,129.66569044486772L186.4058325,126.98132822954047L188.23988718750002,127.4299479367431L190.07169609375,115.85103530540206L191.90949375,124.3799401032996L193.7525315625,188.787259704742L195.60006093750002,170.0222448450827L197.44010437499998,143.96567582522627L199.27191328125002,133.4968599681699L201.102225,121.85499231003637L202.943765625,163.2710804591715L204.79204359375,145.9537064754479L206.64855609375,125.34327158587024L208.48785093749999,115.14057575369323L210.32564859375,137.75070113505444L212.166440625,151.4010894292879L214.01022703125,130.8123280694843L215.8480246875,132.74182490114302L217.68881671875002,81.88388146343465L219.54233484375,69.36791146625235L221.39884734375,118.80494534305343L223.24937109375,137.4781460748986L225.09540328125,123.50370800449178L226.94293265625,172.2307077141056L228.77623875,216.51021663343604L230.61553359374997,204.7828558857892L232.46081718749997,229.56213598610887L234.30610078125002,227.83874199638734L236.14839,224.35478295072053L237.9884334375,177.3411007846688L239.83072265625,145.87414585800607L241.6685203125,150.1138758981831L243.50556937500002,193.4011170430261L245.34336703125,147.9889508070711L247.19239359374998,151.84413956051006L249.04740890625,154.91192638545695L250.89194390625,174.40193598265364L252.73872468749997,209.9959770636823L254.5892484375,186.87012937341368L256.435280625,163.85736398435225L258.27906703125,141.41224115006443L260.1198590625,127.09494065949819L261.95615953124997,116.10305337940773L263.80069453125003,127.34131335088703L265.64672671874996,178.9335761408595L267.49874765625003,182.57469977276145L269.35526015625,147.97786066011005L271.20728109375,127.18091797576682L273.06229640625,112.86965303876703L274.91431734375,103.58016981259573L276.7685840625,103.47301073155158L278.6250965625,116.16549022688375L280.4816090625,127.21717444618884L282.33737296875,119.56022720300267L284.18939390625,124.58419856101504L286.04366062500003,115.63230174047976L287.89643015625,106.29208102320298L289.7521940625,102.40053903584118L291.6087065625,105.54888518075987L293.4652190625,113.000712744642L295.31798859375,111.17387559489421L297.17300390625,103.5971789918575L299.02427625,96.94413090641156L300.8792915625,94.83946606493181L302.7358040625,98.97221085844147L304.590819375,100.05022890875274L306.4458346875,96.54374329673425L308.29860421875003,93.48816508565108L310.1528709375,92.22812491059919L312.0063890625,91.31881224660809L313.86215296875,93.97201705932403L315.717916875,90.84818347306559L317.57368078125,99.42931648365294L319.424953125,115.99300672146839L321.27996843750003,123.67053872415408L323.13348656249997,132.70565113754643L324.98625609375,132.4548876307701L326.84127140625003,137.11852607322413L328.695538125,132.61508700180022L330.55130203125,135.38494979518524L332.402574375,138.25259850038L334.2575896875,138.905758779516L336.10586765625004,129.0871120725746L337.95938578125,131.79018694347374L339.8136525,149.33073888616593L341.66866781249996,146.86007099505184L343.52293453125,150.57156569051477L345.37794984375,147.6900815485418L347.2292221875,145.49100162687898L349.08199171875,151.36661950862032L350.93401265625,150.56798908909443L352.785285,138.41819832184262L354.6403003125,128.39447559489005L356.49606421875,124.4039268508527L358.3503309375,136.26725296664623L360.202351875,126.42184366508627L362.05587,126.92734770961643L363.90863953125,140.16722825023717L365.76290624999996,141.13797025092353L367.61867015625,137.90529861894905L369.472936875,132.78274997215067L371.32645499999995,125.50977413989553L373.1784759375,125.44723055615856L375.02974828124997,127.3568948467012L376.88401500000003,121.43254188737971L378.73977890625,113.6460588820949L380.594045625,116.50318168268376L382.44980953124997,118.78785654711916L384.30332765625,115.43336776460849L386.15834296875,113.03097911046962L388.0111125,112.63507328393094L389.86762500000003,110.80831091316308L391.72189171875,101.68805447031663L393.57690703124996,105.52942690659961L395.43192234375,113.53131206658938L397.28544046875,110.5656635133689L399.13821,104.60708512806309L400.9932253125,102.28126414390992L402.84898921875,108.89265797254095L404.70325593750005,114.240952516124L406.5597684375,111.3422359661286L408.4132865625,113.5654826263746L410.26755328124995,123.90854747710316L412.11957421875,115.64352324223223L413.97608671874997,109.3152030067296L415.82960484375,115.1178419578464L417.68462015625,113.44795139330245L419.53888687500006,103.0119614737434L421.39315359375,105.78003985477159L423.24667171875,114.6265729018988L425.10243562500006,128.08650482068475L426.95819953125005,126.23023011852948L428.81246625,124.22611280811164L430.6674815625,119.93866604801505L432.5209996875,115.73696114780763L434.37526640625,115.03865363404147L436.22878453124997,113.55549404088741L438.08379984375,107.88767594945699L439.9380665625,109.44247442176935L441.79308187500004,102.48394613710373L443.64585140625,102.44490661714326L445.50086671875,108.97112366888324L447.35513343749994,109.48908554776547L449.20940015625,99.81714118683578L451.06441546875,98.019084977327L452.917185,104.86159182224489L454.77145171875,96.45779417415748L456.62496984374997,88.43752329515499L458.47848796875,96.15239401526767L460.33275468749997,110.3769019187487L462.184775625,122.70370696379358L464.03529937499997,126.627222624654L465.88657171875,118.68566062057984L467.7348496875,122.2437843228983L469.58687062499996,116.42286534804475L471.43889156250003,111.43706562772775L473.293906875,108.78501632643248L475.14967078125005,100.45597649285875L477.00618328124995,113.31647386291165L478.85820421875,117.48931451017421L480.71172234374995,116.85579251358853L482.564491875,121.14936520097986L484.41875859375006,124.89337960753744L486.26928234375,121.14292281734564L488.12280046875,124.13738637528841L489.97781578125,124.13822087657572L491.83133390625,124.73677899478423L493.68335484375,118.16280826656603L495.53687296875,116.93008698186792L497.38739671875004,111.3600224760969L499.24016625,116.65303966419154L501.09143859375,114.23620776513422L502.94570531249997,107.30069105922702L504.79922343749996,107.53162222997426L506.65349015625003,94.23752213975347L508.50551109375004,93.92640469121181L510.35603484375,107.07773249090785L512.2103015625,108.24287042383268L514.06606546875,114.34864325816149L515.921829375,121.78097108895231L517.7768446875,120.83674644398748L519.6311114062499,115.93736829541416L521.48612671875,116.47007239437389L523.3373990625,116.79538884567086L525.19316296875,112.2542902975925L527.048926875,105.29522253560008L528.90319359375,97.92216246728292L530.75970609375,100.03694998503057L532.612475625,108.14356837303184L534.46599375,109.24215609950272L536.319511875,101.13381941931188L538.1737785937501,99.89469163993493L540.02879390625,102.48892656177526L541.8845578125,115.25184815785705L543.73882453125,120.96901670943367L545.59309125,114.07072399605262L547.44735796875,103.08695298561098L549.30237328125,102.62221764818918L551.1551428125,106.21401179119513L553.0101581250001,108.25535382154325L554.866670625,106.22172928011966L556.72093734375,105.85988618423833L558.5752040625,101.98333099976087L560.4287221875001,105.79711097945084L562.280743125,105.67358116841446L564.1350098437499,103.50980067026478L565.99077375,106.47041763915283L567.8457890625,105.55231741976212L569.7000557812501,103.3784865544851L571.5558196875,105.02432327535354L573.41008640625,104.34823624648432L575.26360453125,93.67843249274145L577.11787125,78.57262570491774L578.97438375,79.44059941254139L580.82565609375,85.16369872833538L582.6799228125,84.66251936351044L584.5349381249999,89.21597018910683L586.38920484375,91.23406806705519L588.24272296875,81.09679703811044L590.0977382812499,74.64095989234427L591.9505078125,78.54475764677687L593.80327734375,85.28433922662703L595.6582926562501,87.37221031698205L597.51330796875,82.00395139930401L599.36682609375,86.85953097641213L601.2210928125,93.80353992484764L603.07386234375,96.8575051555256L604.92738046875,100.4009518764963L606.7816471875,103.3888919793912L608.63741109375,87.72773743463014L610.4916778125,76.10806212325363L612.346693125,77.70879867476452L614.197216875,83.85922324671773L616.05148359375,84.05146075994247L617.9072475,92.13185966020023L619.76151421875,94.89747961836355L621.617278125,93.21842668592404L623.47004765625,92.4514771818758L625.32506296875,89.51086172582916L627.17708390625,80.51165496246612L629.03060203125,69.83472864808958L630.8833715625,66.10976477480236L632.7376382812499,65.84537727391684L634.591905,76.76955564624372L636.445423125,75.72050468762862L638.29819265625,79.45140374530531L640.152459375,79.75121789776246L642.0052289062501,78.8977020278587L643.85724984375,73.57910647013598L645.71076796875,78.05283349711617L647.5650346875,78.59768769564857L649.41930140625,83.34978424824847L651.273568125,90.674572325627L653.1285834375,84.11214399060769L654.9821015625,79.1425959123117L656.837116875,83.15057775834673L658.690635,79.01712271493903L660.5441531250001,96.972492528777L662.39841984375,88.06843747907484L664.25343515625,91.01270366176131L666.10695328125,97.42471253741101L667.9627171875001,97.8537509205512L669.8162353125,73.08447606058711L671.67199921875,75.9755955415258L673.52252296875,85.82994206945561L675.3752925,83.29735457591853L677.2273134375,87.26592465850389L679.0808315625,95.37124389866234L680.93659546875,93.56122543188205L682.792359375,94.00972216431393L684.6458775,93.07473754552548L686.5008928125001,74.73517845649233L688.3544109375,68.96854776783736L690.20568328125,75.19362156952698L692.0584528125,80.45332841213083L693.91421671875,85.17113771111906L695.76923203125,75.55416862049022L697.62349875,81.5441529750507L699.477016875,86.89368580746917L701.32978640625,88.19305605152027L703.1825559375,94.47132822930084L705.03532546875,90.05779641184589L706.89183796875,89.97325703051261L708.7453560937499,93.33391179609966L710.60112,96.10344177093037L712.4561353125,94.89781959303144L714.3096534375,92.92606627447343L716.16242296875,92.29995917552836L718.01743828125,90.44244711564636L719.87095640625,90.85158580645282L721.72297734375,77.13330898897644L723.5772440625001,75.34206407151699L725.43001359375,71.34139965028265L727.2827831249999,73.69060150198376L729.1385470312499,78.09852342948837L730.99206515625,81.67198298469498L732.8448346875,76.24320772353543L734.69985,83.05407674482795L736.553368125,74.15950095495563L738.4083834375,68.45376514123289L740.2626501562501,74.77688515285497L742.1154196875,73.87194852238257L743.96669203125,72.24673579347076L745.8194615625,69.70915040268214L747.67073390625,74.47781713064738L749.5220062499999,80.14369256443247L751.3747757812499,83.66696853909228L753.2305396875,89.0886680591576L755.085555,94.28290182148973L756.93832453125,82.52747739223526L758.7925912500001,83.53582322317185L760.64536078125,90.77408394966129L762.4973817187499,94.93998798687329L764.3486540624999,90.66959993379214L766.20142359375,74.49081192893647L768.0504501562501,57.176852272440904L769.904716875,48.7906624720849L771.758235,49.20378182301702L773.6102559374999,54.0318099582345L775.4615282812499,60.82579993680203L777.3113034375,71.84469228258236L779.1588328124999,81.31181409058547L781.007859375,86.86947912928912L782.85763453125,77.50977147200537L784.7051639062499,67.51214436347225L786.55643625,59.58786505103348L788.4084571875,52.903048845184145L790.25972953125,54.86403175933663L792.11175046875,60.568702003749124L793.9637714062501,57.65851711872009L795.8142951562501,59.74995121916349L797.6655675000001,75.13658630988942L799.5183370312501,82.19245209110947L801.3711065625,89.20020805165164L803.22237890625,87.21982042924652L805.07365125,82.2201722750539L806.924175,82.4846705591907L808.77694453125,82.05525254192423L810.63046265625,100.34838684897377L812.48398078125,97.6441966379709L814.33749890625,81.96648443702837L816.191765625,67.50687282053113L818.04528375,57.494721553868764L819.8943103125,63.99409303745431L821.74633125,67.54992730691693L823.5991007812501,77.8070760297024L825.44812734375,73.70796324161876L827.29865109375,66.76111841433162L829.14767765625,56.91596926359805L831.00269296875,49.45593342583465L832.85770828125,63.16627632802826L834.7134721875001,72.05040746080181L836.5699846875,67.44201670506884L838.4242514062499,73.18149338985148L840.27477515625,56.68064646947996L842.1275446875,44.36561903292201L843.98181140625,57.4621282744174L845.8375753125,60.272083277905026L847.6933392187501,56.68181238073893L849.5476059375,63.90856559519694L851.399626875,61.359175312373885L853.25239640625,54.56274295264981L855.10741171875,44.55541722822164L856.96242703125,60.70620159065059L858.8144479687501,63.90665477921128L860.66796609375,53.212571516874235L862.52148421875,45.752473712903345L864.37425375,55.60478404075244L866.2285204687499,67.45423924325475L868.084284375,76.52393572873652L869.9392996875,81.36553271576196L871.7928178125,89.64442065651238L873.647833125,87.85816859319279L875.50135125,84.42713261648696L877.354869375,91.33880488006174L879.21063328125,96.32912672242625L881.0641514062501,89.99611026918463L882.91916671875,64.88093681913686L884.77567921875,68.3965188997457L886.62919734375,81.6519539507095L888.4827154687499,76.5541844854707L890.3369821875,77.01623092485289L892.19124890625,87.64412914107118L894.04626421875,92.37923392940031L895.9005309375,70.72490776708624L897.7555462500001,55.77951131064238L899.609064375,63.56440610084965L901.4640796875,68.2956957332082L903.319095,72.96561192151451L905.1726131249999,81.6571673848423L907.0253826562499,76.27765052856164L908.879649375,76.0987023097129L910.7346646875,77.6669824276424L912.5904285937501,85.98579096359892L914.4461924999999,91.751900364958L916.30045921875,85.4366098525974L918.1547259375001,88.2633108018061L920.0082440625,90.76328767848247L921.8625107812501,86.59579440246632L923.71602890625,89.47673737257L925.5717928124999,93.44277422396813L927.42755671875,91.67993667627097L929.2818234375001,80.58135175858408L931.1345929687501,95.89368125001907L932.9888596874999,96.11070508235339L934.84312640625,81.89988401118742L936.69814171875,81.8387950113156L938.55315703125,84.36964299994234L940.40742375,85.48218345233136L942.2624390625,87.40053048321963L944.11520859375,85.44936007127058L945.96872671875,77.03612000519243L947.82224484375,80.7645731261623L949.6735171875,85.30314523733624L951.5285325,89.55190808300902L953.3820506249999,84.40905075440189L955.2355687500001,95.53772459770505L957.0920812500001,93.80065953612217L958.9463479687499,73.61877788220683L960.7998660937501,79.40774031081158L962.65338421875,91.71404981503808L964.50540515625,79.82270225008467L966.36042046875,81.5295994633986L968.21393859375,88.24613049990529L970.0704510937501,71.45609526438743L971.92546640625,73.92560284635994L973.7782359375,65.78743956925507L975.6302568750001,65.1143041623627L977.483775,73.25739451191073L979.3365445312501,81.87822920703542L981.19006265625,88.21820755207551L983.044329375,78.4066336643935L984.9008418750001,77.47025067315666L986.75361140625,69.71191088876286L988.607878125,45.835750315217936L990.46064765625,38.046636415715454L992.31266859375,45.34432797702603L994.165438125,42.4085950605853L996.0174590625,51.30799525712089L997.8739715625,63.54475816667932L999.72823828125,66.59943623663591L1001.5795106249999,85.3146837257351L1003.43377734375,79.3989430876486L1005.2872954687499,78.24845462475601L1007.1415621875,68.02880560039293L1008.993583125,68.85674327591708L1010.8485984375001,74.6859631117128L1012.6983735937499,73.00140698107461L1014.551143125,83.604547238738L1016.40540984375,92.06395409841414L1018.2596765625001,75.771673986592L1020.1102003125001,70.41105192655104L1021.9644670312499,68.71361111056346L1023.8142421875,70.21053246459468L1025.6677603125,78.57958836081468L1027.51903265625,76.50862441749533L1029.3703050000001,84.32690695307619L1031.22457171875,93.69781068962361L1033.080335625,98.06691118683437L1034.9353509375,101.8415167627043L1036.79036625,93.27616418304427L1038.6453815625,93.67681246246332L1040.4974025000001,86.26349416859568L1042.35166921875,70.45832066664038L1044.2029415625,46.42988700891535L1046.051968125,54.38438549507478L1047.90623484375,66.02960484107894L1049.7605015625,77.01716949866373L1051.6140196875,84.44317525100041L1053.469035,83.5277947893276L1055.32330171875,91.0838369327452L1057.17532265625,96.8096287032817L1059.03033796875,89.48795989256227L1060.8861018750001,85.6526923839571L1062.74036859375,86.80895117644583L1064.59538390625,91.46619549335419L1066.4511478125,81.4524306093753L1068.30391734375,71.63283598042676L1070.15743546875,91.68590348145564L1072.0117021875,96.60273814211823L1073.86447171875,86.42378652232122L1075.7172412500001,92.67109238680362L1077.5722565625001,88.45376895053697L1079.427271875,86.43941225616423L1081.2815385937502,60.16956666522195L1083.1373025,51.50885063090255L1084.98707765625,62.33862932191199L1086.83909859375,78.26254193418946L1088.69111953125,76.04951128541933L1090.54613484375,82.56431669556805L1092.4004015625,84.88776363877855L1094.2569140625,84.69161250677567L1096.111929375,81.15327762230716L1097.9639503125,86.70813687534182L1099.81522265625,89.89069610669485L1101.669489375,84.16043329803345L1103.5252532812501,82.06155344902939L1105.38026859375,82.6544346204097L1107.23678109375,87.56245599929662L1109.08880203125,85.66751584700339L1110.9408229687501,94.17595233490655L1112.7950896875,101.17958400192941L1114.6501050000002,98.32775106977L1116.5051203125001,95.10728742997016L1118.360135625,93.26623339770155L1120.21589953125,100.30490054998455L1122.0694176562502,96.50891125783612L1123.92143859375,94.59116353825988L1125.77645390625,97.95483700290535L1127.63296640625,98.1680205405882L1129.487233125,87.26480082061313L1131.34075125,88.63131492673845L1133.19352078125,94.74849761582199L1135.0462903124999,98.65742983780373L1136.90205421875,93.6116184473378L1138.75706953125,85.40523638441218L1140.6128334375,89.19183247118355L1142.4671001562501,96.76447823359793L1144.32211546875,92.72363026624186L1146.17413640625,92.77341199652604L1148.028403125,86.3623242371834L1149.88192125,82.1908826321316L1151.735439375,82.55271165269872L1153.591951875,76.80638981940574L1155.44621859375,71.99967165638344L1157.29973671875,77.68228023603973L1159.1540034375,79.186324943992L1161.0075215625,82.73726807763457L1162.86178828125,83.15013471548829L1164.71680359375,90.13867458761595L1166.5710703124998,86.55558204277507L1168.42683421875,88.98591284926684L1170.27960375,93.52916824289638L1172.1346190625,92.63705609377584L1173.9881371875,88.86889205914193L1175.8416553125,92.1716209660205L1177.69741921875,98.39288922500913L1179.55243453125,100.92322530635667L1181.4081984375,95.53621919704199L1183.2617165625,97.39309507135906L1185.11448609375,98.96229647929451L1186.9687528125,88.55239010743921L1188.8222709375,83.91798314435856L1190.67728625,81.85056767287L1192.53305015625,82.2862517004683L1194.38806546875,85.67095579323022L1196.24158359375,85.54640724252856L1198.094353125,86.90850530493432L1199.94712265625,90.61402114893626L1201.7991435937502,87.48956513437463L1203.651913125,84.4209234428629L1205.50617984375,80.80843130806613L1207.358949375,81.61698212052195L1209.21321609375,79.25677443161493L1211.06898,83.99421351261776L1212.9210009375,87.10234080177341L1214.7745190624998,89.11315343514343L1216.629534375,94.99487590896427L1218.4823039062499,94.94949864330113L1220.3380678125,87.65694908402425L1222.193083125,94.85246205017926L1224.04734984375,83.78441310521994L1225.89937078125,61.50228121385107L1227.75288890625,68.27525741544441L1229.60640703125,73.10733354999685L1231.4584279687501,74.48286741099288L1233.31194609375,71.19813559298994L1235.164715625,79.78484217677233L1237.0197309375,82.82959753351366L1238.87250046875,84.44949338616377L1240.72527,75.21273093548469L1242.57803953125,75.15025950106576L1244.4308090625,85.54901611323712L1246.2843271875,86.3343033474744L1248.1393424999999,84.08293068568632L1249.9913634375,88.06113964809505L1251.8448815625,78.42049653299763L1253.6983996875001,85.80539042967519L1255.55416359375,87.25845894208688L1257.40917890625,87.49002038506084L1259.26119984375,84.7425682585356L1261.11621515625,75.80644729944841L1262.9704818750001,83.23037314873423L1264.8269943750001,81.93444476576087L1266.6797639062502,75.54456463163868L1268.5325334375,68.00113815697945L1270.38380578125,66.66137161731834L1272.2365753125,71.70415298540009L1274.0900934375,81.897481121185L1275.9406171875,79.63595888686118L1277.79488390625,73.69017284202107L1279.64690484375,72.87447420803134L1281.50192015625,80.79349966320217L1283.35693546875,74.91464973404246L1285.2119507812502,75.72946712189189L1287.0662175,84.76757081767968L1288.9197356250002,84.24507291663319L1290.7717565625,78.92217568076467L1292.6245260937499,86.83979432780363L1294.47804421875,81.81307643688103L1296.3323109374999,74.39337965549129L1298.1835832812499,77.35760561034466L1300.0393471875,90.36446314925458L1301.8898709375,109.9273267820421L1303.73814890625,125.78670858032258L1305.586426875,109.86314540687162L1307.439945,90.79098645954375L1309.2919659375,85.23365233104856L1311.14623265625,78.92752838716491L1312.997505,78.70470718802181L1314.851023125,83.84999946429127L1316.70379265625,79.78107895214539L1318.55581359375,73.60807140263155L1320.4093317187499,85.89571009011411L1322.26434703125,86.90103076542765L1324.11936234375,83.11552869318771L1325.972131875,75.67123958092785L1327.8271471875,64.90504522477515L1329.67617375,60.01219720794085L1331.5304404687502,67.28238058617254L1333.386204375,77.70755445588502L1335.23897390625,84.1130537972437L1337.09249203125,87.32140845576987L1338.9452615625,91.44034855246582L1340.8010254687501,91.36768847940209L1342.65454359375,89.77863592588699L1344.50955890625,91.19520302048693L1346.3623284374999,86.6621291850616L1348.2128521875,82.01988642272465L1350.06412453125,82.89009822159909L1351.91913984375,83.94632257986554L1353.7734065625,87.82720042491681L1355.628421875,82.60677117505507L1357.4804428125,91.91554264943554L1359.3332123437501,91.03997179937814L1361.185981875,83.15769416277897L1363.0409971875001,86.48218995625223L1364.8960125,92.12409948788932L1366.7502792187502,92.0046214192517L1368.6052945312501,89.45340609684574L1370.45881265625,85.81895084305509L1372.3115821874999,87.09560390149623L1374.16584890625,86.97774364416479L1376.0186184375,87.66870454720551L1377.8743823437499,75.54340916575673L1379.72790046875,78.4466927648016L1381.57992140625,79.82972492762431L1383.434188125,81.13641866351702L1385.2892034375,84.0332892377165L1387.14347015625,75.74513743589608L1388.9977368749999,80.132524263129L1390.84900921875,94.25807562077689L1392.7017787500001,97.89169026271382L1394.5530510937501,92.94999144561434L1396.40357484375,87.56737028143667L1398.256344375,87.87725549572191L1400.1083653125,86.3587935842429L1401.96038625,86.0940525052488L1403.8146529687501,75.50047947886281L1405.66966828125,82.55808708695369L1407.52168921875,78.70334590243525L1409.37670453125,73.29983553259994L1411.23097125,78.54646639690814L1413.08374078125,80.53081166881118L1414.9380075,77.36539015548648L1416.791525625,82.75628445839308L1418.6427979687498,86.3864352896266L1420.4955674999999,84.92129659858067L1422.349085625,83.66277325111838L1424.20484953125,88.11308385590009L1426.05911625,90.23301242014071L1427.9141315625,89.50215915052638L1429.769146875,91.42223691321176L1431.6226649999999,88.04842758466133L1433.476183125,90.84982785761497L1435.33194703125,86.28159399267844L1437.18247078125,77.70885360338738L1439.0352403125,77.48715105418884L1440.88726125,82.46803033005635L1442.7362878125,78.56525016117413L1444.5845657812501,89.39533725823678L1446.43359234375,91.46382569034692" style="fill: none;" fill="none"></path></g></g></g></g><g opacity="0.2"><g><g><g><path stroke="rgb(255, 112, 67)" stroke-width="2px" d="M151.55729625,182.97373191139914L153.38985375000001,113.90258719704369L155.22016546875,119.1668940041282L157.05122578125,110.80811072609643L158.8830346875,139.77450087113817L160.71634078124998,182.30979195334697L162.5481496875,167.45277177290484L164.3747184375,189.2709062610973L166.20727593750001,152.266140164462L168.0368390625,121.53770321932708L169.86864796875,118.57917551214044L171.7019540625,106.96278875177558L173.53600875,114.02674320567738L175.3700634375,131.39788987593215L177.21534703125,219.77880038174715L179.05613906250002,234.80705868807706L180.89693109375,144.73782832752576L182.7422146875,87.92333068847654L184.5747721875,115.89180272882636L186.4058325,122.95503026788884L188.23988718750002,128.10285289417615L190.07169609375,98.48304736744272L191.90949375,137.17312891179864L193.7525315625,285.39747614080255L195.60006093750002,141.874855929288L197.44010437499998,104.88093341480601L199.27191328125002,117.79366296941585L201.102225,104.39220869584517L202.943765625,225.39517453280362L204.79204359375,119.97765507091178L206.64855609375,94.42762608614832L208.48785093749999,99.8365340354226L210.32564859375,171.6658865079013L212.166440625,171.87667089288885L214.01022703125,99.92918691461736L215.8480246875,135.63607009887696L217.68881671875002,5.596967093727818L219.54233484375,50.59395658666437L221.39884734375,192.96049588290128L223.24937109375,165.48794711026278L225.09540328125,102.54205092690206L226.94293265625,245.32120721990412L228.77623875,282.9294799804687L230.61553359374997,187.1918147693981L232.46081718749997,266.7310561301491L234.30610078125002,225.25365101207387L236.14839,219.1288443825462L237.9884334375,106.8205775382302L239.83072265625,98.67371346907181L241.6685203125,156.47347095836292L243.50556937500002,258.3319787597656L245.34336703125,79.87070145346904L247.19239359374998,157.62692269065164L249.04740890625,159.5136066228693L250.89194390625,203.63695037841794L252.73872468749997,263.3870386851918L254.5892484375,152.18135783802379L256.435280625,129.33821590076795L258.27906703125,107.74455689863724L260.1198590625,105.61898992365059L261.95615953124997,99.61522245927291L263.80069453125003,144.19870330810548L265.64672671874996,256.3219703258168L267.49874765625003,188.03638522061433L269.35526015625,96.08260199113326L271.20728109375,95.98550394925206L273.06229640625,91.4027556332675L274.91431734375,89.64594497333871L276.7685840625,103.31227210998536L278.6250965625,135.20420946988193L280.4816090625,143.79470077514648L282.33737296875,108.07480633822355L284.18939390625,132.12015559803356L286.04366062500003,102.20445650967685L287.89643015625,92.28174994728782L289.7521940625,96.56322605479848L291.6087065625,110.27140439813788L293.4652190625,124.1784540904652L295.31798859375,108.43361987027254L297.17300390625,92.23213408730247L299.02427625,86.96455877824263L300.8792915625,91.6824688027122L302.7358040625,105.17132804870604L304.590819375,101.66725598421965L306.4458346875,91.2840148787065L308.29860421875003,88.90479776902633L310.1528709375,90.33806464802134L312.0063890625,89.95484325062145L313.86215296875,97.95182427839799L315.717916875,86.16243309367785L317.57368078125,112.3010159995339L319.424953125,140.83854207819158L321.27996843750003,135.18683672818273L323.13348656249997,146.25831975763495L324.98625609375,132.07874237060548L326.84127140625003,144.1139837369052L328.695538125,125.85992839466442L330.55130203125,139.53974398526276L332.402574375,142.55407155817207L334.2575896875,139.88549919821997L336.10586765625004,114.35914201216266L337.95938578125,135.84479924982247L339.8136525,175.6415668002042L341.66866781249996,143.1540691583807L343.52293453125,156.13880773370917L345.37794984375,143.3678553355824L347.2292221875,142.19238174438473L349.08199171875,160.18004633123223L350.93401265625,149.3700434598056L352.785285,120.19351217096504L354.6403003125,113.3588915044611L356.49606421875,118.41810373479669L358.3503309375,154.06224214033648L360.202351875,111.65372971274635L362.05587,127.68560377641158L363.90863953125,160.02704906116833L365.76290624999996,142.59408325195312L367.61867015625,133.0562911709872L369.472936875,125.09892700195311L371.32645499999995,114.60031039151276L373.1784759375,125.35341518055309L375.02974828124997,130.22139128251507L376.88401500000003,112.54601244839758L378.73977890625,101.96633437416772L380.594045625,120.7888658835671L382.44980953124997,122.21486884377221L384.30332765625,110.40163459084249L386.15834296875,109.42739612926137L388.0111125,112.04121454412287L389.86762500000003,108.06816735701129L391.72189171875,88.00766980604692L393.57690703124996,111.29148556102406L395.43192234375,125.53413980657405L397.28544046875,106.11719068353825L399.13821,95.66921755010432L400.9932253125,98.7925326676802L402.84898921875,118.80974871548737L404.70325593750005,122.26339433149856L406.5597684375,106.99416114113549L408.4132865625,116.9003526167436L410.26755328124995,139.42314475319603L412.11957421875,103.24598688992587L413.97608671874997,99.82272265347568L415.82960484375,123.82180038452147L417.68462015625,110.9431155464866L419.53888687500006,87.35797659440475L421.39315359375,109.93215742631392L423.24667171875,127.89637247258968L425.10243562500006,148.27640269886365L426.95819953125005,123.44581806529654L428.81246625,121.2199368424849L430.6674815625,113.50749590787022L432.5209996875,109.43440379749643L434.37526640625,113.99119236339223L436.22878453124997,111.33075465115633L438.08379984375,99.38594881231136L439.9380665625,111.77467213023795L441.79308187500004,92.0461537101052L443.64585140625,102.38634733720258L445.50086671875,118.76044924649324L447.35513343749994,110.26602836608886L449.20940015625,85.30922464544122L451.06441546875,95.32200066306376L452.917185,115.1253520896218L454.77145171875,83.85209770202636L456.62496984374997,76.40711697665128L458.47848796875,107.7247000954368L460.33275468749997,131.71366377397018L462.184775625,141.193914531361L464.03529937499997,132.51249611594463L465.88657171875,106.77331761446865L467.7348496875,127.58096987637605L469.58687062499996,107.6914868857644L471.43889156250003,103.9583660472523L473.293906875,104.80694237448954L475.14967078125005,87.96241674249822L477.00618328124995,132.60721991799096L478.85820421875,123.748575481068L480.71172234374995,115.90550951871008L482.564491875,127.58972423206676L484.41875859375006,130.50940121737395L486.26928234375,115.51723763205787L488.12280046875,128.6290817122026L489.97781578125,124.13947262850677L491.83133390625,125.63461617209694L493.68335484375,108.30185217423873L495.53687296875,115.08100505482066L497.38739671875004,103.00492571744053L499.24016625,124.59256544633345L501.09143859375,110.6109599165483L502.94570531249997,96.89741600036619L504.79922343749996,107.87801898609507L506.65349015625003,74.29637200442228L508.50551109375004,93.45972851839932L510.35603484375,126.80472419045188L512.2103015625,109.99057732322001L514.06606546875,123.50730250965465L515.921829375,132.9294628351385L517.7768446875,119.4204094765403L519.6311114062499,108.58830107255415L521.48612671875,117.26912854281338L523.3373990625,117.2833635226163L525.19316296875,105.44264247547497L527.048926875,94.8566208926114L528.90319359375,86.86257236480712L530.75970609375,103.20913126165215L532.612475625,120.30349595503374L534.46599375,110.89003768920897L536.319511875,88.97131439902564L538.1737785937501,98.0359999708696L540.02879390625,106.38027894453569L541.8845578125,134.39623055197976L543.73882453125,129.54476953679864L545.59309125,103.72328492598102L547.44735796875,86.61129646994851L549.30237328125,101.92511464205654L551.1551428125,111.60170300570401L553.0101581250001,111.31736686706543L554.866670625,103.1712924679843L556.72093734375,105.31712154041638L558.5752040625,96.16849822304465L560.4287221875001,111.5177809489857L562.280743125,105.48828645185992L564.1350098437499,100.2641299230402L565.99077375,110.9113430924849L567.8457890625,104.17516709067604L569.7000557812501,100.11774025656962L571.5558196875,107.49307835665617L573.41008640625,103.3341057031805L575.26360453125,77.67372686212713L577.11787125,55.91391552318228L578.97438375,80.74255997397684L580.82565609375,93.74834770202635L582.6799228125,83.91075031627307L584.5349381249999,96.04614642750134L586.38920484375,94.26121488397773L588.24272296875,65.89089049469342L590.0977382812499,64.95720417369496L591.9505078125,84.40045427842576L593.80327734375,95.39371159640226L595.6582926562501,90.50401695251466L597.51330796875,73.95156302278693L599.36682609375,94.1429003420743L601.2210928125,104.21955334750089L603.07386234375,101.43845300154251L604.92738046875,105.71612195795231L606.7816471875,107.87080213373359L608.63741109375,64.23600561748853L610.4916778125,58.678549156188986L612.346693125,80.10990350203082L614.197216875,93.08486010464756L616.05148359375,84.33981702977962L617.9072475,104.25245801058684L619.76151421875,99.04590955560859L621.617278125,90.69984728726472L623.47004765625,91.30105292580343L625.32506296875,85.09993854175913L627.17708390625,67.01284481742165L629.03060203125,53.81933917652476L630.8833715625,60.5223189648715L632.7376382812499,65.44879602258858L634.591905,93.1558232047341L636.445423125,74.14692824970591L638.29819265625,85.0477523318204L640.152459375,80.2009391264482L642.0052289062501,77.61742822300303L643.85724984375,65.60121313355185L645.71076796875,84.76342403758657L647.5650346875,79.41496899344705L649.41930140625,90.47792907714843L651.273568125,101.66175444169477L653.1285834375,74.26850148807873L654.9821015625,71.68827379486777L656.837116875,89.16255052739923L658.690635,72.81694014982743L660.5441531250001,123.9055472495339L662.39841984375,74.7123549045216L664.25343515625,95.42910293579102L666.10695328125,107.04272585088555L667.9627171875001,98.49730849526146L669.8162353125,35.930563770641L671.67199921875,80.3122747629339L673.52252296875,100.61146186135032L675.3752925,79.4984733356129L677.2273134375,93.21877978238193L679.0808315625,107.52922275890003L680.93659546875,90.84619773171164L682.792359375,94.68246726296167L684.6458775,91.67226061734284L686.5008928125001,47.225839822942575L688.3544109375,60.318601734854944L690.20568328125,84.53123227206144L692.0584528125,88.34288867603651L693.91421671875,92.24785165960137L695.76923203125,61.128714984546995L697.62349875,90.52912950689144L699.477016875,94.91798505609685L701.32978640625,90.142111417597L703.1825559375,103.88873649597168L705.03532546875,83.4374986856634L706.89183796875,89.84644795851273L708.7453560937499,98.37489394448022L710.60112,100.25773673317651L712.4561353125,93.08938632618295L714.3096534375,89.9684362966364L716.16242296875,91.3607985271107L718.01743828125,87.65617902582342L719.87095640625,91.46529384266246L721.72297734375,56.5558937627619L723.5772440625001,72.65519669532776L725.43001359375,65.34040301843123L727.2827831249999,77.21440427953547L729.1385470312499,84.71040632074528L730.99206515625,87.0321723175049L732.8448346875,68.10004483179611L734.69985,93.2703802767667L736.553368125,60.817637270147145L738.4083834375,59.89516142064873L740.2626501562501,84.26156517028808L742.1154196875,72.51454357667401L743.96669203125,69.80891670010308L745.8194615625,65.9027723164992L747.67073390625,81.63081722259523L749.5220062499999,88.6425057151101L751.3747757812499,88.95188250108198L753.2305396875,97.22121733925559L755.085555,102.07425246498799L756.93832453125,64.89434074835343L758.7925912500001,85.04834196957675L760.64536078125,101.63147503939543L762.4973817187499,101.18884404269131L764.3486540624999,84.26401785417035L766.20142359375,50.222629921653045L768.0504501562501,31.205912787697518L769.904716875,36.211377771550964L771.758235,49.82346084941518L773.6102559374999,61.27385216106069L775.4615282812499,71.01678490465336L777.3113034375,88.37303080125288L779.1588328124999,95.51249680259012L781.007859375,95.20597668734462L782.85763453125,63.47020998607981L784.7051639062499,52.515703700672496L786.55643625,47.70144608237526L788.4084571875,42.87582453641023L790.25972953125,57.805506130565284L792.11175046875,69.12570737036792L793.9637714062501,53.29323979117652L795.8142951562501,62.887102369828646L797.6655675000001,98.21653894597833L799.5183370312501,92.77625076293944L801.3711065625,99.71184199246493L803.22237890625,84.24923899563878L805.07365125,74.72070004376499L806.924175,82.88141798539597L808.77694453125,81.41112551602448L810.63046265625,127.7880883095481L812.48398078125,93.58791132146663L814.33749890625,58.44991613561455L816.191765625,45.81745539578523L818.04528375,42.47649465387518L819.8943103125,73.74315026283264L821.74633125,72.88367871111089L823.5991007812501,93.19279911388051L825.44812734375,67.55929405949333L827.29865109375,56.3408511734009L829.14767765625,42.14824553749778L831.00269296875,38.26587966918946L832.85770828125,83.7317906813188L834.7134721875001,85.37660415996206L836.5699846875,60.52943057146941L838.4242514062499,81.79070841702547L840.27477515625,31.929376088922687L842.1275446875,25.893077878085066L843.98181140625,77.1068921366605L845.8375753125,64.48701578313653L847.6933392187501,51.29640603498978L849.5476059375,74.74869541688398L851.399626875,57.53508988813922L853.25239640625,44.36809441306373L855.10741171875,29.54442864157937L856.96242703125,84.93237813429398L858.8144479687501,68.70733456205237L860.66796609375,37.171446623368695L862.52148421875,34.56232700694692L864.37425375,70.38324953252616L866.2285204687499,85.22842204700815L868.084284375,90.12848045695912L869.9392996875,88.62792819630015L871.7928178125,102.06275256763807L873.647833125,85.17879049821333L875.50135125,79.28057865142823L877.354869375,101.70631327542391L879.21063328125,103.81460948597301L881.0641514062501,80.49658558932217L882.91916671875,27.208176644065176L884.77567921875,73.66989202065902L886.62919734375,101.5351065271551L888.4827154687499,68.90753028761256L890.3369821875,77.7093005839261L892.19124890625,103.58597646539862L894.04626421875,99.4818911118941L895.9005309375,38.24341852361505L897.7555462500001,33.361416625976574L899.609064375,75.24174828616053L901.4640796875,75.39263018174604L903.319095,79.97048620397393L905.1726131249999,94.69450057983397L907.0253826562499,68.20837524414063L908.879649375,75.83027998143977L910.7346646875,80.01940260453657L912.5904285937501,98.46400376753375L914.4461924999999,100.40106446699663L916.30045921875,75.96367408405652L918.1547259375001,92.50336222561926L920.0082440625,94.51325299349698L921.8625107812501,80.34455448844217L923.71602890625,93.7981518277255L925.5717928124999,99.39182950106533L927.42755671875,89.03568035472524L929.2818234375001,63.93347438205373L931.1345929687501,118.86217548717153L932.9888596874999,96.43624083085494L934.84312640625,60.58365240443835L936.69814171875,81.7471615115079L938.55315703125,88.16591498288241L940.40742375,87.15099413091485L942.2624390625,90.2780510295521L944.11520859375,82.52260445334693L945.96872671875,64.41625990607524L947.82224484375,86.35725280761719L949.6735171875,92.11100340409713L951.5285325,95.92505235151813L953.3820506249999,76.69476476149127L955.2355687500001,112.23073536265981L957.0920812500001,91.19506194374779L958.9463479687499,43.34595540133389L960.7998660937501,88.09118395371868L962.65338421875,110.17351407137787L964.50540515625,61.98568090265447L966.36042046875,84.08994528336959L968.21393859375,98.32092705466532L970.0704510937501,46.27104241111062L971.92546640625,77.62986421931873L973.7782359375,53.580194653597744L975.6302568750001,64.10460105202414L977.483775,85.4720300362327L979.3365445312501,94.80948124972258L981.19006265625,97.72817506963557L983.044329375,63.68927283287047L984.9008418750001,76.06567618630149L986.75361140625,58.07440121217206L988.607878125,10.021509454900556L990.46064765625,26.362965566461753L992.31266859375,56.29086531899191L994.165438125,38.004995685924165L996.0174590625,64.65709555192427L997.8739715625,81.89990253101695L999.72823828125,71.18145334157076L1001.5795106249999,113.38755495938386L1003.43377734375,70.52533213051885L1005.2872954687499,76.52272193041716L1007.1415621875,52.69933206384832L1008.993583125,70.0986497892033L1010.8485984375001,83.42979286540637L1012.6983735937499,70.4745727851174L1014.551143125,99.50925762523305L1016.40540984375,104.75306438792835L1018.2596765625001,51.33325381885875L1020.1102003125001,62.370118836489596L1021.9644670312499,66.16744988658212L1023.8142421875,72.45591449564152L1025.6677603125,91.13317220514472L1027.51903265625,73.40217850251632L1029.3703050000001,96.05433075644751L1031.22457171875,107.75416629444469L1033.080335625,104.62056193265046L1034.9353509375,107.50342512650924L1036.79036625,80.42813531355425L1038.6453815625,94.27778488159181L1040.4974025000001,75.14351672779429L1042.35166921875,46.75056041370737L1044.2029415625,10.387236522327754L1046.051968125,66.31613322431392L1047.90623484375,83.49743386008521L1049.7605015625,93.49851648504084L1051.6140196875,95.58218387950551L1053.469035,82.15472409681838L1055.32330171875,102.41790014787152L1057.17532265625,105.39831635908645L1059.03033796875,78.50545667648315L1060.8861018750001,79.89979112104936L1062.74036859375,88.5433393651789L1064.59538390625,98.4520619687167L1066.4511478125,66.43178328340703L1068.30391734375,56.903444037003936L1070.15743546875,121.76550473299895L1072.0117021875,103.97799013311214L1073.86447171875,71.15535909262573L1075.7172412500001,102.04205118352716L1077.5722565625001,82.12778379613701L1079.427271875,83.41787721460514L1081.2815385937502,20.764798278808613L1083.1373025,38.51777657942338L1084.98707765625,78.5832973584262L1086.83909859375,102.14841085260564L1088.69111953125,72.7299653122642L1090.54613484375,92.33652481079103L1092.4004015625,88.37293405359443L1094.2569140625,84.39738580877132L1096.111929375,75.84577529560435L1097.9639503125,95.0404257548939L1099.81522265625,94.66453495372423L1101.669489375,75.56503908504138L1103.5252532812501,78.91323367552324L1105.38026859375,83.54375637748026L1107.23678109375,94.92448806762695L1109.08880203125,82.82510561856357L1110.9408229687501,106.93860706676138L1112.7950896875,111.68503150246359L1114.6501050000002,94.050001671531L1116.5051203125001,90.27659197027035L1118.360135625,90.50465234929864L1120.21589953125,110.8629012784091L1122.0694176562502,90.81492731961337L1123.92143859375,91.71454195889562L1125.77645390625,103.00034719987347L1127.63296640625,98.48779584711247L1129.487233125,70.90997124065052L1131.34075125,90.68108608592641L1133.19352078125,103.92427164944733L1135.0462903124999,104.52082817077635L1136.90205421875,86.04290136163884L1138.75706953125,73.0956632900238L1140.6128334375,94.87172660134054L1142.4671001562501,108.12344687721945L1144.32211546875,86.66235831520775L1146.17413640625,92.84808459195223L1148.028403125,76.7456925981695L1149.88192125,75.9337202245539L1151.735439375,83.09545518354935L1153.591951875,68.18690706946633L1155.44621859375,64.78959441184998L1157.29973671875,86.20619310552424L1159.1540034375,81.4423920059204L1161.0075215625,88.06368277809837L1162.86178828125,83.76943467226894L1164.71680359375,100.62148439580744L1166.5710703124998,81.1809432255138L1168.42683421875,92.63140905900434L1170.27960375,100.34405133334072L1172.1346190625,91.29888787009502L1173.9881371875,83.21664600719106L1175.8416553125,97.12571432633835L1177.69741921875,107.7247916134921L1179.55243453125,104.71872942837801L1181.4081984375,87.45571003306998L1183.2617165625,100.1784088828347L1185.11448609375,101.3160985911976L1186.9687528125,72.93753054965626L1188.8222709375,76.96637269973755L1190.67728625,78.7494444656372L1192.53305015625,82.93977774186567L1194.38806546875,90.74801193237306L1196.24158359375,85.35958441647615L1198.094353125,88.95165239854292L1199.94712265625,96.1722949149392L1201.7991435937502,82.80288111253218L1203.651913125,79.81796090559527L1205.50617984375,75.38969310587102L1207.358949375,82.82980833920564L1209.21321609375,75.7164628982544L1211.06898,91.10037213412198L1212.9210009375,91.76453173550692L1214.7745190624998,92.12937238519841L1216.629534375,103.81745961969548L1218.4823039062499,94.88143274480647L1220.3380678125,76.71812474510885L1222.193083125,105.64573149941187L1224.04734984375,67.1823396877809L1225.89937078125,28.079083376797783L1227.75288890625,78.43472171783448L1229.60640703125,80.35544775182552L1231.4584279687501,76.5461682024869L1233.31194609375,66.27103786598552L1235.164715625,92.66490205244584L1237.0197309375,87.3967305686257L1238.87250046875,86.87933716513895L1240.72527,61.35758725946601L1242.57803953125,75.05655234943735L1244.4308090625,101.14715103149415L1246.2843271875,87.51223419883033L1248.1393424999999,80.70587169300424L1249.9913634375,94.0284530917081L1251.8448815625,63.959531860351575L1253.6983996875001,96.88273127469148L1255.55416359375,89.43806171070446L1257.40917890625,87.83736254952171L1259.26119984375,80.62139006874779L1261.11621515625,62.40226586081766L1262.9704818750001,94.36626192266291L1264.8269943750001,79.99055219130081L1266.6797639062502,65.9597444304553L1268.5325334375,56.685998444990695L1270.38380578125,64.65172180782668L1272.2365753125,79.26832503752277L1274.0900934375,97.18747332486241L1275.9406171875,76.24367553537542L1277.79488390625,64.77149377476083L1279.64690484375,71.6509262570468L1281.50192015625,92.67203784595837L1283.35693546875,66.0963748403029L1285.2119507812502,76.95169320366598L1287.0662175,98.32472636136143L1288.9197356250002,83.46132606506346L1290.7717565625,70.93782982696186L1292.6245260937499,98.71622229836206L1294.47804421875,74.27299960049714L1296.3323109374999,63.263834483406754L1298.1835832812499,81.80394454262473L1300.0393471875,109.8747494576194L1301.8898709375,139.27162223122338L1303.73814890625,149.57578127774326L1305.586426875,85.97780064669521L1307.439945,62.182748038552006L1309.2919659375,76.89765113830565L1311.14623265625,69.46834247133947L1312.997505,78.37047538930719L1314.851023125,91.56793787869542L1316.70379265625,73.67769818392667L1318.55581359375,64.34856007836082L1320.4093317187499,104.32716812133788L1322.26434703125,88.40901177839801L1324.11936234375,77.43727558482776L1325.972131875,64.50480591253802L1327.8271471875,48.755753690546214L1329.67617375,52.67292518268931L1331.5304404687502,78.18765565352008L1333.386204375,93.34531526045365L1335.23897390625,93.72130280928178L1337.09249203125,92.13394044355911L1338.9452615625,97.61875869750978L1340.8010254687501,91.25869836980647L1342.65454359375,87.39505709561433L1344.50955890625,93.3200536623868L1346.3623284374999,79.86251843192362L1348.2128521875,75.0565222792192L1350.06412453125,84.19541591991076L1351.91913984375,85.53065911726519L1353.7734065625,93.6485171924938L1355.628421875,74.77612730026244L1357.4804428125,105.8786998610063L1359.3332123437501,89.72661552429201L1361.185981875,71.33427770788019L1363.0409971875001,91.46893364646219L1364.8960125,100.5869637853449L1366.7502792187502,91.82540431629526L1368.6052945312501,85.62658311323685L1370.45881265625,80.36726796236906L1372.3115821874999,89.01058348915792L1374.16584890625,86.80095325816762L1376.0186184375,88.70514590176667L1377.8743823437499,57.35546609358356L1379.72790046875,82.80161816336893L1381.57992140625,81.90427317185835L1383.434188125,83.09645926735617L1385.2892034375,88.37859509901566L1387.14347015625,63.31290973316538L1388.9977368749999,86.7136045039784L1390.84900921875,115.44640265724874L1392.7017787500001,103.34211222561923L1394.5530510937501,85.53744321996514L1396.40357484375,79.4934385351701L1398.256344375,88.34208331714974L1400.1083653125,84.08110071702438L1401.96038625,85.69694088675757L1403.8146529687501,59.610119939283884L1405.66966828125,93.14449849909003L1407.52168921875,72.9212341256575L1409.37670453125,65.19456997784701L1411.23097125,86.41641269337045L1413.08374078125,83.50732957666571L1414.9380075,72.61725788549943L1416.791525625,90.842625912753L1418.6427979687498,91.83166153647683L1420.4955674999999,82.72358856201174L1422.349085625,81.77498822992497L1424.20484953125,94.7885497630726L1426.05911625,93.41290526650171L1427.9141315625,88.40587924610485L1429.769146875,94.30235355723987L1431.6226649999999,82.98771359183571L1433.476183125,95.05192826704544L1435.33194703125,79.42924319527364L1437.18247078125,64.84974301945078L1439.0352403125,77.15459723039108L1440.88726125,89.93934924385766L1442.7362878125,72.71107990785077L1444.5845657812501,105.6404679038308L1446.43359234375,94.56655833851207" style="fill: none;" fill="none"></path></g></g></g></g></g></g><g transform="translate(51, 377)" clip-path="url(#clip_1)"><clipPath id="clip_1"><rect width="1497" height="22"></rect></clipPath><g><g><line x1="0" y1="0" x2="0" y2="5" style="visibility: inherit;" fill="rgb(0, 0, 0)" stroke="rgb(204, 204, 204)" stroke-width="1px"></line><line x1="149.71875" y1="0" x2="149.71875" y2="5" style="visibility: inherit;" fill="rgb(0, 0, 0)" stroke="rgb(204, 204, 204)" stroke-width="1px"></line><line x1="299.4375" y1="0" x2="299.4375" y2="5" style="visibility: inherit;" fill="rgb(0, 0, 0)" stroke="rgb(204, 204, 204)" stroke-width="1px"></line><line x1="449.15625" y1="0" x2="449.15625" y2="5" style="visibility: inherit;" fill="rgb(0, 0, 0)" stroke="rgb(204, 204, 204)" stroke-width="1px"></line><line x1="598.875" y1="0" x2="598.875" y2="5" style="visibility: inherit;" fill="rgb(0, 0, 0)" stroke="rgb(204, 204, 204)" stroke-width="1px"></line><line x1="748.59375" y1="0" x2="748.59375" y2="5" style="visibility: inherit;" fill="rgb(0, 0, 0)" stroke="rgb(204, 204, 204)" stroke-width="1px"></line><line x1="898.3125" y1="0" x2="898.3125" y2="5" style="visibility: inherit;" fill="rgb(0, 0, 0)" stroke="rgb(204, 204, 204)" stroke-width="1px"></line><line x1="1048.03125" y1="0" x2="1048.03125" y2="5" style="visibility: inherit;" fill="rgb(0, 0, 0)" stroke="rgb(204, 204, 204)" stroke-width="1px"></line><line x1="1197.75" y1="0" x2="1197.75" y2="5" style="visibility: inherit;" fill="rgb(0, 0, 0)" stroke="rgb(204, 204, 204)" stroke-width="1px"></line><line x1="1347.46875" y1="0" x2="1347.46875" y2="5" style="visibility: inherit;" fill="rgb(0, 0, 0)" stroke="rgb(204, 204, 204)" stroke-width="1px"></line><line x1="1497.1875" y1="0" x2="1497.1875" y2="5" style="visibility: inherit;" fill="rgb(0, 0, 0)" stroke="rgb(204, 204, 204)" stroke-width="1px"></line></g><g transform="translate(0, 8)"><text x="0" y="0" dx="0em" dy="0.95em" style="text-anchor: middle; visibility: hidden; font-family: Roboto, sans-serif; font-size: 12px; font-weight: 200;" fill="rgb(255, 255, 255)" stroke="none" stroke-width="1px">-200k</text><text x="149.71875" y="0" dx="0em" dy="0.95em" style="text-anchor: middle; visibility: inherit; font-family: Roboto, sans-serif; font-size: 12px; font-weight: 200;" fill="rgb(255, 255, 255)" stroke="none" stroke-width="1px">0</text><text x="299.4375" y="0" dx="0em" dy="0.95em" style="text-anchor: middle; visibility: inherit; font-family: Roboto, sans-serif; font-size: 12px; font-weight: 200;" fill="rgb(255, 255, 255)" stroke="none" stroke-width="1px">200k</text><text x="449.15625" y="0" dx="0em" dy="0.95em" style="text-anchor: middle; visibility: inherit; font-family: Roboto, sans-serif; font-size: 12px; font-weight: 200;" fill="rgb(255, 255, 255)" stroke="none" stroke-width="1px">400k</text><text x="598.875" y="0" dx="0em" dy="0.95em" style="text-anchor: middle; visibility: inherit; font-family: Roboto, sans-serif; font-size: 12px; font-weight: 200;" fill="rgb(255, 255, 255)" stroke="none" stroke-width="1px">600k</text><text x="748.59375" y="0" dx="0em" dy="0.95em" style="text-anchor: middle; visibility: inherit; font-family: Roboto, sans-serif; font-size: 12px; font-weight: 200;" fill="rgb(255, 255, 255)" stroke="none" stroke-width="1px">800k</text><text x="898.3125" y="0" dx="0em" dy="0.95em" style="text-anchor: middle; visibility: inherit; font-family: Roboto, sans-serif; font-size: 12px; font-weight: 200;" fill="rgb(255, 255, 255)" stroke="none" stroke-width="1px">1M</text><text x="1048.03125" y="0" dx="0em" dy="0.95em" style="text-anchor: middle; visibility: inherit; font-family: Roboto, sans-serif; font-size: 12px; font-weight: 200;" fill="rgb(255, 255, 255)" stroke="none" stroke-width="1px">1.2M</text><text x="1197.75" y="0" dx="0em" dy="0.95em" style="text-anchor: middle; visibility: inherit; font-family: Roboto, sans-serif; font-size: 12px; font-weight: 200;" fill="rgb(255, 255, 255)" stroke="none" stroke-width="1px">1.4M</text><text x="1347.46875" y="0" dx="0em" dy="0.95em" style="text-anchor: middle; visibility: inherit; font-family: Roboto, sans-serif; font-size: 12px; font-weight: 200;" fill="rgb(255, 255, 255)" stroke="none" stroke-width="1px">1.6M</text><text x="1497.1875" y="0" dx="0em" dy="0.95em" style="text-anchor: middle; visibility: hidden; font-family: Roboto, sans-serif; font-size: 12px; font-weight: 200;" fill="rgb(255, 255, 255)" stroke="none" stroke-width="1px">1.8M</text></g><line x1="0" y1="0" x2="1497.1875" y2="0" fill="rgb(0, 0, 0)" stroke="rgb(204, 204, 204)" stroke-width="1px"></line></g></g></g></g></svg>